<svg width="66" height="66" viewBox="0 0 66 66" fill="none" xmlns="http://www.w3.org/2000/svg">
<circle cx="33" cy="33" r="33" fill="#FF9100"/>
<path d="M42.7065 14.6665H51.0555L51.2388 14.6922L51.4203 14.7435L51.5303 14.7912C51.677 14.8547 51.8108 14.9464 51.9318 15.0662L52.0052 15.1468L52.0858 15.2513L52.1848 15.4163L52.2563 15.5813L52.2912 15.6987L52.3168 15.816L52.3333 15.9902V24.2988C52.3332 24.6472 52.2009 24.9826 51.963 25.2371C51.7252 25.4917 51.3996 25.6465 51.052 25.6702C50.7045 25.694 50.3609 25.5849 50.0906 25.365C49.8204 25.1452 49.6436 24.831 49.5962 24.4858L49.5833 24.2988V19.358L37.7767 31.1647C37.5438 31.3975 37.2352 31.5391 36.9068 31.5637C36.5785 31.5882 36.2522 31.4941 35.9873 31.2985L35.8333 31.1665L30.2783 25.8315L19.8467 36.2613C19.6013 36.5074 19.2719 36.6514 18.9247 36.6644C18.5775 36.6775 18.2382 36.5586 17.9751 36.3317C17.712 36.1048 17.5445 35.7867 17.5064 35.4414C17.4682 35.096 17.5622 34.749 17.7695 34.4702L17.9033 34.3162L29.3067 22.9128C29.5397 22.6802 29.8485 22.539 30.1768 22.5148C30.5052 22.4906 30.8313 22.585 31.096 22.7808L31.25 22.9128L36.805 28.2478L47.6363 17.4165H42.7047C42.3727 17.416 42.0521 17.2955 41.8021 17.0772C41.5521 16.8588 41.3895 16.5574 41.3443 16.2285L41.3315 16.0415C41.3315 15.7092 41.4518 15.3882 41.6702 15.1378C41.8886 14.8874 42.1903 14.7245 42.5195 14.6793L42.7065 14.6665ZM18.875 42.1665C19.2397 42.1665 19.5894 42.3114 19.8473 42.5692C20.1051 42.8271 20.25 43.1768 20.25 43.5415V49.9582C20.25 50.3228 20.1051 50.6726 19.8473 50.9304C19.5894 51.1883 19.2397 51.3332 18.875 51.3332C18.5103 51.3332 18.1606 51.1883 17.9027 50.9304C17.6449 50.6726 17.5 50.3228 17.5 49.9582V43.5415C17.5 43.1768 17.6449 42.8271 17.9027 42.5692C18.1606 42.3114 18.5103 42.1665 18.875 42.1665ZM29.4167 36.2082C29.4167 35.8435 29.2718 35.4938 29.0139 35.2359C28.7561 34.978 28.4063 34.8332 28.0417 34.8332C27.677 34.8332 27.3272 34.978 27.0694 35.2359C26.8115 35.4938 26.6667 35.8435 26.6667 36.2082V49.9582C26.6667 50.3228 26.8115 50.6726 27.0694 50.9304C27.3272 51.1883 27.677 51.3332 28.0417 51.3332C28.4063 51.3332 28.7561 51.1883 29.0139 50.9304C29.2718 50.6726 29.4167 50.3228 29.4167 49.9582V36.2082ZM37.2083 38.4998C37.573 38.4998 37.9227 38.6447 38.1806 38.9026C38.4385 39.1604 38.5833 39.5102 38.5833 39.8748V49.9582C38.5833 50.3228 38.4385 50.6726 38.1806 50.9304C37.9227 51.1883 37.573 51.3332 37.2083 51.3332C36.8437 51.3332 36.4939 51.1883 36.2361 50.9304C35.9782 50.6726 35.8333 50.3228 35.8333 49.9582V39.8748C35.8333 39.5102 35.9782 39.1604 36.2361 38.9026C36.4939 38.6447 36.8437 38.4998 37.2083 38.4998ZM47.75 30.7082C47.75 30.3435 47.6051 29.9938 47.3473 29.7359C47.0894 29.478 46.7397 29.3332 46.375 29.3332C46.0103 29.3332 45.6606 29.478 45.4027 29.7359C45.1449 29.9938 45 30.3435 45 30.7082V49.9582C45 50.3228 45.1449 50.6726 45.4027 50.9304C45.6606 51.1883 46.0103 51.3332 46.375 51.3332C46.7397 51.3332 47.0894 51.1883 47.3473 50.9304C47.6051 50.6726 47.75 50.3228 47.75 49.9582V30.7082Z" fill="white"/>
</svg>
