<svg width="66" height="66" viewBox="0 0 66 66" fill="none" xmlns="http://www.w3.org/2000/svg">
<circle cx="33" cy="33" r="33" fill="#FF9100"/>
<path d="M19.5419 47.9641C20.2033 47.9641 20.7395 47.5984 20.7395 47.1473C20.7395 46.6962 20.2033 46.3306 19.5419 46.3306C18.8804 46.3306 18.3443 46.6962 18.3443 47.1473C18.3443 47.5984 18.8804 47.9641 19.5419 47.9641Z" fill="white"/>
<path d="M54.625 43.0849L54.1754 42.8209C54.141 42.801 50.7056 40.7626 49.8517 38.2889L49.6612 37.741L49.3093 38.2009C49.2983 38.2154 48.8101 38.819 47.4441 39.5271C46.4328 33.7707 42.9925 26.8984 38.4715 23.9683C39.764 24.0728 41.0606 23.9656 42.3119 23.5104C43.0654 23.2368 42.7402 22.0089 41.9798 22.2867C40.9541 22.66 39.9262 22.7617 38.9005 22.7095C41.4188 20.4016 43.3961 16.8644 43.3961 14.278C43.3961 13.6565 43.3961 12.4994 42.4748 12.4994C42.1049 12.4994 41.8059 12.7304 41.3927 13.0494C40.7588 13.5382 39.8018 14.278 38.3959 14.278C37.8603 14.278 36.8799 13.7129 36.0921 13.2591C35.1399 12.7112 34.5314 12.375 34.0199 12.375C33.1729 12.375 31.9279 13.0597 30.8293 13.6641C30.3824 13.9095 29.7712 14.2464 29.6447 14.2787C28.0524 14.2787 27.1277 13.5444 26.5145 13.0584C26.157 12.7737 25.8978 12.5675 25.552 12.5675C24.6459 12.5675 24.6459 13.6544 24.6459 14.9132C24.6459 17.3429 26.4966 20.5501 28.9201 22.7054C27.3931 22.8147 25.8875 23.276 24.8294 24.3011C24.2451 24.8662 25.1306 25.7627 25.7129 25.1989C26.5922 24.3464 27.7451 23.9814 28.9785 23.9106C29.0133 24.0361 29.0566 24.1599 29.1084 24.2818C23.9412 27.995 20.2706 36.8122 20.2706 42.7646C20.2706 43.3517 20.316 43.8831 20.3861 44.3836C19.0537 43.7917 18.5677 43.2726 18.5581 43.2609L18.2033 42.8519L18.0287 43.3675C17.2566 45.639 13.9002 47.6094 13.8666 47.6293L13.375 47.9146L13.8748 48.1848C14.0501 48.2797 14.2241 48.3629 14.3994 48.4529L14.0831 48.6723L14.2502 50.7622L27.3491 53.625L32.3156 50.4481C32.8166 50.4508 33.3249 50.4522 33.8405 50.4522L39.6458 53.625L52.7694 49.5V47.2938L52.4223 47.0855C52.5955 46.9755 52.7685 46.863 52.9413 46.7479L53.4013 46.4406L53.3002 46.3911L53.8852 46.2309L53.9843 43.9374L53.646 43.6975C53.8261 43.5898 54.006 43.4791 54.1857 43.3654L54.625 43.0849ZM25.8964 14.9132C25.8964 14.608 25.9006 14.3701 25.9068 14.1852C26.0119 14.2677 26.1343 14.3578 26.2649 14.4506C26.6658 15.4103 27.4241 16.7922 28.7097 17.6626C30.2717 18.7213 30.0641 17.5044 30.8973 16.3934C31.7306 15.2831 32.2943 14.7015 33.6899 17.5574C34.2984 18.8024 35.3124 15.323 36.2763 14.8149C36.5314 14.9538 36.7858 15.0831 37.0353 15.1931C38.7637 18.0036 39.5646 17.127 41.0998 14.7909C41.5219 14.5434 41.8684 14.278 42.1441 14.0656C42.1455 14.1293 42.1464 14.2005 42.1469 14.2794C42.1469 16.4863 40.3436 19.6515 38.1353 21.7161C38.0309 21.4512 37.8816 21.2063 37.6939 20.9921C36.8023 19.9822 35.4087 21.1021 34.748 21.8371C33.5758 21.4603 31.6659 20.4229 30.4216 21.0169C30.1116 21.1605 29.8269 21.3535 29.5787 21.5882C27.5437 19.7333 25.8964 17.0555 25.8964 14.9132ZM37.0367 22.4579C36.7285 22.3924 36.422 22.319 36.1175 22.2379C36.5011 21.9072 36.8531 21.7917 37.0009 22.2833C37.0168 22.3369 37.0264 22.3981 37.0367 22.4579ZM31.8117 22.8848C31.5844 22.8408 31.3504 22.803 31.1097 22.7714C30.9272 22.6571 30.7486 22.5367 30.5742 22.4104C31.2026 21.989 32.2861 22.2131 33.3214 22.5644C32.8106 22.616 32.3067 22.7274 31.8117 22.8848ZM32.1238 24.6998C31.7388 24.7961 31.3194 24.7576 30.9571 24.6132C31.1042 24.5355 31.2527 24.4681 31.4012 24.4001C31.6419 24.5162 31.8825 24.6132 32.1238 24.6998ZM19.4071 49.7606C17.7673 49.2858 16.1762 48.6567 14.6551 47.8816C15.5881 47.2684 17.6203 45.7854 18.4467 44.0034C19.0132 44.4483 20.3208 45.2595 22.8673 45.8824C22.824 45.9525 22.7711 46.0274 22.7202 46.101C20.5463 45.5317 19.3102 44.8119 19.2903 44.7996L18.9905 44.6208L18.8468 44.9419C18.6577 45.3626 18.2143 45.4259 17.9675 45.4259C17.8988 45.4259 17.8527 45.4211 17.8465 45.4204L17.6011 45.3846L17.5117 45.6197C17.3288 46.0996 16.5781 46.7266 16.3031 46.9281L15.8438 47.2649L16.3691 47.4801C16.5643 47.5599 16.6172 47.6334 16.62 47.6527C16.6269 47.7001 16.5437 47.8252 16.455 47.8974L16.0549 48.2199L16.5203 48.4351C17.4739 48.8751 18.5539 49.2394 19.634 49.5399C19.5488 49.6237 19.4731 49.6973 19.4071 49.7606ZM24.9511 47.1989C25.9122 47.3337 26.9772 47.4189 28.1404 47.4189H28.1411C28.3827 47.4189 28.6286 47.415 28.8788 47.4073C28.8965 47.4587 28.9203 47.5078 28.9496 47.5537C29.0106 47.6467 29.0933 47.7233 29.1978 47.7833L27.4433 49.2827L27.3429 49.2807C26.5612 49.2807 25.9782 49.5681 25.6984 50.0796C24.6383 49.9441 23.5831 49.7728 22.5346 49.566C23.3777 48.8163 24.1842 48.0264 24.9511 47.1989ZM17.1487 48.0219C17.2174 47.8919 17.2621 47.7345 17.2381 47.5626C17.216 47.4073 17.1416 47.2642 17.027 47.157C17.3357 46.8923 17.7613 46.4839 17.995 46.0611C18.5264 46.0536 18.9651 45.8521 19.2414 45.496C19.7069 45.7394 20.7553 46.2309 22.3042 46.6572C21.6711 47.4513 20.8179 48.3519 20.1544 49.0215C19.1204 48.7479 18.0789 48.4179 17.1487 48.0219ZM26.9462 50.9156L26.8053 50.9163C26.2134 50.9163 24.2519 50.8681 21.6608 50.3284C21.7515 50.2514 21.8457 50.1724 21.933 50.0968C24.0354 50.5361 25.7307 50.7244 25.8579 50.7389L26.1096 50.7657L26.1872 50.5216C26.3571 49.995 26.9834 49.9173 27.3422 49.9173C27.4406 49.9173 27.5059 49.9235 27.5134 49.9242L27.6468 49.9386L30.6945 47.3344L29.8798 47.3076C29.6076 47.2979 29.4927 47.2367 29.4646 47.1948L29.6371 46.7431L29.16 46.7631C28.8121 46.7782 28.4723 46.7857 28.1404 46.7857C27.1807 46.7857 26.2897 46.7225 25.4667 46.6228L25.6579 46.3973C27.3189 46.6194 29.3078 46.7562 31.7092 46.739C31.1359 47.5434 29.7059 49.2532 26.9462 50.9156ZM33.8377 47.9284V49.1831C33.4468 49.1831 33.0652 49.1817 32.6931 49.1789L32.581 47.7668L31.6501 47.8424C32.2771 47.1013 32.5446 46.607 32.5686 46.5623L32.8209 46.0852L32.2881 46.0948C27.1883 46.1883 23.8621 45.5806 21.7625 44.9054C21.6092 44.2853 21.5205 43.5841 21.5205 42.7652C21.5205 37.1807 25.0893 28.7396 29.8276 25.3186C30.667 26.1305 31.9402 26.4859 33.1502 25.696C33.4156 25.5227 33.6466 25.2959 33.8632 25.0546C33.9148 25.0559 33.9677 25.0676 34.0199 25.0676C34.1932 25.0676 34.3692 25.0532 34.5445 25.0312C34.7666 25.1199 34.9838 25.2093 35.1852 25.2979C36.1498 25.7228 36.9734 25.4588 37.5358 24.8731C41.876 27.4993 45.3534 34.4465 46.2684 40.062C44.2843 40.8554 41.1369 41.6295 36.3066 41.7656C37.2594 41.2211 37.9744 40.3054 37.7173 39.1022C37.4471 37.8304 36.3843 37.4729 35.2836 37.4144C35.2804 36.8177 35.2808 36.2207 35.2849 35.6235C35.6225 35.7727 35.9463 35.9446 36.2406 36.1281C36.7603 36.4547 37.2306 35.6084 36.7143 35.2818C36.2666 35.0004 35.7887 34.77 35.2897 34.595C35.2966 33.9038 35.3001 33.2131 35.3001 32.5229C35.3007 31.8904 34.3609 31.8904 34.3609 32.5229C34.3605 33.1302 34.3573 33.7365 34.3513 34.342C33.8511 34.2548 33.3403 34.2463 32.8374 34.3166C32.7553 33.8616 32.6563 33.4098 32.5404 32.9622C32.3851 32.3531 31.4776 32.6109 31.635 33.2221C31.7505 33.6614 31.8447 34.0986 31.9224 34.5421C31.8825 34.5572 31.8392 34.5647 31.8 34.5826C30.5267 35.0866 29.7499 36.3715 30.6814 37.5698C31.1153 38.1281 31.6824 38.3536 32.3032 38.4285C32.3369 39.2556 32.3582 40.0833 32.3823 40.9097C31.9664 40.6395 31.5876 40.293 31.2445 39.9266C30.8196 39.4783 30.1562 40.1706 30.5804 40.6182C31.1572 41.2321 31.7629 41.6962 32.4194 41.9932C32.449 42.6993 32.4909 43.4074 32.5597 44.11C32.6202 44.7336 33.5607 44.737 33.4995 44.11C33.4416 43.5023 33.3988 42.8932 33.3709 42.2833C33.7284 42.3452 34.1038 42.361 34.5026 42.3232C34.5472 42.9736 34.5995 43.6239 34.6737 44.2743C34.7164 44.6469 35.0725 44.7934 35.3351 44.7177L35.2767 46.068C34.8628 46.1051 34.4407 46.1395 34.0007 46.1684L33.4768 46.2027L33.7559 46.6538C33.7841 46.6991 34.1011 47.2003 34.8085 47.9297H33.8377V47.9284ZM50.9483 43.4032C50.0841 43.8096 48.9909 44.1822 47.8772 44.5074C47.1924 43.7999 46.3166 42.856 45.6628 42.0186C47.1196 41.5773 47.9349 41.1221 48.3028 40.8767C48.5936 41.1331 48.9786 41.2665 49.4344 41.2658C49.5856 41.2658 49.7197 41.2514 49.8228 41.2349C50.1528 41.6625 50.6849 42.1561 51.0177 42.4511C50.86 42.6129 50.7842 42.7907 50.7901 42.9846C50.7956 43.1496 50.8616 43.2898 50.9483 43.4032ZM46.0292 45.6624C46.1699 45.7861 46.3143 45.9122 46.4623 46.0405C43.6752 46.7796 41.601 46.86 41.1493 46.8676C38.2632 45.1069 36.7672 43.2438 36.1904 42.405C38.6056 42.3445 40.6021 42.1259 42.2672 41.8247C42.3349 41.9079 42.4034 41.9904 42.4728 42.0722C41.1344 42.2808 39.7855 42.4147 38.4323 42.4731L37.8775 42.4964L38.1827 42.9633C38.1821 42.9639 38.1202 43.0794 37.7104 43.1592L37.0443 43.2891L40.3195 45.9408L40.4721 45.8996C40.4756 45.8989 40.7643 45.8212 41.1136 45.8212C41.6175 45.8212 41.9619 45.9745 42.1352 46.2742L42.2452 46.464L42.459 46.4262C43.6566 46.208 44.8472 45.9532 46.0292 45.6624ZM36.3375 43.6418L35.5551 43.5992C35.5187 43.2087 35.4823 42.8182 35.4548 42.4277C35.5923 42.6559 35.8741 43.0849 36.3375 43.6418ZM35.3695 41.1249C35.3244 40.1994 35.2971 39.2732 35.2877 38.3467C35.4014 38.3513 35.5114 38.3611 35.6177 38.3762C36.8332 38.5605 37.1508 39.9121 36.2021 40.6725C35.9546 40.8684 35.6693 41.0121 35.3695 41.1249ZM42.5463 45.7669C42.2383 45.3867 41.7481 45.1873 41.1142 45.1873C40.8496 45.1873 40.6165 45.2231 40.4694 45.2519L38.4103 43.5834C38.5808 43.4853 38.6975 43.3602 38.7602 43.208C38.7757 43.17 38.7876 43.1306 38.796 43.0904C40.4281 43.0011 41.8031 42.8381 42.9657 42.6388C43.5294 43.2678 44.3579 44.1354 45.4565 45.144C44.1069 45.4651 42.9815 45.6851 42.5463 45.7669ZM34.3472 38.3714C34.3603 39.3676 34.385 40.3666 34.4379 41.3621C34.3493 41.3758 34.2619 41.393 34.1746 41.4019C33.879 41.4356 33.5985 41.4109 33.3317 41.3435C33.2981 40.381 33.2761 39.4164 33.2396 38.4532C33.6095 38.4361 33.9842 38.3996 34.3472 38.3714ZM33.1922 37.5018C33.1494 36.7463 33.0783 35.9927 32.9791 35.2426C33.4347 35.1793 33.8982 35.2029 34.3451 35.3121C34.3402 36.0149 34.3391 36.7178 34.3417 37.4206C34.0399 37.4371 33.7532 37.466 33.5009 37.4887C33.3982 37.4969 33.2952 37.5013 33.1922 37.5018ZM32.2489 37.3814C32.1905 37.3656 32.1328 37.3533 32.0729 37.3333C31.7982 37.2394 31.5493 37.0823 31.3462 36.8748C30.7591 36.3268 31.5649 35.7892 32.0729 35.5341C32.1527 36.146 32.2077 36.7634 32.2489 37.3814ZM39.8369 50.7643C36.8524 49.2394 35.2513 47.5447 34.6153 46.7596C35.0725 46.7252 35.5049 46.684 35.9333 46.6407L40.8269 49.8169L51.5588 46.8689C46.0244 50.2047 40.5567 50.7128 39.8369 50.7643ZM48.7001 45.3399L48.3825 45.0216C49.6035 44.6518 50.7846 44.2228 51.6653 43.7511L52.2009 43.4631L51.6577 43.1867C51.5361 43.1241 51.4171 43.0093 51.4151 42.966C51.4164 42.9495 51.4646 42.8615 51.6729 42.7419L52.0703 42.5136L51.7169 42.2194C51.7059 42.2104 50.6038 41.2954 50.2168 40.7062L50.0889 40.5137L49.8696 40.5776C49.8675 40.5776 49.6791 40.6319 49.4344 40.6319C49.0563 40.6326 48.773 40.5089 48.5915 40.2655L48.3907 39.9994L48.1391 40.216C48.1261 40.227 47.3471 40.8657 45.2578 41.4693C45.1889 41.3702 45.1227 41.2694 45.0591 41.1668C47.5926 40.3989 48.8871 39.4694 49.4481 38.9606C50.3488 40.909 52.4931 42.4786 53.4239 43.0939C51.9284 43.9987 50.3459 44.7512 48.7001 45.3399Z" fill="white"/>
<path d="M42.5112 43.393C41.8258 43.2067 41.0524 43.3339 40.7815 43.6742C40.5127 44.0159 40.8523 44.4463 41.5371 44.634C42.2232 44.8203 42.9959 44.6924 43.2668 44.3514C43.5356 44.0097 43.1974 43.5807 42.5112 43.393Z" fill="white"/>
</svg>
