<svg width="66" height="66" viewBox="0 0 66 66" fill="none" xmlns="http://www.w3.org/2000/svg">
<circle cx="33" cy="33" r="33" fill="#FF9100"/>
<path d="M48.1992 34.8335C49.4866 32.9829 50.2638 30.8257 50.4526 28.5792C50.6414 26.3327 50.235 24.0761 49.2744 22.0366C48.3138 19.997 46.8329 18.2465 44.9807 16.9613C43.1286 15.676 40.9705 14.9013 38.7238 14.7152C36.477 14.5291 34.2209 14.9381 32.1825 15.9011C30.1441 16.8641 28.3953 18.3471 27.1123 20.2007C25.8292 22.0544 25.057 24.2134 24.8736 26.4604C24.6901 28.7073 25.1018 30.9629 26.0672 33.0002" stroke="white" stroke-width="1.5" stroke-linecap="round" stroke-linejoin="round"/>
<path d="M37.6667 22.0003C35.6408 22.0003 34 23.2323 34 24.7503C34 26.2683 35.6408 27.5003 37.6667 27.5003C39.6925 27.5003 41.3333 28.7323 41.3333 30.2503C41.3333 31.7683 39.6925 33.0003 37.6667 33.0003M37.6667 22.0003C39.2617 22.0003 40.622 22.7648 41.1243 23.8337M37.6667 22.0003V20.167M37.6667 33.0003C36.0717 33.0003 34.7113 32.2358 34.209 31.167M37.6667 33.0003V34.8337" stroke="white" stroke-width="1.5" stroke-linecap="round"/>
<path d="M17.5 36.667H21.8908C22.4298 36.667 22.9615 36.788 23.4437 37.0227L27.1873 38.834C27.6695 39.0668 28.2012 39.1878 28.742 39.1878H30.6523C32.5003 39.1878 34 40.638 34 42.4273C34 42.5007 33.9505 42.563 33.879 42.5832L29.2205 43.872C28.3846 44.1029 27.4933 44.0221 26.7125 43.6447L22.7103 41.7087M34 41.2503L42.4205 38.6635C43.1536 38.4386 43.939 38.4509 44.6646 38.6988C45.3902 38.9467 46.019 39.4175 46.4612 40.044C47.1377 40.979 46.8627 42.321 45.8763 42.8893L32.0988 50.8405C31.668 51.0898 31.191 51.2487 30.6968 51.3076C30.2026 51.3666 29.7015 51.3243 29.2242 51.1833L17.5 47.7037" stroke="white" stroke-width="1.5" stroke-linecap="round" stroke-linejoin="round"/>
</svg>
