<svg width="66" height="66" viewBox="0 0 66 66" fill="none" xmlns="http://www.w3.org/2000/svg">
<circle cx="33" cy="33" r="33" fill="#FF9100"/>
<path d="M27.4 30.7998C27.4 29.6329 27.8636 28.5137 28.6887 27.6885C29.5139 26.8634 30.633 26.3998 31.8 26.3998C32.9669 26.3998 34.0861 26.8634 34.9113 27.6885C35.7364 28.5137 36.2 29.6329 36.2 30.7998C36.2 31.9668 35.7364 33.0859 34.9113 33.9111C34.0861 34.7362 32.9669 35.1998 31.8 35.1998C30.633 35.1998 29.5139 34.7362 28.6887 33.9111C27.8636 33.0859 27.4 31.9668 27.4 30.7998ZM31.8 28.5998C31.2165 28.5998 30.6569 28.8316 30.2444 29.2442C29.8318 29.6568 29.6 30.2163 29.6 30.7998C29.6 31.3833 29.8318 31.9429 30.2444 32.3554C30.6569 32.768 31.2165 32.9998 31.8 32.9998C32.3835 32.9998 32.943 32.768 33.3556 32.3554C33.7682 31.9429 34 31.3833 34 30.7998C34 30.2163 33.7682 29.6568 33.3556 29.2442C32.943 28.8316 32.3835 28.5998 31.8 28.5998ZM19.7 19.7998C18.8248 19.7998 17.9854 20.1475 17.3665 20.7664C16.7477 21.3852 16.4 22.2246 16.4 23.0998V38.4998C16.4 39.375 16.7477 40.2144 17.3665 40.8333C17.9854 41.4521 18.8248 41.7998 19.7 41.7998H43.9C44.7752 41.7998 45.6146 41.4521 46.2334 40.8333C46.8523 40.2144 47.2 39.375 47.2 38.4998V23.0998C47.2 22.2246 46.8523 21.3852 46.2334 20.7664C45.6146 20.1475 44.7752 19.7998 43.9 19.7998H19.7ZM18.6 23.0998C18.6 22.8081 18.7159 22.5283 18.9222 22.322C19.1285 22.1157 19.4083 21.9998 19.7 21.9998H23V24.1998C23 24.7833 22.7682 25.3429 22.3556 25.7554C21.943 26.168 21.3835 26.3998 20.8 26.3998H18.6V23.0998ZM18.6 28.5998H20.8C21.9669 28.5998 23.0861 28.1362 23.9113 27.3111C24.7364 26.4859 25.2 25.3668 25.2 24.1998V21.9998H38.4V24.1998C38.4 25.3668 38.8636 26.4859 39.6887 27.3111C40.5139 28.1362 41.633 28.5998 42.8 28.5998H45V32.9998H42.8C41.633 32.9998 40.5139 33.4634 39.6887 34.2885C38.8636 35.1137 38.4 36.2329 38.4 37.3998V39.5998H25.2V37.3998C25.2 36.2329 24.7364 35.1137 23.9113 34.2885C23.0861 33.4634 21.9669 32.9998 20.8 32.9998H18.6V28.5998ZM40.6 21.9998H43.9C44.1917 21.9998 44.4715 22.1157 44.6778 22.322C44.8841 22.5283 45 22.8081 45 23.0998V26.3998H42.8C42.2165 26.3998 41.6569 26.168 41.2444 25.7554C40.8318 25.3429 40.6 24.7833 40.6 24.1998V21.9998ZM45 35.1998V38.4998C45 38.7915 44.8841 39.0713 44.6778 39.2776C44.4715 39.4839 44.1917 39.5998 43.9 39.5998H40.6V37.3998C40.6 36.8163 40.8318 36.2568 41.2444 35.8442C41.6569 35.4316 42.2165 35.1998 42.8 35.1998H45ZM23 39.5998H19.7C19.4083 39.5998 19.1285 39.4839 18.9222 39.2776C18.7159 39.0713 18.6 38.7915 18.6 38.4998V35.1998H20.8C21.3835 35.1998 21.943 35.4316 22.3556 35.8442C22.7682 36.2568 23 36.8163 23 37.3998V39.5998ZM49.4 38.4998C49.4 39.9585 48.8205 41.3574 47.7891 42.3889C46.7576 43.4203 45.3587 43.9998 43.9 43.9998H20.987C21.2146 44.6435 21.6362 45.2007 22.1937 45.5947C22.7513 45.9888 23.4173 46.2002 24.1 46.1998H43.9C45.9422 46.1998 47.9007 45.3886 49.3447 43.9445C50.7887 42.5005 51.6 40.542 51.6 38.4998V27.4998C51.6004 26.8171 51.389 26.1511 50.9949 25.5935C50.6009 25.036 50.0437 24.6144 49.4 24.3868V38.4998Z" fill="white"/>
</svg>
