<svg width="357" height="253" viewBox="0 0 357 253" fill="none" xmlns="http://www.w3.org/2000/svg">
<path opacity="0.3" d="M316.592 57.5894C316.592 57.5894 311.98 35.0261 296.591 36.5634C289.597 37.2612 284.914 40.7719 280.858 46.2178C275.652 53.2065 273.771 49.1452 266.336 51.4348C259.669 53.49 260.694 59.1321 256.589 60.157C252.484 61.1819 249.409 56.5645 243.767 57.5894C238.125 58.6143 235.045 64.2564 235.045 64.2564H337.623C337.351 62.3432 336.527 60.5509 335.252 59.0986C333.977 57.6464 332.306 56.5972 330.444 56.0794C323.771 54.0024 320.697 59.1321 316.592 57.5894Z" stroke="black" stroke-width="1.2602" stroke-miterlimit="10"/>
<path opacity="0.3" d="M74.2616 56.0955C74.2616 56.0955 71.3451 41.851 61.6362 42.8213C57.2152 43.2684 54.266 45.4762 51.7038 48.916C48.433 53.3262 47.2446 50.764 42.54 52.1868C38.3316 53.4842 38.9803 57.044 36.3854 57.6927C33.7906 58.3414 31.8553 55.4249 28.2956 56.0573C24.7358 56.6897 22.7897 60.2658 22.7897 60.2658H87.5303C87.3624 59.0549 86.8441 57.9195 86.0392 56.9993C85.2343 56.0792 84.178 55.4145 83.0002 55.087C78.7917 53.8277 76.851 57.0658 74.2616 56.0955Z" stroke="black" stroke-width="1.2602" stroke-miterlimit="10"/>
<path opacity="0.3" d="M238.261 200.966C238.261 200.966 235.699 188.455 227.168 189.311C223.292 189.698 220.697 191.644 218.445 194.664C215.556 198.535 214.526 196.3 210.394 197.554C206.698 198.693 207.265 201.822 204.991 202.389C202.718 202.956 201.012 200.399 197.905 200.966C194.797 201.533 193.075 204.662 193.075 204.662H249.933C249.785 203.599 249.329 202.602 248.622 201.794C247.915 200.986 246.987 200.403 245.953 200.116C242.23 198.976 240.523 201.822 238.261 200.966Z" stroke="black" stroke-width="1.2602" stroke-miterlimit="10"/>
<path opacity="0.3" d="M102.483 179.008C102.483 179.008 99.9213 166.502 91.3899 167.353C87.514 167.74 84.9191 169.686 82.6677 172.706C79.7839 176.576 78.7536 174.341 74.6215 175.595C70.9254 176.734 71.4924 179.863 69.2192 180.43C66.9459 180.997 65.2396 178.441 62.1324 179.008C59.0251 179.575 57.3024 182.704 57.3024 182.704H114.16C114.012 181.64 113.557 180.644 112.85 179.836C112.143 179.028 111.215 178.445 110.181 178.157C106.463 176.991 104.757 179.836 102.483 179.008Z" stroke="black" stroke-width="1.2602" stroke-miterlimit="10"/>
<path d="M292.481 74.0738L303.689 82.3763L225.227 130.119L211.113 156.69L121.024 189.899L27.2271 251.783H82.3788L141.368 207.333L231.038 174.537L246.814 145.476L322.37 93.5843L338.147 105.626L356 62.0317V57.0273L292.481 74.0738Z" fill="#2B3826" stroke="#2B3826" stroke-width="1.2602" stroke-linecap="round" stroke-linejoin="round"/>
<path d="M292.481 69.064L303.689 77.3665L225.227 125.11L211.113 151.68L121.024 184.89L21.6722 251.783H76.7966L141.368 202.329L231.038 169.533L246.814 140.472L322.37 88.5799L338.147 100.617L356 57.0273L292.481 69.064Z" fill="white" stroke="#2B3826" stroke-width="1.2602" stroke-linecap="round" stroke-linejoin="round"/>
<path d="M225.467 164.256L227.304 165.793" stroke="#2B3826" stroke-width="1.2602" stroke-linecap="round" stroke-linejoin="round"/>
<path d="M214.433 155L223.183 162.343" stroke="#2B3826" stroke-width="1.2602" stroke-linecap="round" stroke-linejoin="round"/>
<path d="M228.547 126.358L234.358 130.507" stroke="#2B3826" stroke-width="1.2602" stroke-linecap="round" stroke-linejoin="round"/>
<path d="M138.463 200.666L121.787 188.951" stroke="#2B3826" stroke-width="1.2602" stroke-linecap="round" stroke-linejoin="round"/>
<path d="M292.48 74.0738V69.064L303.689 77.3664L299.998 79.656L292.48 74.0738Z" fill="white" stroke="#2B3826" stroke-width="1.2602" stroke-linecap="round" stroke-linejoin="round"/>
<path d="M338.147 105.626V100.616L322.37 88.5796V93.584L338.147 105.626Z" fill="white" stroke="#2B3826" stroke-width="1.2602" stroke-miterlimit="10"/>
<path d="M148.084 98.4469L144.813 104.596C144.813 104.596 145.604 105.637 145.904 105.468C146.204 105.299 147.812 102.514 147.812 102.514L146.525 107.273C146.525 107.273 147.043 108.096 147.365 107.736C147.686 107.376 148.858 103.969 149.153 103.92C149.447 103.871 150.139 102.639 150.139 102.639L148.951 106.504C148.951 106.504 148.504 108.319 149.294 108.194C150.085 108.069 150.139 106.313 150.139 106.313L151.818 103.735L151.192 106.504C151.192 106.504 152.282 107.278 152.451 106.613C152.62 105.948 153.214 103.342 153.214 103.342C153.214 103.342 155.94 100.071 156.256 99.7062C156.572 99.341 158.18 95.3942 158.18 95.3942L155.749 91.9707L148.084 98.4469Z" fill="white" stroke="#2B3826" stroke-width="1.2602" stroke-linecap="round" stroke-linejoin="round"/>
<path d="M155.296 92.7339L148.82 94.4184C148.82 94.4184 146.852 99.2156 146.291 100.044C145.729 100.873 146.405 101.031 147.414 100.627C148.422 100.224 150.172 97.9454 150.172 97.9454C150.172 97.9454 153.252 98.4033 154.272 96.7352" fill="white"/>
<path d="M155.296 92.7339L148.82 94.4184C148.82 94.4184 146.852 99.2156 146.291 100.044C145.729 100.873 146.405 101.031 147.414 100.627C148.422 100.224 150.172 97.9454 150.172 97.9454C150.172 97.9454 153.252 98.4033 154.272 96.7352" stroke="#2B3826" stroke-width="1.2602" stroke-linecap="round" stroke-linejoin="round"/>
<path d="M149.453 100.704L152.233 102.306" stroke="#2B3826" stroke-width="1.2602" stroke-linecap="round" stroke-linejoin="round"/>
<path d="M195.048 39.5611L208.518 73.9375L209.707 77.6608C209.707 77.6608 196.738 83.0795 194.045 83.5102C192.788 83.6815 191.545 83.9457 190.327 84.3006L176.759 50.2731L181.36 42.9464L192.382 38.3618L195.048 39.5611Z" fill="white" stroke="#2B3826" stroke-width="1.2602" stroke-linecap="round" stroke-linejoin="round"/>
<path d="M195.124 57.605L201.464 77.5625" stroke="#2B3826" stroke-width="1.2602" stroke-linecap="round" stroke-linejoin="round"/>
<path d="M191.581 153.653C191.392 155.444 191.11 157.223 190.736 158.985C190.322 160.495 189.002 164.627 189.199 165.706C189.395 166.786 190.447 171.408 191.09 171.752C191.734 172.095 192.693 172.177 193.216 171.752C193.74 171.327 196.4 166.137 196.651 164.327C196.901 162.517 196.732 156.613 196.771 156.15C196.809 155.687 191.581 153.653 191.581 153.653Z" fill="#2B3826" stroke="#2B3826" stroke-width="1.2602" stroke-linecap="round" stroke-linejoin="round"/>
<path d="M248.412 119.92C248.412 119.92 252.773 121.937 253.351 121.986C253.928 122.035 258.9 122.531 258.9 122.531C258.9 122.531 263.021 121.724 263.665 122.068C264.308 122.411 264.084 123.938 264.084 123.938C264.084 123.938 255.793 128.342 254.615 128.626C253.438 128.909 252.026 128.408 251.235 128.626L250.445 128.849L251.11 130.065L246.155 132.731C246.155 132.731 243.974 130.223 243.887 128.773C243.8 127.323 243.745 124.804 243.745 124.804L243.036 121.844L248.412 119.92Z" fill="#2B3826" stroke="#2B3826" stroke-width="1.2602" stroke-linecap="round" stroke-linejoin="round"/>
<path d="M193.909 38.7544C193.909 38.7544 203.176 62.408 204.931 66.0495C206.687 69.691 208.246 74.0848 209.598 75.2242C210.95 76.3635 206.114 63.1657 205.656 60.5709C205.198 57.976 205.269 53.1243 205.269 53.1243L246.002 39.1524L244.476 34.0771L210.459 38.1493C210.459 38.1493 203.536 37.3861 202.086 37.4352C200.636 37.4843 193.909 38.7544 193.909 38.7544Z" fill="#FF9100" stroke="#2B3826" stroke-width="1.2602" stroke-linecap="round" stroke-linejoin="round"/>
<path d="M196.999 38.1934C195.326 38.4877 193.909 38.7385 193.909 38.7385C193.909 38.7385 200.396 55.2507 203.541 62.8064C203.279 58.4578 202.639 54.1404 201.628 49.9029C200.502 45.8476 198.95 41.9226 196.999 38.1934Z" fill="#FF9100" stroke="#2B3826" stroke-width="1.2602" stroke-linecap="round" stroke-linejoin="round"/>
<path d="M206.518 42.5811L205.269 53.124L208.518 43.0935" stroke="#2B3826" stroke-width="1.2602" stroke-linecap="round" stroke-linejoin="round"/>
<path d="M244.476 34.0774L246.978 33.6958L247.964 38.1278L246.002 39.1472L244.476 34.0774Z" fill="white" stroke="#2B3826" stroke-width="1.2602" stroke-linecap="round" stroke-linejoin="round"/>
<path d="M255.951 32.4199C255.951 32.4199 258.05 32.7688 258.006 33.2758C257.962 33.7828 257.216 36.5466 257.216 36.5466C256.21 36.7975 255.158 36.7975 254.152 36.5466C252.827 36.0942 252.397 35.1184 252.729 34.208C253.062 33.2976 255.951 32.4199 255.951 32.4199Z" fill="white" stroke="#2B3826" stroke-width="1.2602" stroke-linecap="round" stroke-linejoin="round"/>
<path d="M254.419 33.396L256.152 34.0556L255.967 36.1708" stroke="#2B3826" stroke-width="1.2602" stroke-linecap="round" stroke-linejoin="round"/>
<path d="M253.781 33.854L254.811 34.7916C254.872 35.0442 254.872 35.3077 254.811 35.5603" stroke="#2B3826" stroke-width="1.2602" stroke-linecap="round" stroke-linejoin="round"/>
<path d="M246.983 33.6956L253.525 32.2073C253.525 32.2073 259.799 29.5961 260.023 29.9559C260.151 30.1145 260.213 30.3165 260.196 30.5197C260.179 30.7229 260.083 30.9115 259.93 31.0462C259.56 31.3569 254.986 33.0087 254.446 33.3903C253.907 33.7719 253.569 34.6768 253.956 35.1402C254.184 35.461 254.486 35.7227 254.836 35.9038C255.185 36.0849 255.573 36.18 255.967 36.1814C256.916 36.0887 259.238 35.778 259.298 36.1269C259.358 36.4758 259.571 36.9173 258.753 37.2172C257.935 37.517 256.692 37.3807 256.087 37.5006C255.482 37.6206 253.034 38.3456 252.102 38.2638C251.249 38.1333 250.411 37.9197 249.6 37.626L247.937 38.1711L246.983 33.6956Z" fill="white" stroke="#2B3826" stroke-width="1.2602" stroke-linecap="round" stroke-linejoin="round"/>
<path d="M207.733 74.0085C207.733 74.0085 214.548 87.2554 215.082 87.2663C215.616 87.2772 221.787 82.6271 221.951 82.4145C222.114 82.2019 213.73 77.4102 211.364 74.9461C208.998 72.4821 206.91 69.751 206.91 69.751L207.733 74.0085Z" fill="#FF9100" stroke="#2B3826" stroke-width="1.2602" stroke-linecap="round" stroke-linejoin="round"/>
<path d="M209.707 77.6606L212.978 83.3628C212.978 83.3628 230.078 81.3948 235.873 81.0078C241.668 80.6207 243.712 81.2368 243.712 81.2368L249.469 119.903L240.273 123.981L231.676 95.056C231.676 95.056 212.531 100.273 209.734 100.589C208.33 100.715 206.94 100.965 205.58 101.336C205.58 101.336 200.303 137.07 199.9 141.791C199.496 146.512 199.529 155.147 199.529 155.147L196.88 157.687C196.88 157.687 191.161 154.651 190.883 154.182C190.605 153.713 187.705 109.873 187.705 109.873L186.615 92.7446L190.322 84.3222L209.707 77.6606Z" fill="#FF9100" stroke="#2B3826" stroke-width="1.2602" stroke-linecap="round" stroke-linejoin="round"/>
<path d="M192.442 85.467L210.513 79.2524L209.707 77.6606L192.186 83.6136L192.442 85.467Z" fill="#2B3826" stroke="#2B3826" stroke-width="1.2602" stroke-linecap="round" stroke-linejoin="round"/>
<path d="M200.036 80.9154L200.881 82.9379L204.931 81.5042L204.168 79.5635L200.036 80.9154Z" fill="white" stroke="#2B3826" stroke-width="1.2602" stroke-linecap="round" stroke-linejoin="round"/>
<path d="M196.204 118.35L196.165 116.153" stroke="#2B3826" stroke-width="1.2602" stroke-linecap="round" stroke-linejoin="round"/>
<path d="M196.88 157.666L196.242 120.662" stroke="#2B3826" stroke-width="1.2602" stroke-linecap="round" stroke-linejoin="round"/>
<path d="M205.58 101.315C205.58 101.315 206.643 93.9661 208.824 89.605" stroke="#2B3826" stroke-width="1.2602" stroke-linecap="round" stroke-linejoin="round"/>
<path d="M209.914 86.1865C209.914 86.1865 206.747 91.3653 206.261 92.4938" stroke="#2B3826" stroke-width="1.2602" stroke-linecap="round" stroke-linejoin="round"/>
<path d="M237.476 93.2031L239.052 92.707" stroke="#2B3826" stroke-width="1.2602" stroke-linecap="round" stroke-linejoin="round"/>
<path d="M231.676 95.0346L235.852 93.7153" stroke="#2B3826" stroke-width="1.2602" stroke-linecap="round" stroke-linejoin="round"/>
<path d="M189.744 52.05L194.372 54.9774L195.828 48.1795L190.605 46.5659L189.744 52.05Z" fill="#2B3826" stroke="#2B3826" stroke-width="1.2602" stroke-linecap="round" stroke-linejoin="round"/>
<path d="M191.826 49.2647L187.879 57.9324L182.641 43.9332L193.909 38.7544L200.112 50.4967L191.826 49.2647Z" fill="white" stroke="#2B3826" stroke-width="1.2602" stroke-linecap="round" stroke-linejoin="round"/>
<path d="M156.932 90.4937L154.795 92.7287L158.197 96.5501L159.298 94.8221L156.932 90.4937Z" stroke="#2B3826" stroke-width="1.2602" stroke-linecap="round" stroke-linejoin="round"/>
<path d="M181.36 42.9464L168.483 53.0805L167.186 79.5851L156.283 91.033L159.478 95.8848L175.287 83.3956L177.435 68.3008L180.427 76.9139L176.966 97.9672C179.35 98.9088 181.79 99.7043 184.271 100.349C187.896 101.243 192.529 100.666 192.529 100.666L193.325 75.3876L183.175 42.543L181.36 42.9464Z" fill="#FF9100" stroke="#2B3826" stroke-width="1.2602" stroke-linecap="round" stroke-linejoin="round"/>
<path d="M181.872 80.9429L191.15 81.8369V85.4076L181.692 83.9793" fill="#FF9100"/>
<path d="M181.872 80.9429L191.15 81.8369V85.4076L181.692 83.9793" stroke="#2B3826" stroke-width="1.2602" stroke-linecap="round" stroke-linejoin="round"/>
<path d="M183.153 42.5156L181.359 42.9463L179.01 44.7943C180.092 48.8534 181.496 52.82 183.207 56.6565C185.181 61.0176 188.915 66.0656 191.385 69.1947L183.153 42.5156Z" fill="#FF9100" stroke="#2B3826" stroke-width="1.2602" stroke-linecap="round" stroke-linejoin="round"/>
<path d="M194.372 54.9775L185.334 62.6095L168.56 60.3908L160.617 66.6326L158.905 70.6775L165.736 71.7678L172.179 64.8118C172.179 64.8118 185.137 67.1941 185.841 66.9597C186.544 66.7253 193.472 57.2835 193.472 57.2835L194.372 54.9775Z" fill="#2B3826" stroke="#2B3826" stroke-width="1.2602" stroke-linecap="round" stroke-linejoin="round"/>
<path d="M175.341 25.5455C175.341 25.5455 173.013 26.2161 171.94 24.826C170.866 23.4359 170.157 21.6369 171.105 21.9367C171.906 22.2415 172.672 22.6307 173.39 23.0979C173.39 23.0979 173.024 19.827 173.793 19.6635C174.562 19.5 174.883 20.95 174.883 20.95C174.883 20.95 178.23 18.5296 181.97 18.0881C185.71 17.6465 191.237 19.7507 192.044 20.5739C192.851 21.397 192.311 28.8273 192.153 29.3561C191.995 29.8848 191.679 31.155 191.101 31.5366C190.523 31.9182 189.182 32.4524 188.479 31.8528C187.776 31.2531 187.847 30.3918 186.566 30.1738C185.285 29.9557 182.145 29.9012 181.937 28.582C181.73 27.2627 183.115 24.8968 181.817 24.8914C180.52 24.8859 177.282 26.0198 176.415 26.0525C175.548 26.0852 175.341 25.5455 175.341 25.5455Z" fill="#2B3826" stroke="#2B3826" stroke-width="1.2602" stroke-linecap="round" stroke-linejoin="round"/>
<path d="M175.341 25.5457V32.1527L176.66 33.8917L176.115 40.1281L178.841 39.9264C178.841 39.9264 180.656 45.2797 181.185 45.4323C181.714 45.585 184.003 44.1567 184.003 44.1567C184.003 44.1567 191.445 49.559 191.793 49.2646C192.142 48.9703 193.587 39.6757 193.832 39.3704C194.078 39.0651 192.742 34.1916 192.742 34.1916C192.742 34.1916 193.8 32.011 193.505 30.3756C193.211 28.7402 192.687 28.5712 192.687 28.5712C192.687 28.5712 191.548 27.9334 191.172 28.5712C190.796 29.209 189.651 31.1497 189.651 31.1497L187.988 29.0564C187.988 29.0564 183.262 28.653 183.317 28.0042C183.371 27.3555 184.407 24.0956 184.112 23.7413C183.818 23.3869 178.214 23.6431 175.341 25.5457Z" fill="white" stroke="#2B3826" stroke-width="1.2602" stroke-linecap="round" stroke-linejoin="round"/>
<path d="M181.747 33.379C181.965 33.9242 181.921 34.4693 181.648 34.5675C181.376 34.6656 180.978 34.3221 180.754 33.777C180.531 33.2319 180.58 32.6867 180.853 32.594C181.125 32.5014 181.523 32.8339 181.747 33.379Z" fill="#2B3826"/>
<path d="M177.849 32.7523C177.849 32.7523 179.43 36.094 180.389 36.3557C181.349 36.6173 184.069 36.0449 184.418 35.0964C184.767 34.1478 183.807 30.7734 183.807 30.7734L177.849 32.7523Z" stroke="#2B3826" stroke-width="1.2602" stroke-linecap="round" stroke-linejoin="round"/>
<path d="M183.807 30.7737L191.221 28.5332" stroke="#2B3826" stroke-width="1.2602" stroke-linecap="round" stroke-linejoin="round"/>
<path d="M177.849 32.7524L173.144 34.6659C173.144 34.6659 174.207 36.8083 176.012 36.5139" stroke="#2B3826" stroke-width="1.2602" stroke-linecap="round" stroke-linejoin="round"/>
<path d="M182.112 39.2614C182.112 39.2614 184.718 38.9507 185.279 36.5957" stroke="#2B3826" stroke-width="1.2602" stroke-linecap="round" stroke-linejoin="round"/>
<path d="M184.036 44.1564C184.036 44.1564 187.967 41.458 188.446 41.0546C188.926 40.6512 189.411 39.1738 189.411 39.1738C189.411 39.1738 188.866 43.6712 188.495 44.6252C188.125 45.5792 187.705 46.6041 187.705 46.6041L184.036 44.1564Z" fill="#2B3826" stroke="#2B3826" stroke-width="1.2602" stroke-linecap="round" stroke-linejoin="round"/>
<path d="M192.791 34.1914C192.791 34.1914 192.186 35.8541 191.199 35.9468" stroke="#2B3826" stroke-width="1.2602" stroke-linecap="round" stroke-linejoin="round"/>
<path d="M179.31 31.275C179.632 30.7892 180.098 30.4161 180.642 30.2079C181.186 29.9997 181.782 29.9668 182.346 30.1139" stroke="#2B3826" stroke-width="1.2602" stroke-linecap="round" stroke-linejoin="round"/>
<path d="M133.48 109.453L134.685 106.286L137.192 103.914C137.192 103.914 138.065 102.328 138.593 102.65C139.122 102.971 138.811 103.315 138.593 103.941C138.196 104.61 137.708 105.221 137.143 105.757C137.143 105.757 142.05 102.486 142.322 102.415C142.595 102.344 143.412 102.873 142.976 103.396C142.54 103.92 139.237 106.122 139.237 106.122L144.612 103.718C144.612 103.718 145.042 105.141 144.459 105.457C143.876 105.773 140.845 107.828 140.845 107.828C140.845 107.828 143.205 107.196 143.876 106.885C144.546 106.575 144.83 107.616 144.339 107.943C143.849 108.27 140.828 110.123 140.828 110.123C140.828 110.123 143.75 109.447 143.625 109.807C143.5 110.167 143.571 110.45 142.726 110.652C141.881 110.854 138.512 112.413 138.512 112.413L133.873 113.77L133.48 109.453Z" fill="white" stroke="#2B3826" stroke-width="1.2602" stroke-linecap="round" stroke-linejoin="round"/>
<path d="M131.785 110.565L133.485 109.453L135.508 113.863L133.088 115.368L131.785 110.565Z" fill="white" stroke="#2B3826" stroke-width="1.2602" stroke-linecap="round" stroke-linejoin="round"/>
<path d="M68.1779 150.982C68.1779 150.982 68.6522 156.771 68.6031 157.349C68.5541 157.927 71.0563 160.582 71.6995 161.023C72.3428 161.465 74.6433 160.789 74.6433 160.789C74.6433 160.789 77.1727 157.404 76.9655 156.428C76.8624 155.862 76.5609 155.352 76.1151 154.989L72.9915 152.061L71.9939 150.824L68.1779 150.982Z" fill="white" stroke="#2B3826" stroke-width="1.2602" stroke-linecap="round" stroke-linejoin="round"/>
<path d="M72.5826 157.595L71.2906 159.039C71.2906 159.039 71.8903 159.972 72.49 159.824L73.0842 159.683" stroke="#2B3826" stroke-width="1.2602" stroke-linecap="round" stroke-linejoin="round"/>
<path d="M71.9938 150.824C71.9938 150.824 75.2647 153.729 75.9134 153.98C76.1858 154.104 76.4136 154.308 76.5658 154.565C76.718 154.823 76.7871 155.121 76.7638 155.419C75.7495 156.478 74.6561 157.459 73.493 158.352C72.8715 158.788 72.3155 158.445 72.5826 157.594C72.8497 156.744 73.4494 155.414 73.4494 155.414C73.4494 155.414 72.1737 155.496 71.8739 154.498" fill="white"/>
<path d="M71.9938 150.824C71.9938 150.824 75.2647 153.729 75.9134 153.98C76.1858 154.104 76.4136 154.308 76.5658 154.565C76.718 154.823 76.7871 155.121 76.7638 155.419C75.7495 156.478 74.6561 157.459 73.493 158.352C72.8715 158.788 72.3155 158.445 72.5826 157.594C72.8497 156.744 73.4494 155.414 73.4494 155.414C73.4494 155.414 72.1737 155.496 71.8739 154.498" stroke="#2B3826" stroke-width="1.2602" stroke-linecap="round" stroke-linejoin="round"/>
<path d="M67.9217 148.333L68.1834 150.982C68.1834 150.982 69.568 151.881 70.5493 151.772C71.3351 151.611 72.0863 151.312 72.768 150.889L73.5639 149.063L67.9217 148.333Z" fill="white" stroke="#2B3826" stroke-width="1.2602" stroke-linecap="round" stroke-linejoin="round"/>
<path d="M122.801 188.16C122.801 188.16 120.969 194.745 120.947 196.114C121.008 197.565 121.147 199.011 121.362 200.448C121.362 200.448 121.907 200.993 123.286 200.807C124.271 200.733 125.228 200.449 126.093 199.973C126.41 199.706 126.371 197.847 126.371 197.847C126.371 197.847 127.723 198.06 128.683 198.24C129.642 198.42 132.788 197.149 134.009 196.544C135.23 195.939 137.514 194.402 137.825 193.159C138.135 191.916 137.28 191.355 136.903 191.322C136.527 191.289 131.73 191.267 130.673 191.077C129.615 190.886 127.811 189.076 127.74 188.776C127.669 188.476 122.801 188.16 122.801 188.16Z" fill="#2B3826" stroke="#2B3826" stroke-width="1.2602" stroke-linecap="round" stroke-linejoin="round"/>
<path d="M96.9994 214.392L97.2283 217.44C97.2283 217.44 99.4089 220.269 100.085 220.618C100.761 220.967 102.2 220.994 102.32 221.882C102.44 222.771 102.696 223.185 101.987 223.518C101.279 223.85 98.4495 224.875 97.3701 224.881C96.2907 224.886 94.3173 224.03 94.3173 224.03L94.0229 225.181C93.3904 225.422 92.7148 225.529 92.0386 225.497C91.2526 225.485 90.473 225.353 89.7272 225.104C89.7272 225.104 89.2584 222.624 89.471 221.288C89.6836 219.953 90.5613 216.382 90.5613 216.382L91.3245 213.22L96.9994 214.392Z" fill="#2B3826" stroke="#2B3826" stroke-width="1.2602" stroke-linecap="round" stroke-linejoin="round"/>
<path d="M85.5133 152.175L87.9937 157.354L94.8897 182.392L90.7357 213.787C90.7357 213.787 92.2894 214.992 93.5486 215.101C94.8079 215.21 97.937 214.986 97.937 214.986L105.258 181.82L106.485 157.289L125.608 158.052L121.792 188.956C121.792 188.956 124.175 189.55 125.063 189.621C126.416 189.564 127.763 189.42 129.097 189.19C129.097 189.19 138.07 150.644 138.337 149.788C138.458 149.53 138.516 149.248 138.507 148.963C138.497 148.679 138.42 148.401 138.283 148.152C138.037 147.64 116.09 142.352 116.09 142.352C116.09 142.352 90.3487 152.59 85.5133 152.175Z" fill="#FF9100" stroke="#2B3826" stroke-width="1.2602" stroke-linecap="round" stroke-linejoin="round"/>
<path d="M106.501 157.284L95.533 156.559L106.016 164.273L106.501 157.284Z" fill="#2B3826" stroke="#2B3826" stroke-width="1.2602" stroke-linecap="round" stroke-linejoin="round"/>
<path d="M85.546 101.341C85.546 101.341 79.0043 105.245 78.5737 106.58C78.143 107.916 69.1482 129.803 69.0719 130.714C68.9956 131.624 67.3602 149.33 67.3602 149.33C68.2602 149.682 69.202 149.917 70.1622 150.028C71.525 150.142 73.5638 149.063 73.5638 149.063L77.5543 130.528L84.7119 121.768L86.7998 129.498L81.8063 153.086C81.8063 153.086 90.1797 155.517 98.9727 153.086C107.766 150.655 117.753 142.221 117.753 142.221C117.753 142.221 112.623 132.627 111.211 130.675C109.799 128.724 108.578 126.674 108.578 126.674L108.703 122.564C108.703 122.564 116.248 130.648 117.071 130.376C117.894 130.103 134.036 115.352 134.036 115.352L131.812 110.582L117.12 117.794C117.12 117.794 109.745 101.025 108.196 100.437C106.648 99.8478 103.247 99.4389 103.247 99.4389C103.247 99.4389 92.6764 96.9204 85.546 101.341Z" fill="#FF9100" stroke="#2B3826" stroke-width="1.2602" stroke-linecap="round" stroke-linejoin="round"/>
<path d="M96.2525 72.5148C96.9066 73.2653 97.4668 74.0928 97.9206 74.9788C98.7656 76.5706 98.9782 78.2878 100.265 78.9365C101.551 79.5853 103.345 79.4817 103.296 80.0868C103.247 80.6919 102.233 82.0547 102.233 82.0547C102.233 82.0547 103.721 87.6315 103.372 88.5964C103.023 89.5613 98.6348 91.6764 98.6348 91.6764V96.6863L92.1531 97.2041C91.0659 94.4517 90.1734 91.6264 89.4819 88.749C88.7187 85.1075 92.2948 83.0033 92.2076 78.7076C92.1204 74.4119 92.8672 72.0569 93.7776 71.8661C94.688 71.6753 96.2525 72.5148 96.2525 72.5148Z" fill="white" stroke="#2B3826" stroke-width="1.2602" stroke-linecap="round" stroke-linejoin="round"/>
<path d="M99.0382 79.056C99.2562 79.6012 99.229 80.1463 98.9782 80.2281C98.7275 80.3099 98.3459 79.9664 98.1278 79.4213C97.9098 78.8762 97.937 78.331 98.1878 78.2438C98.4385 78.1566 98.8201 78.5055 99.0382 79.056Z" fill="#2B3826"/>
<path d="M97.2338 77.7805C97.2338 77.7805 97.1465 76.6902 98.1987 76.9682" stroke="#2B3826" stroke-width="1.2602" stroke-linecap="round" stroke-linejoin="round"/>
<path d="M102.751 84.3335C102.535 84.5644 102.255 84.7249 101.946 84.7939C101.638 84.863 101.316 84.8374 101.023 84.7205" stroke="#2B3826" stroke-width="1.2602" stroke-linecap="round" stroke-linejoin="round"/>
<path d="M95.364 74.5805C95.364 74.5805 96.7923 77.7423 96.0672 79.9174C95.5873 81.3079 94.9334 82.6322 94.1211 83.8587C94.1211 83.8587 92.6874 85.9738 92.9272 87.3367C93.1671 88.6995 94.6063 93.8238 95.0315 94.1291L95.4512 94.4344L96.3507 95.4047C96.3507 95.4047 91.6298 98.3103 86.4837 98.9427C81.3376 99.575 77.9523 98.2994 77.2763 97.8851C76.8347 97.6085 76.4122 97.3025 76.0116 96.9693C76.0116 96.9693 78.6337 92.4555 78.6828 87.7019C78.7318 82.9483 77.2818 80.07 78.6828 75.9051C80.0838 71.7403 90.7521 69.6088 90.7521 69.6088C90.7521 69.6088 91.2428 68.0388 93.287 68.2132C95.3313 68.3877 97.3756 72.6779 97.3756 72.6779L95.364 74.5805Z" fill="#2B3826" stroke="#2B3826" stroke-width="1.2602" stroke-linecap="round" stroke-linejoin="round"/>
<path d="M94.7916 85.4399C94.7916 85.4399 93.1998 83.1557 92.3276 84.9602C91.4553 86.7646 94.2464 89.6811 95.6638 88.8197" fill="white"/>
<path d="M94.7916 85.4399C94.7916 85.4399 93.1998 83.1557 92.3276 84.9602C91.4553 86.7646 94.2464 89.6811 95.6638 88.8197" stroke="#2B3826" stroke-width="1.2602" stroke-linecap="round" stroke-linejoin="round"/>
<path d="M92.6328 96.1138C92.6328 96.1138 97.8225 95.645 98.7274 95.7213C99.6323 95.7976 101.802 97.2422 101.802 97.2422L101.655 98.9485C101.655 98.9485 96.6232 97.602 93.8266 98.1635C91.03 98.725 87.0342 99.9625 87.0342 99.9625L87.8355 97.2804C87.8355 97.2804 90.5667 96.1465 92.6328 96.1138Z" fill="white" stroke="#2B3826" stroke-width="1.2602" stroke-linecap="round" stroke-linejoin="round"/>
<path d="M85.546 101.341L86.4837 98.9426C86.4837 98.9426 93.3251 97.2691 95.9909 96.9747C98.3155 96.773 100.651 97.2103 102.745 98.2394C103.45 98.6226 104.003 99.2338 104.315 99.9729C104.315 99.9729 98.9292 98.7137 94.1865 99.3351C91.2497 99.7309 88.3567 100.403 85.546 101.341Z" fill="#FF9100" stroke="#2B3826" stroke-width="1.2602" stroke-linecap="round" stroke-linejoin="round"/>
<path d="M108.676 122.547L101.818 115.771C101.818 115.771 100.281 113.694 101.148 110.222" stroke="#2B3826" stroke-width="1.2602" stroke-linecap="round" stroke-linejoin="round"/>
<path d="M84.712 121.751L80.678 111.454" stroke="#2B3826" stroke-width="1.2602" stroke-linecap="round" stroke-linejoin="round"/>
</svg>
