<svg width="48" height="48" viewBox="0 0 48 48" fill="none" xmlns="http://www.w3.org/2000/svg">
<rect width="48" height="48" rx="8" fill="#D5ED9F"/>
<path d="M31.9151 7.3335H39.5051L39.6717 7.35683L39.8367 7.4035L39.9367 7.44683C40.0701 7.50461 40.1917 7.58794 40.3017 7.69683L40.3684 7.77016L40.4417 7.86516L40.5317 8.01516L40.5967 8.16516L40.6284 8.27183L40.6517 8.3785L40.6667 8.53683V16.0902C40.6666 16.4069 40.5463 16.7117 40.3301 16.9431C40.1139 17.1746 39.8179 17.3153 39.5019 17.3369C39.186 17.3585 38.8736 17.2593 38.6279 17.0594C38.3822 16.8596 38.2216 16.5739 38.1784 16.2602L38.1667 16.0902V11.5985L27.4334 22.3318C27.2217 22.5435 26.9412 22.6722 26.6426 22.6946C26.3441 22.7169 26.0475 22.6314 25.8067 22.4535L25.6667 22.3335L20.6167 17.4835L11.1334 26.9652C10.9103 27.1888 10.6109 27.3197 10.2953 27.3316C9.97963 27.3435 9.6712 27.2354 9.43199 27.0291C9.19278 26.8229 9.04053 26.5337 9.00585 26.2197C8.97117 25.9058 9.05664 25.5903 9.24506 25.3368L9.36672 25.1968L19.7334 14.8302C19.9452 14.6187 20.2259 14.4903 20.5245 14.4683C20.823 14.4463 21.1195 14.5321 21.3601 14.7102L21.5001 14.8302L26.5501 19.6802L36.3967 9.8335H31.9134C31.6116 9.83308 31.3202 9.72351 31.0929 9.525C30.8656 9.3265 30.7178 9.05247 30.6767 8.7535L30.6651 8.5835C30.6651 8.28143 30.7745 7.98959 30.973 7.76195C31.1715 7.5343 31.4458 7.38624 31.7451 7.34516L31.9151 7.3335ZM10.2501 32.3335C10.5816 32.3335 10.8995 32.4652 11.1339 32.6996C11.3684 32.934 11.5001 33.252 11.5001 33.5835V39.4168C11.5001 39.7484 11.3684 40.0663 11.1339 40.3007C10.8995 40.5351 10.5816 40.6668 10.2501 40.6668C9.91854 40.6668 9.60059 40.5351 9.36617 40.3007C9.13175 40.0663 9.00006 39.7484 9.00006 39.4168V33.5835C9.00006 33.252 9.13175 32.934 9.36617 32.6996C9.60059 32.4652 9.91854 32.3335 10.2501 32.3335ZM19.8334 26.9168C19.8334 26.5853 19.7017 26.2674 19.4673 26.0329C19.2329 25.7985 18.9149 25.6668 18.5834 25.6668C18.2519 25.6668 17.9339 25.7985 17.6995 26.0329C17.4651 26.2674 17.3334 26.5853 17.3334 26.9168V39.4168C17.3334 39.7484 17.4651 40.0663 17.6995 40.3007C17.9339 40.5351 18.2519 40.6668 18.5834 40.6668C18.9149 40.6668 19.2329 40.5351 19.4673 40.3007C19.7017 40.0663 19.8334 39.7484 19.8334 39.4168V26.9168ZM26.9167 29.0002C27.2482 29.0002 27.5662 29.1319 27.8006 29.3663C28.035 29.6007 28.1667 29.9186 28.1667 30.2502V39.4168C28.1667 39.7484 28.035 40.0663 27.8006 40.3007C27.5662 40.5351 27.2482 40.6668 26.9167 40.6668C26.5852 40.6668 26.2673 40.5351 26.0328 40.3007C25.7984 40.0663 25.6667 39.7484 25.6667 39.4168V30.2502C25.6667 29.9186 25.7984 29.6007 26.0328 29.3663C26.2673 29.1319 26.5852 29.0002 26.9167 29.0002ZM36.5001 21.9168C36.5001 21.5853 36.3684 21.2674 36.1339 21.0329C35.8995 20.7985 35.5816 20.6668 35.2501 20.6668C34.9185 20.6668 34.6006 20.7985 34.3662 21.0329C34.1318 21.2674 34.0001 21.5853 34.0001 21.9168V39.4168C34.0001 39.7484 34.1318 40.0663 34.3662 40.3007C34.6006 40.5351 34.9185 40.6668 35.2501 40.6668C35.5816 40.6668 35.8995 40.5351 36.1339 40.3007C36.3684 40.0663 36.5001 39.7484 36.5001 39.4168V21.9168Z" fill="#00712D"/>
</svg>
