<svg width="48" height="48" viewBox="0 0 48 48" fill="none" xmlns="http://www.w3.org/2000/svg">
<rect width="48" height="48" rx="8" fill="#D5ED9F"/>
<path d="M18 22C18 20.9391 18.4214 19.9217 19.1716 19.1716C19.9217 18.4214 20.9391 18 22 18C23.0609 18 24.0783 18.4214 24.8284 19.1716C25.5786 19.9217 26 20.9391 26 22C26 23.0609 25.5786 24.0783 24.8284 24.8284C24.0783 25.5786 23.0609 26 22 26C20.9391 26 19.9217 25.5786 19.1716 24.8284C18.4214 24.0783 18 23.0609 18 22ZM22 20C21.4696 20 20.9609 20.2107 20.5858 20.5858C20.2107 20.9609 20 21.4696 20 22C20 22.5304 20.2107 23.0391 20.5858 23.4142C20.9609 23.7893 21.4696 24 22 24C22.5304 24 23.0391 23.7893 23.4142 23.4142C23.7893 23.0391 24 22.5304 24 22C24 21.4696 23.7893 20.9609 23.4142 20.5858C23.0391 20.2107 22.5304 20 22 20ZM11 12C10.2044 12 9.44129 12.3161 8.87868 12.8787C8.31607 13.4413 8 14.2044 8 15V29C8 29.7956 8.31607 30.5587 8.87868 31.1213C9.44129 31.6839 10.2044 32 11 32H33C33.7956 32 34.5587 31.6839 35.1213 31.1213C35.6839 30.5587 36 29.7956 36 29V15C36 14.2044 35.6839 13.4413 35.1213 12.8787C34.5587 12.3161 33.7956 12 33 12H11ZM10 15C10 14.7348 10.1054 14.4804 10.2929 14.2929C10.4804 14.1054 10.7348 14 11 14H14V16C14 16.5304 13.7893 17.0391 13.4142 17.4142C13.0391 17.7893 12.5304 18 12 18H10V15ZM10 20H12C13.0609 20 14.0783 19.5786 14.8284 18.8284C15.5786 18.0783 16 17.0609 16 16V14H28V16C28 17.0609 28.4214 18.0783 29.1716 18.8284C29.9217 19.5786 30.9391 20 32 20H34V24H32C30.9391 24 29.9217 24.4214 29.1716 25.1716C28.4214 25.9217 28 26.9391 28 28V30H16V28C16 26.9391 15.5786 25.9217 14.8284 25.1716C14.0783 24.4214 13.0609 24 12 24H10V20ZM30 14H33C33.2652 14 33.5196 14.1054 33.7071 14.2929C33.8946 14.4804 34 14.7348 34 15V18H32C31.4696 18 30.9609 17.7893 30.5858 17.4142C30.2107 17.0391 30 16.5304 30 16V14ZM34 26V29C34 29.2652 33.8946 29.5196 33.7071 29.7071C33.5196 29.8946 33.2652 30 33 30H30V28C30 27.4696 30.2107 26.9609 30.5858 26.5858C30.9609 26.2107 31.4696 26 32 26H34ZM14 30H11C10.7348 30 10.4804 29.8946 10.2929 29.7071C10.1054 29.5196 10 29.2652 10 29V26H12C12.5304 26 13.0391 26.2107 13.4142 26.5858C13.7893 26.9609 14 27.4696 14 28V30ZM38 29C38 30.3261 37.4732 31.5979 36.5355 32.5355C35.5979 33.4732 34.3261 34 33 34H12.17C12.3769 34.5852 12.7602 35.0917 13.267 35.4499C13.7739 35.8081 14.3793 36.0003 15 36H33C34.8565 36 36.637 35.2625 37.9497 33.9497C39.2625 32.637 40 30.8565 40 29V19C40.0003 18.3793 39.8081 17.7739 39.4499 17.267C39.0917 16.7602 38.5852 16.3769 38 16.17V29Z" fill="#00712D"/>
</svg>
