<svg width="48" height="48" viewBox="0 0 48 48" fill="none" xmlns="http://www.w3.org/2000/svg">
<rect width="48" height="48" rx="8" fill="#D5ED9F"/>
<path d="M36.9084 25.6666C38.0788 23.9842 38.7853 22.0232 38.9569 19.9809C39.1285 17.9386 38.7591 15.8872 37.8858 14.033C37.0126 12.1789 35.6663 10.5875 33.9825 9.4191C32.2987 8.25068 30.3368 7.54642 28.2943 7.37723C26.2519 7.20804 24.2008 7.57988 22.3477 8.45532C20.4947 9.33077 18.9049 10.6789 17.7384 12.3641C16.572 14.0493 15.87 16.012 15.7033 18.0546C15.5365 20.0973 15.9107 22.1479 16.7883 24" stroke="#00712D" stroke-width="1.5" stroke-linecap="round" stroke-linejoin="round"/>
<path d="M27.3333 14.0002C25.4917 14.0002 24 15.1202 24 16.5002C24 17.8802 25.4917 19.0002 27.3333 19.0002C29.175 19.0002 30.6667 20.1202 30.6667 21.5002C30.6667 22.8802 29.175 24.0002 27.3333 24.0002M27.3333 14.0002C28.7833 14.0002 30.02 14.6952 30.4767 15.6668M27.3333 14.0002V12.3335M27.3333 24.0002C25.8833 24.0002 24.6467 23.3052 24.19 22.3335M27.3333 24.0002V25.6668" stroke="#00712D" stroke-width="1.5" stroke-linecap="round"/>
<path d="M9 27.3335H12.9917C13.4817 27.3335 13.965 27.4435 14.4033 27.6568L17.8067 29.3035C18.245 29.5152 18.7283 29.6252 19.22 29.6252H20.9567C22.6367 29.6252 24 30.9435 24 32.5702C24 32.6368 23.955 32.6935 23.89 32.7118L19.655 33.8835C18.8951 34.0934 18.0848 34.02 17.375 33.6768L13.7367 31.9168M24 31.5002L31.655 29.1485C32.3214 28.944 33.0354 28.9553 33.6951 29.1806C34.3547 29.406 34.9263 29.834 35.3283 30.4035C35.9433 31.2535 35.6933 32.4735 34.7967 32.9902L22.2717 40.2185C21.88 40.4451 21.4464 40.5896 20.9971 40.6432C20.5478 40.6968 20.0923 40.6583 19.6583 40.5302L9 37.3668" stroke="#00712D" stroke-width="1.5" stroke-linecap="round" stroke-linejoin="round"/>
</svg>
