<svg width="48" height="48" viewBox="0 0 48 48" fill="none" xmlns="http://www.w3.org/2000/svg">
<rect width="48" height="48" rx="8" fill="#D5ED9F"/>
<path d="M10.8562 37.6037C11.4575 37.6037 11.945 37.2712 11.945 36.8612C11.945 36.4511 11.4575 36.1187 10.8562 36.1187C10.2549 36.1187 9.76746 36.4511 9.76746 36.8612C9.76746 37.2712 10.2549 37.6037 10.8562 37.6037Z" fill="#00712D"/>
<path d="M42.75 33.1681L42.3413 32.9281C42.31 32.91 39.1869 31.0569 38.4106 28.8081L38.2375 28.31L37.9175 28.7281C37.9075 28.7412 37.4638 29.29 36.2219 29.9337C35.3025 24.7006 32.175 18.4531 28.065 15.7894C29.24 15.8844 30.4188 15.7869 31.5563 15.3731C32.2413 15.1244 31.9456 14.0081 31.2544 14.2606C30.3219 14.6 29.3875 14.6925 28.455 14.645C30.7444 12.5469 32.5419 9.33125 32.5419 6.98C32.5419 6.415 32.5419 5.36312 31.7044 5.36312C31.3681 5.36312 31.0962 5.57312 30.7206 5.86312C30.1444 6.3075 29.2744 6.98 27.9963 6.98C27.5094 6.98 26.6181 6.46625 25.9019 6.05375C25.0362 5.55563 24.4831 5.25 24.0181 5.25C23.2481 5.25 22.1163 5.8725 21.1175 6.42188C20.7113 6.645 20.1556 6.95125 20.0406 6.98063C18.5931 6.98063 17.7525 6.31312 17.195 5.87125C16.87 5.6125 16.6344 5.425 16.32 5.425C15.4962 5.425 15.4962 6.41312 15.4962 7.5575C15.4962 9.76625 17.1787 12.6819 19.3819 14.6412C17.9938 14.7406 16.625 15.16 15.6631 16.0919C15.1319 16.6056 15.9369 17.4206 16.4662 16.9081C17.2656 16.1331 18.3137 15.8012 19.435 15.7369C19.4667 15.851 19.506 15.9635 19.5531 16.0744C14.8556 19.45 11.5187 27.4656 11.5187 32.8769C11.5187 33.4106 11.56 33.8937 11.6237 34.3487C10.4125 33.8106 9.97062 33.3387 9.96187 33.3281L9.63937 32.9563L9.48063 33.425C8.77875 35.49 5.7275 37.2812 5.69687 37.2994L5.25 37.5588L5.70437 37.8044C5.86375 37.8906 6.02188 37.9663 6.18125 38.0481L5.89375 38.2475L6.04563 40.1475L17.9538 42.75L22.4687 39.8619C22.9242 39.8644 23.3862 39.8656 23.855 39.8656L29.1325 42.75L41.0631 39V36.9944L40.7475 36.805C40.905 36.705 41.0623 36.6027 41.2194 36.4981L41.6375 36.2187L41.5456 36.1738L42.0775 36.0281L42.1675 33.9431L41.86 33.725C42.0238 33.6271 42.1873 33.5265 42.3506 33.4231L42.75 33.1681ZM16.6331 7.5575C16.6331 7.28 16.6369 7.06375 16.6425 6.89562C16.7381 6.97062 16.8494 7.0525 16.9681 7.13688C17.3325 8.00938 18.0219 9.26562 19.1906 10.0569C20.6106 11.0194 20.4219 9.91312 21.1794 8.90312C21.9369 7.89375 22.4494 7.365 23.7181 9.96125C24.2712 11.0931 25.1931 7.93 26.0694 7.46812C26.3013 7.59437 26.5325 7.71187 26.7594 7.81187C28.3306 10.3669 29.0587 9.57 30.4544 7.44625C30.8381 7.22125 31.1531 6.98 31.4038 6.78688C31.405 6.84479 31.4058 6.90958 31.4062 6.98125C31.4062 8.9875 29.7669 11.865 27.7594 13.7419C27.6645 13.5011 27.5287 13.2784 27.3581 13.0838C26.5475 12.1656 25.2806 13.1837 24.68 13.8519C23.6144 13.5094 21.8781 12.5662 20.7469 13.1062C20.4651 13.2368 20.2063 13.4122 19.9806 13.6256C18.1306 11.9394 16.6331 9.505 16.6331 7.5575ZM26.7606 14.4163C26.4804 14.3567 26.2018 14.29 25.925 14.2163C26.2738 13.9156 26.5938 13.8106 26.7281 14.2575C26.7425 14.3063 26.7512 14.3619 26.7606 14.4163ZM22.0106 14.8044C21.804 14.7644 21.5912 14.73 21.3725 14.7012C21.2066 14.5974 21.0442 14.4879 20.8856 14.3731C21.4569 13.99 22.4419 14.1937 23.3831 14.5131C22.9188 14.56 22.4606 14.6613 22.0106 14.8044ZM22.2944 16.4544C21.9444 16.5419 21.5631 16.5069 21.2337 16.3756C21.3675 16.305 21.5025 16.2437 21.6375 16.1819C21.8562 16.2875 22.075 16.3756 22.2944 16.4544ZM10.7338 39.2369C9.24302 38.8053 7.79655 38.2333 6.41375 37.5287C7.26187 36.9712 9.10937 35.6231 9.86062 34.0031C10.3756 34.4075 11.5644 35.145 13.8794 35.7112C13.84 35.775 13.7919 35.8431 13.7456 35.91C11.7694 35.3925 10.6456 34.7381 10.6275 34.7269L10.355 34.5644L10.2244 34.8562C10.0525 35.2387 9.64938 35.2963 9.425 35.2963C9.3625 35.2963 9.32062 35.2919 9.315 35.2913L9.09188 35.2587L9.01063 35.4725C8.84438 35.9087 8.16187 36.4787 7.91187 36.6619L7.49438 36.9681L7.97188 37.1638C8.14938 37.2363 8.1975 37.3031 8.2 37.3206C8.20625 37.3637 8.13063 37.4775 8.05 37.5431L7.68625 37.8363L8.10937 38.0319C8.97625 38.4319 9.95813 38.7631 10.94 39.0362C10.8625 39.1125 10.7938 39.1794 10.7338 39.2369ZM15.7737 36.9081C16.6475 37.0306 17.6156 37.1081 18.6731 37.1081H18.6738C18.8933 37.1081 19.1169 37.1046 19.3444 37.0975C19.3605 37.1443 19.3821 37.189 19.4087 37.2306C19.4642 37.3152 19.5394 37.3848 19.6344 37.4394L18.0394 38.8025L17.9481 38.8006C17.2375 38.8006 16.7075 39.0619 16.4531 39.5269C15.4894 39.4037 14.5301 39.248 13.5769 39.06C14.3434 38.3785 15.0765 37.6603 15.7737 36.9081ZM8.68062 37.6562C8.74312 37.5381 8.78375 37.395 8.76187 37.2387C8.74186 37.0975 8.67416 36.9674 8.57 36.87C8.85062 36.6294 9.2375 36.2581 9.45 35.8738C9.93313 35.8669 10.3319 35.6837 10.5831 35.36C11.0062 35.5812 11.9594 36.0281 13.3675 36.4156C12.7919 37.1375 12.0163 37.9563 11.4131 38.565C10.4731 38.3163 9.52625 38.0162 8.68062 37.6562ZM17.5875 40.2869L17.4594 40.2875C16.9212 40.2875 15.1381 40.2438 12.7825 39.7531C12.865 39.6831 12.9506 39.6113 13.03 39.5425C14.9413 39.9419 16.4825 40.1131 16.5981 40.1262L16.8269 40.1506L16.8975 39.9288C17.0519 39.45 17.6212 39.3794 17.9475 39.3794C18.0369 39.3794 18.0963 39.385 18.1031 39.3856L18.2244 39.3988L20.995 37.0312L20.2544 37.0069C20.0069 36.9981 19.9025 36.9425 19.8769 36.9044L20.0337 36.4938L19.6 36.5119C19.2837 36.5256 18.9748 36.5325 18.6731 36.5325C17.8006 36.5325 16.9906 36.475 16.2425 36.3844L16.4162 36.1794C17.9262 36.3812 19.7344 36.5056 21.9175 36.49C21.3962 37.2213 20.0962 38.7756 17.5875 40.2869ZM23.8525 37.5713V38.7119C23.4971 38.7119 23.1502 38.7106 22.8119 38.7081L22.71 37.4244L21.8638 37.4931C22.4338 36.8194 22.6769 36.37 22.6987 36.3294L22.9281 35.8956L22.4438 35.9044C17.8075 35.9894 14.7837 35.4369 12.875 34.8231C12.7356 34.2594 12.655 33.6219 12.655 32.8775C12.655 27.8006 15.8994 20.1269 20.2069 17.0169C20.97 17.755 22.1275 18.0781 23.2275 17.36C23.4687 17.2025 23.6788 16.9963 23.8756 16.7769C23.9225 16.7781 23.9706 16.7887 24.0181 16.7887C24.1756 16.7887 24.3356 16.7756 24.495 16.7556C24.6969 16.8363 24.8944 16.9175 25.0775 16.9981C25.9544 17.3844 26.7031 17.1444 27.2144 16.6119C31.16 18.9994 34.3213 25.315 35.1531 30.42C33.3494 31.1412 30.4881 31.845 26.0969 31.9688C26.9631 31.4738 27.6131 30.6412 27.3794 29.5475C27.1338 28.3912 26.1675 28.0663 25.1669 28.0131C25.164 27.4706 25.1644 26.9279 25.1681 26.385C25.475 26.5206 25.7694 26.6769 26.0369 26.8437C26.5094 27.1406 26.9369 26.3713 26.4675 26.0744C26.0605 25.8186 25.6261 25.6091 25.1725 25.45C25.1787 24.8217 25.1819 24.1937 25.1819 23.5662C25.1825 22.9912 24.3281 22.9912 24.3281 23.5662C24.3277 24.1183 24.3248 24.6696 24.3194 25.22C23.8646 25.1408 23.4003 25.133 22.9431 25.1969C22.8685 24.7832 22.7784 24.3725 22.6731 23.9656C22.5319 23.4119 21.7069 23.6463 21.85 24.2019C21.955 24.6013 22.0406 24.9988 22.1113 25.4019C22.075 25.4156 22.0356 25.4225 22 25.4387C20.8425 25.8969 20.1363 27.065 20.9831 28.1544C21.3775 28.6619 21.8931 28.8669 22.4575 28.935C22.4881 29.6869 22.5075 30.4394 22.5294 31.1906C22.1512 30.945 21.8069 30.63 21.495 30.2969C21.1088 29.8894 20.5056 30.5188 20.8912 30.9256C21.4156 31.4838 21.9663 31.9056 22.5631 32.1756C22.59 32.8175 22.6281 33.4612 22.6906 34.1C22.7456 34.6669 23.6006 34.67 23.545 34.1C23.4924 33.5475 23.4534 32.9938 23.4281 32.4394C23.7531 32.4956 24.0944 32.51 24.4569 32.4756C24.4975 33.0669 24.545 33.6581 24.6125 34.2494C24.6512 34.5881 24.975 34.7212 25.2138 34.6525L25.1606 35.88C24.7844 35.9137 24.4006 35.945 24.0006 35.9712L23.5244 36.0025L23.7781 36.4125C23.8038 36.4538 24.0919 36.9094 24.735 37.5725H23.8525V37.5713ZM39.4075 33.4575C38.6219 33.8269 37.6281 34.1656 36.6156 34.4612C35.9931 33.8181 35.1969 32.96 34.6025 32.1988C35.9269 31.7975 36.6681 31.3838 37.0025 31.1606C37.2669 31.3938 37.6169 31.515 38.0313 31.5144C38.1688 31.5144 38.2906 31.5013 38.3844 31.4863C38.6844 31.875 39.1681 32.3238 39.4706 32.5919C39.3273 32.739 39.2583 32.9006 39.2638 33.0769C39.2688 33.2269 39.3288 33.3544 39.4075 33.4575ZM34.9356 35.5112C35.0635 35.6237 35.1948 35.7383 35.3294 35.855C32.7956 36.5269 30.91 36.6 30.4994 36.6069C27.8756 35.0063 26.5156 33.3125 25.9913 32.55C28.1869 32.495 30.0019 32.2962 31.5156 32.0225C31.5772 32.0981 31.6395 32.1731 31.7025 32.2475C30.4858 32.4371 29.2596 32.5588 28.0294 32.6119L27.525 32.6331L27.8025 33.0575C27.8019 33.0581 27.7456 33.1631 27.3731 33.2356L26.7675 33.3537L29.745 35.7644L29.8838 35.7269C29.8869 35.7263 30.1494 35.6556 30.4669 35.6556C30.925 35.6556 31.2381 35.795 31.3956 36.0675L31.4956 36.24L31.69 36.2056C32.7787 36.0072 33.8611 35.7757 34.9356 35.5112ZM26.125 33.6744L25.4138 33.6356C25.3806 33.2806 25.3475 32.9256 25.3225 32.5706C25.4475 32.7781 25.7038 33.1681 26.125 33.6744ZM25.245 31.3863C25.204 30.5449 25.1792 29.7029 25.1706 28.8606C25.274 28.8648 25.374 28.8737 25.4706 28.8875C26.5756 29.055 26.8644 30.2837 26.0019 30.975C25.7769 31.1531 25.5175 31.2838 25.245 31.3863ZM31.7694 35.6062C31.4894 35.2606 31.0437 35.0794 30.4675 35.0794C30.2269 35.0794 30.015 35.1119 29.8812 35.1381L28.0094 33.6213C28.1644 33.5321 28.2704 33.4183 28.3275 33.28C28.3415 33.2454 28.3524 33.2096 28.36 33.1731C29.8438 33.0919 31.0938 32.9438 32.1506 32.7625C32.6631 33.3344 33.4163 34.1231 34.415 35.04C33.1881 35.3319 32.165 35.5319 31.7694 35.6062ZM24.3156 28.8831C24.3275 29.7887 24.35 30.6969 24.3981 31.6019C24.3175 31.6144 24.2381 31.63 24.1588 31.6381C23.89 31.6688 23.635 31.6463 23.3925 31.585C23.3619 30.71 23.3419 29.8331 23.3087 28.9575C23.645 28.9419 23.9856 28.9087 24.3156 28.8831ZM23.2656 28.0925C23.2268 27.4057 23.1621 26.7207 23.0719 26.0388C23.4861 25.9812 23.9075 26.0026 24.3137 26.1019C24.3093 26.7408 24.3082 27.3798 24.3106 28.0188C24.0363 28.0338 23.7756 28.06 23.5463 28.0806C23.4529 28.0881 23.3593 28.092 23.2656 28.0925ZM22.4081 27.9831C22.355 27.9688 22.3025 27.9575 22.2481 27.9394C21.9983 27.854 21.7721 27.7112 21.5875 27.5225C21.0537 27.0244 21.7863 26.5356 22.2481 26.3038C22.3206 26.86 22.3706 27.4213 22.4081 27.9831ZM29.3063 40.1494C26.5931 38.7631 25.1375 37.2225 24.5594 36.5087C24.975 36.4775 25.3681 36.44 25.7575 36.4006L30.2063 39.2881L39.9625 36.6081C34.9313 39.6406 29.9606 40.1025 29.3063 40.1494ZM37.3637 35.2181L37.075 34.9288C38.185 34.5925 39.2587 34.2025 40.0594 33.7738L40.5462 33.5119L40.0525 33.2606C39.9419 33.2038 39.8338 33.0994 39.8319 33.06C39.8331 33.045 39.8769 32.965 40.0663 32.8562L40.4275 32.6488L40.1063 32.3812C40.0963 32.3731 39.0944 31.5412 38.7425 31.0056L38.6263 30.8306L38.4269 30.8887C38.425 30.8887 38.2538 30.9381 38.0313 30.9381C37.6875 30.9388 37.43 30.8263 37.265 30.605L37.0825 30.3631L36.8538 30.56C36.8419 30.57 36.1338 31.1506 34.2344 31.6994C34.1718 31.6093 34.1115 31.5176 34.0537 31.4244C36.3569 30.7263 37.5338 29.8812 38.0438 29.4187C38.8625 31.19 40.8119 32.6169 41.6581 33.1762C40.2986 33.9988 38.8599 34.6829 37.3637 35.2181Z" fill="#00712D"/>
<path d="M31.7376 33.4482C31.1144 33.2788 30.4113 33.3944 30.1651 33.7038C29.9207 34.0144 30.2294 34.4057 30.8519 34.5763C31.4757 34.7457 32.1782 34.6294 32.4244 34.3194C32.6688 34.0088 32.3613 33.6188 31.7376 33.4482Z" fill="#00712D"/>
</svg>
