<svg width="216" height="40" viewBox="0 0 216 40" fill="none" xmlns="http://www.w3.org/2000/svg">
<path d="M54.992 28.48C55.504 28.48 55.9307 28.6507 56.272 28.992C56.6133 29.312 56.784 29.728 56.784 30.24C56.784 30.7307 56.6133 31.1467 56.272 31.488C55.9307 31.8293 55.504 32 54.992 32H44.688C44.1547 32 43.728 31.808 43.408 31.424C43.088 31.04 42.9387 30.656 42.96 30.272C42.9813 29.952 43.024 29.6747 43.088 29.44C43.152 29.184 43.312 28.896 43.568 28.576L51.536 18.272L51.472 18.72H44.976C44.464 18.72 44.0373 18.5493 43.696 18.208C43.3547 17.8667 43.184 17.44 43.184 16.928C43.184 16.4373 43.3547 16.032 43.696 15.712C44.0373 15.3707 44.464 15.2 44.976 15.2H54.832C55.3227 15.2 55.7387 15.3813 56.08 15.744C56.4213 16.1067 56.5707 16.5653 56.528 17.12C56.5067 17.3333 56.464 17.5467 56.4 17.76C56.3573 17.9733 56.2187 18.2293 55.984 18.528L48.144 28.672V28.48H54.992ZM75.516 14.56C76.0707 14.56 76.5293 14.7413 76.892 15.104C77.2547 15.4667 77.436 15.936 77.436 16.512V30.048C77.436 30.6027 77.2547 31.072 76.892 31.456C76.5293 31.8187 76.0707 32 75.516 32C74.9613 32 74.5027 31.8187 74.14 31.456C73.7773 31.072 73.596 30.6027 73.596 30.048V28.48L74.3 28.768C74.3 29.0453 74.1507 29.3867 73.852 29.792C73.5533 30.176 73.148 30.56 72.636 30.944C72.124 31.328 71.516 31.6587 70.812 31.936C70.1293 32.192 69.3827 32.32 68.572 32.32C67.1 32.32 65.7667 31.9467 64.572 31.2C63.3773 30.432 62.428 29.3867 61.724 28.064C61.0413 26.72 60.7 25.184 60.7 23.456C60.7 21.7067 61.0413 20.1707 61.724 18.848C62.428 17.504 63.3667 16.4587 64.54 15.712C65.7133 14.944 67.0147 14.56 68.444 14.56C69.3613 14.56 70.204 14.6987 70.972 14.976C71.74 15.2533 72.4013 15.6053 72.956 16.032C73.532 16.4587 73.9693 16.896 74.268 17.344C74.588 17.7707 74.748 18.1333 74.748 18.432L73.596 18.848V16.512C73.596 15.9573 73.7773 15.4987 74.14 15.136C74.5027 14.752 74.9613 14.56 75.516 14.56ZM69.052 28.8C69.9907 28.8 70.812 28.5653 71.516 28.096C72.22 27.6267 72.764 26.9867 73.148 26.176C73.5533 25.3653 73.756 24.4587 73.756 23.456C73.756 22.432 73.5533 21.5147 73.148 20.704C72.764 19.8933 72.22 19.2533 71.516 18.784C70.812 18.3147 69.9907 18.08 69.052 18.08C68.1347 18.08 67.324 18.3147 66.62 18.784C65.916 19.2533 65.3613 19.8933 64.956 20.704C64.572 21.5147 64.38 22.432 64.38 23.456C64.38 24.4587 64.572 25.3653 64.956 26.176C65.3613 26.9867 65.916 27.6267 66.62 28.096C67.324 28.5653 68.1347 28.8 69.052 28.8ZM103.038 14.88C103.529 14.88 103.956 15.072 104.318 15.456C104.681 15.8187 104.862 16.288 104.862 16.864C104.862 17.0133 104.852 17.152 104.83 17.28C104.809 17.3867 104.777 17.4933 104.734 17.6L99.8383 30.784C99.6889 31.2107 99.4223 31.5413 99.0383 31.776C98.6543 31.9893 98.2489 32.064 97.8223 32C97.0969 31.9573 96.5529 31.552 96.1903 30.784L93.0223 21.664L93.8543 21.696L90.8783 30.784C90.5156 31.552 89.9716 31.9573 89.2463 32C88.8409 32.064 88.4356 31.9893 88.0303 31.776C87.6463 31.5413 87.3796 31.2107 87.2303 30.784L82.3343 17.6C82.2489 17.3653 82.2063 17.12 82.2063 16.864C82.2063 16.352 82.3769 15.8933 82.7183 15.488C83.0596 15.0827 83.5289 14.88 84.1263 14.88C84.5316 14.88 84.8943 14.976 85.2143 15.168C85.5343 15.36 85.7583 15.6693 85.8863 16.096L89.7583 26.592L88.9583 26.528L91.8703 18.624C92.2116 17.8347 92.7983 17.44 93.6303 17.44C94.0996 17.44 94.4516 17.5467 94.6863 17.76C94.9423 17.952 95.1449 18.24 95.2943 18.624L98.2063 26.528L97.2463 26.656L101.182 16.096C101.438 15.2853 102.057 14.88 103.038 14.88ZM117.873 32.32C116.059 32.32 114.481 31.9467 113.137 31.2C111.814 30.432 110.79 29.3973 110.065 28.096C109.361 26.7947 109.009 25.3227 109.009 23.68C109.009 21.76 109.393 20.128 110.161 18.784C110.95 17.4187 111.974 16.3733 113.233 15.648C114.491 14.9227 115.825 14.56 117.233 14.56C118.321 14.56 119.345 14.784 120.305 15.232C121.286 15.68 122.15 16.2987 122.897 17.088C123.643 17.856 124.23 18.752 124.657 19.776C125.105 20.8 125.329 21.888 125.329 23.04C125.307 23.552 125.105 23.968 124.721 24.288C124.337 24.608 123.889 24.768 123.377 24.768H111.153L110.193 21.568H121.937L121.233 22.208V21.344C121.19 20.7253 120.966 20.1707 120.561 19.68C120.177 19.1893 119.686 18.8053 119.089 18.528C118.513 18.2293 117.894 18.08 117.233 18.08C116.593 18.08 115.995 18.1653 115.441 18.336C114.886 18.5067 114.406 18.7947 114.001 19.2C113.595 19.6053 113.275 20.1493 113.041 20.832C112.806 21.5147 112.689 22.3787 112.689 23.424C112.689 24.576 112.923 25.5573 113.393 26.368C113.883 27.1573 114.502 27.7653 115.249 28.192C116.017 28.5973 116.827 28.8 117.681 28.8C118.47 28.8 119.099 28.736 119.569 28.608C120.038 28.48 120.411 28.3307 120.689 28.16C120.987 27.968 121.254 27.808 121.489 27.68C121.873 27.488 122.235 27.392 122.577 27.392C123.046 27.392 123.43 27.552 123.729 27.872C124.049 28.192 124.209 28.5653 124.209 28.992C124.209 29.568 123.91 30.0907 123.313 30.56C122.758 31.0293 121.979 31.4453 120.977 31.808C119.974 32.1493 118.939 32.32 117.873 32.32ZM139.596 14.56C141.302 14.56 142.561 14.976 143.372 15.808C144.182 16.6187 144.716 17.6747 144.972 18.976L144.428 18.688L144.684 18.176C144.94 17.6853 145.334 17.1627 145.868 16.608C146.401 16.032 147.041 15.552 147.788 15.168C148.556 14.7627 149.409 14.56 150.348 14.56C151.884 14.56 153.046 14.8907 153.836 15.552C154.646 16.2133 155.201 17.0987 155.5 18.208C155.798 19.296 155.948 20.512 155.948 21.856V30.048C155.948 30.6027 155.766 31.072 155.404 31.456C155.041 31.8187 154.582 32 154.028 32C153.473 32 153.014 31.8187 152.652 31.456C152.289 31.072 152.108 30.6027 152.108 30.048V21.856C152.108 21.152 152.022 20.5227 151.852 19.968C151.681 19.392 151.372 18.9333 150.924 18.592C150.476 18.2507 149.836 18.08 149.004 18.08C148.193 18.08 147.5 18.2507 146.924 18.592C146.348 18.9333 145.91 19.392 145.612 19.968C145.334 20.5227 145.196 21.152 145.196 21.856V30.048C145.196 30.6027 145.014 31.072 144.652 31.456C144.289 31.8187 143.83 32 143.276 32C142.721 32 142.262 31.8187 141.9 31.456C141.537 31.072 141.356 30.6027 141.356 30.048V21.856C141.356 21.152 141.27 20.5227 141.1 19.968C140.929 19.392 140.62 18.9333 140.172 18.592C139.724 18.2507 139.084 18.08 138.252 18.08C137.441 18.08 136.748 18.2507 136.172 18.592C135.596 18.9333 135.158 19.392 134.86 19.968C134.582 20.5227 134.444 21.152 134.444 21.856V30.048C134.444 30.6027 134.262 31.072 133.9 31.456C133.537 31.8187 133.078 32 132.524 32C131.969 32 131.51 31.8187 131.148 31.456C130.785 31.072 130.604 30.6027 130.604 30.048V16.832C130.604 16.2773 130.785 15.8187 131.148 15.456C131.51 15.072 131.969 14.88 132.524 14.88C133.078 14.88 133.537 15.072 133.9 15.456C134.262 15.8187 134.444 16.2773 134.444 16.832V18.208L133.964 18.112C134.156 17.7493 134.422 17.3653 134.764 16.96C135.105 16.5333 135.521 16.1387 136.012 15.776C136.502 15.4133 137.046 15.1253 137.644 14.912C138.241 14.6773 138.892 14.56 139.596 14.56ZM176.04 14.56C176.594 14.56 177.053 14.7413 177.416 15.104C177.778 15.4667 177.96 15.936 177.96 16.512V30.048C177.96 30.6027 177.778 31.072 177.416 31.456C177.053 31.8187 176.594 32 176.04 32C175.485 32 175.026 31.8187 174.664 31.456C174.301 31.072 174.12 30.6027 174.12 30.048V28.48L174.824 28.768C174.824 29.0453 174.674 29.3867 174.376 29.792C174.077 30.176 173.672 30.56 173.16 30.944C172.648 31.328 172.04 31.6587 171.336 31.936C170.653 32.192 169.906 32.32 169.096 32.32C167.624 32.32 166.29 31.9467 165.096 31.2C163.901 30.432 162.952 29.3867 162.248 28.064C161.565 26.72 161.224 25.184 161.224 23.456C161.224 21.7067 161.565 20.1707 162.248 18.848C162.952 17.504 163.89 16.4587 165.064 15.712C166.237 14.944 167.538 14.56 168.968 14.56C169.885 14.56 170.728 14.6987 171.496 14.976C172.264 15.2533 172.925 15.6053 173.48 16.032C174.056 16.4587 174.493 16.896 174.792 17.344C175.112 17.7707 175.272 18.1333 175.272 18.432L174.12 18.848V16.512C174.12 15.9573 174.301 15.4987 174.664 15.136C175.026 14.752 175.485 14.56 176.04 14.56ZM169.576 28.8C170.514 28.8 171.336 28.5653 172.04 28.096C172.744 27.6267 173.288 26.9867 173.672 26.176C174.077 25.3653 174.28 24.4587 174.28 23.456C174.28 22.432 174.077 21.5147 173.672 20.704C173.288 19.8933 172.744 19.2533 172.04 18.784C171.336 18.3147 170.514 18.08 169.576 18.08C168.658 18.08 167.848 18.3147 167.144 18.784C166.44 19.2533 165.885 19.8933 165.48 20.704C165.096 21.5147 164.904 22.432 164.904 23.456C164.904 24.4587 165.096 25.3653 165.48 26.176C165.885 26.9867 166.44 27.6267 167.144 28.096C167.848 28.5653 168.658 28.8 169.576 28.8ZM184.23 15.2H191.814C192.326 15.2 192.752 15.3707 193.094 15.712C193.435 16.0533 193.606 16.48 193.606 16.992C193.606 17.4827 193.435 17.8987 193.094 18.24C192.752 18.56 192.326 18.72 191.814 18.72H184.23C183.718 18.72 183.291 18.5493 182.95 18.208C182.608 17.8667 182.438 17.44 182.438 16.928C182.438 16.4373 182.608 16.032 182.95 15.712C183.291 15.3707 183.718 15.2 184.23 15.2ZM187.654 11.2C188.208 11.2 188.656 11.392 188.998 11.776C189.36 12.1387 189.542 12.5973 189.542 13.152V27.392C189.542 27.6907 189.595 27.936 189.702 28.128C189.83 28.32 189.99 28.4587 190.182 28.544C190.395 28.6293 190.619 28.672 190.854 28.672C191.11 28.672 191.344 28.6293 191.558 28.544C191.771 28.4373 192.016 28.384 192.294 28.384C192.592 28.384 192.859 28.5227 193.094 28.8C193.35 29.0773 193.478 29.4613 193.478 29.952C193.478 30.5493 193.147 31.04 192.486 31.424C191.846 31.808 191.152 32 190.406 32C189.958 32 189.456 31.968 188.902 31.904C188.368 31.8187 187.856 31.6373 187.366 31.36C186.896 31.0613 186.502 30.6133 186.182 30.016C185.862 29.4187 185.702 28.5973 185.702 27.552V13.152C185.702 12.5973 185.883 12.1387 186.246 11.776C186.63 11.392 187.099 11.2 187.654 11.2ZM206.959 32.32C205.146 32.32 203.567 31.9467 202.223 31.2C200.9 30.432 199.876 29.3973 199.151 28.096C198.447 26.7947 198.095 25.3227 198.095 23.68C198.095 21.76 198.479 20.128 199.247 18.784C200.036 17.4187 201.06 16.3733 202.319 15.648C203.578 14.9227 204.911 14.56 206.319 14.56C207.407 14.56 208.431 14.784 209.391 15.232C210.372 15.68 211.236 16.2987 211.983 17.088C212.73 17.856 213.316 18.752 213.743 19.776C214.191 20.8 214.415 21.888 214.415 23.04C214.394 23.552 214.191 23.968 213.807 24.288C213.423 24.608 212.975 24.768 212.463 24.768H200.239L199.279 21.568H211.023L210.319 22.208V21.344C210.276 20.7253 210.052 20.1707 209.647 19.68C209.263 19.1893 208.772 18.8053 208.175 18.528C207.599 18.2293 206.98 18.08 206.319 18.08C205.679 18.08 205.082 18.1653 204.527 18.336C203.972 18.5067 203.492 18.7947 203.087 19.2C202.682 19.6053 202.362 20.1493 202.127 20.832C201.892 21.5147 201.775 22.3787 201.775 23.424C201.775 24.576 202.01 25.5573 202.479 26.368C202.97 27.1573 203.588 27.7653 204.335 28.192C205.103 28.5973 205.914 28.8 206.767 28.8C207.556 28.8 208.186 28.736 208.655 28.608C209.124 28.48 209.498 28.3307 209.775 28.16C210.074 27.968 210.34 27.808 210.575 27.68C210.959 27.488 211.322 27.392 211.663 27.392C212.132 27.392 212.516 27.552 212.815 27.872C213.135 28.192 213.295 28.5653 213.295 28.992C213.295 29.568 212.996 30.0907 212.399 30.56C211.844 31.0293 211.066 31.4453 210.063 31.808C209.06 32.1493 208.026 32.32 206.959 32.32Z" fill="#00712D"/>
<path d="M15 26C11.6863 26 9 23.3137 9 20C9 16.6863 11.6863 14 15 14C18.3137 14 21 16.6863 21 20C21 23.3137 18.3137 26 15 26Z" fill="#00712D"/>
<path d="M3.37629 22.0496C1.63754 22.3562 0.44572 24.0358 1.11317 25.6704C2.04501 27.9524 3.53164 29.9856 5.45895 31.5744C8.21486 33.8461 11.6909 35.06 15.2619 34.9977C18.8329 34.9354 22.2645 33.6009 24.9395 31.2343C26.8101 29.5793 28.2249 27.4954 29.0766 25.1823C29.6866 23.5254 28.4368 21.8884 26.6884 21.6427C24.9401 21.397 23.3703 22.6696 22.5067 24.2096C22.0386 25.0443 21.4309 25.8016 20.7029 26.4457C19.1681 27.8036 17.1992 28.5692 15.1504 28.605C13.1015 28.6407 11.1071 27.9443 9.52586 26.6408C8.77576 26.0225 8.14206 25.2869 7.64508 24.469C6.72829 22.9601 5.11504 21.743 3.37629 22.0496Z" fill="#FF9100"/>
<path d="M29.884 21.8745C29.9606 21.2604 30 20.6348 30 20C30 11.7157 23.2843 5 15 5C6.71573 5 0 11.7157 0 20C0 20.8147 0.06495 21.6142 0.18996 22.3937C0.87894 21.4505 1.95426 20.7772 3.11576 20.5724C4.37245 20.3508 5.51458 20.6556 6.48027 21.2253C6.42322 20.8251 6.3937 20.416 6.3937 20C6.3937 15.2469 10.2469 11.3937 15 11.3937C19.7531 11.3937 23.6063 15.2469 23.6063 20C23.6063 20.3134 23.5895 20.6229 23.5569 20.9276C24.5022 20.3243 25.6332 19.9796 26.8971 20.1573C28.0647 20.3214 29.1625 20.9564 29.884 21.8745Z" fill="#00712D"/>
</svg>
