<svg width="443" height="241" viewBox="0 0 443 241" fill="none" xmlns="http://www.w3.org/2000/svg">
<path d="M316.945 211.109H0V211.268H316.945V211.109Z" fill="#EBEBEB"/>
<path d="M285.187 221.308H264.192V221.467H285.187V221.308Z" fill="#EBEBEB"/>
<path d="M209.957 223.032H204.448V223.191H209.957V223.032Z" fill="#EBEBEB"/>
<path d="M263.559 215.426H251.394V215.584H263.559V215.426Z" fill="#EBEBEB"/>
<path d="M60.6316 216.491H33.2539V216.649H60.6316V216.491Z" fill="#EBEBEB"/>
<path d="M70.2921 216.491H66.2795V216.649H70.2921V216.491Z" fill="#EBEBEB"/>
<path d="M142.72 219.166H83.3376V219.324H142.72V219.166Z" fill="#EBEBEB"/>
<path d="M150.232 182.837H27.8341C26.8753 182.836 25.9563 182.453 25.2788 181.775C24.6014 181.096 24.2209 180.177 24.2209 179.218V7.16106C24.2293 6.2077 24.6134 5.29614 25.29 4.62437C25.9665 3.9526 26.8807 3.57488 27.8341 3.57324H150.232C151.192 3.57324 152.112 3.95458 152.791 4.63337C153.47 5.31216 153.851 6.2328 153.851 7.19275V179.218C153.851 180.178 153.47 181.098 152.791 181.777C152.112 182.456 151.192 182.837 150.232 182.837ZM27.8341 3.70002C26.9173 3.7017 26.0386 4.06708 25.3909 4.71597C24.7432 5.36486 24.3794 6.24423 24.3794 7.16106V179.218C24.3794 180.135 24.7432 181.014 25.3909 181.663C26.0386 182.312 26.9173 182.677 27.8341 182.679H150.232C151.149 182.677 152.029 182.312 152.677 181.663C153.326 181.014 153.691 180.135 153.693 179.218V7.16106C153.691 6.24365 153.326 5.36429 152.677 4.71559C152.029 4.06688 151.149 3.7017 150.232 3.70002H27.8341Z" fill="#EBEBEB"/>
<path d="M287.349 182.837H164.944C163.985 182.836 163.065 182.454 162.387 181.775C161.709 181.097 161.327 180.177 161.325 179.218V7.16106C161.335 6.20713 161.721 5.29557 162.398 4.62397C163.076 3.95238 163.99 3.57486 164.944 3.57324H287.349C288.301 3.57654 289.213 3.955 289.889 4.62659C290.564 5.29819 290.947 6.2088 290.955 7.16106V179.218C290.955 180.175 290.576 181.094 289.9 181.773C289.224 182.451 288.306 182.834 287.349 182.837ZM164.944 3.70002C164.027 3.7017 163.148 4.06688 162.499 4.71559C161.85 5.36429 161.485 6.24365 161.483 7.16106V179.218C161.485 180.135 161.85 181.014 162.499 181.663C163.148 182.312 164.027 182.677 164.944 182.679H287.349C288.266 182.677 289.145 182.312 289.794 181.663C290.443 181.014 290.808 180.135 290.81 179.218V7.16106C290.808 6.24365 290.443 5.36429 289.794 4.71559C289.145 4.06688 288.266 3.7017 287.349 3.70002H164.944Z" fill="#EBEBEB"/>
<path d="M62.3113 94.0741C62.3542 93.8078 62.3776 93.5387 62.3811 93.269C62.3829 92.5232 62.2221 91.7859 61.9097 91.1086C61.5973 90.4313 61.141 89.8303 60.5725 89.3475C60.004 88.8647 59.337 88.5117 58.6181 88.3132C57.8991 88.1146 57.1455 88.0753 56.4098 88.1979C55.8207 87.2153 54.9566 86.4268 53.9242 85.9299C52.8919 85.4329 51.7366 85.2493 50.6011 85.4017C49.4656 85.5541 48.3996 86.0358 47.5348 86.7874C46.67 87.5389 46.0444 88.5273 45.7351 89.6305C45.3702 89.5152 44.9895 89.4574 44.6068 89.4594C43.5981 89.4594 42.6307 89.8601 41.9174 90.5733C41.2042 91.2866 40.8035 92.254 40.8035 93.2627C40.8037 93.5335 40.8335 93.8034 40.8922 94.0677L62.3113 94.0741Z" fill="#F0F0F0"/>
<path d="M88.4782 110.422H72.1746V201.087H88.4782V110.422Z" fill="#F5F5F5"/>
<path d="M114.525 82.417H98.2212V201.087H114.525V82.417Z" fill="#FAFAFA"/>
<path d="M244.77 95.3037H228.466V201.087H244.77V95.3037Z" fill="#F0F0F0"/>
<path d="M140.571 112.583H124.268V201.094H140.571V112.583Z" fill="#F0F0F0"/>
<path d="M218.717 96.895H202.414V201.087H218.717V96.895Z" fill="#FAFAFA"/>
<path d="M192.671 62.9053H176.367V201.087H192.671V62.9053Z" fill="#F5F5F5"/>
<path d="M62.4316 131.346H46.1279V200.421H62.4316V131.346Z" fill="#FAFAFA"/>
<path d="M270.817 48.478H254.513V200.421H270.817V48.478Z" fill="#F5F5F5"/>
<path d="M166.624 87.9629H150.321V201.087H166.624V87.9629Z" fill="#FAFAFA"/>
<path d="M275.742 36.257C275.808 35.8887 275.842 35.5154 275.843 35.1413C275.843 33.2449 275.09 31.4262 273.749 30.0853C272.408 28.7444 270.589 27.991 268.693 27.991C268.304 27.9924 267.916 28.0264 267.533 28.0925C266.715 26.7248 265.513 25.627 264.077 24.935C262.642 24.2429 261.034 23.987 259.455 24.1988C257.875 24.4106 256.392 25.0808 255.189 26.1266C253.986 27.1724 253.117 28.5479 252.687 30.0829C252.177 29.9219 251.644 29.8406 251.109 29.842C249.703 29.842 248.356 30.4003 247.362 31.3941C246.368 32.3879 245.81 33.7359 245.81 35.1413C245.811 35.5164 245.851 35.8902 245.93 36.257H275.742Z" fill="#F5F5F5"/>
<path d="M165.515 33.5055C165.591 33.0359 165.631 32.5613 165.635 32.0856C165.635 30.8958 165.401 29.7177 164.945 28.6187C164.49 27.5196 163.822 26.5211 162.98 25.6804C162.138 24.8397 161.138 24.1732 160.039 23.7191C158.939 23.2649 157.761 23.032 156.571 23.0337C156.078 23.0373 155.586 23.0797 155.1 23.1604C154.063 21.4289 152.541 20.0395 150.722 19.1643C148.903 18.289 146.868 17.9664 144.867 18.2362C142.867 18.5061 140.99 19.3566 139.468 20.6825C137.946 22.0084 136.847 23.7515 136.305 25.696C135.302 25.3898 134.241 25.3223 133.207 25.4989C132.173 25.6755 131.194 26.0914 130.349 26.7133C129.504 27.3353 128.817 28.1461 128.341 29.081C127.865 30.016 127.614 31.0492 127.608 32.0983C127.609 32.576 127.662 33.0521 127.767 33.5182L165.515 33.5055Z" fill="#F5F5F5"/>
<path d="M117.485 50.1137C117.528 49.8474 117.551 49.5783 117.555 49.3087C117.567 48.5597 117.413 47.8174 117.104 47.1352C116.794 46.4529 116.338 45.8476 115.767 45.3627C115.196 44.8779 114.525 44.5255 113.802 44.3309C113.078 44.1364 112.321 44.1045 111.584 44.2375C110.995 43.2548 110.131 42.4661 109.099 41.9687C108.068 41.4714 106.913 41.2872 105.777 41.4389C104.642 41.5906 103.576 42.0715 102.71 42.8224C101.845 43.5732 101.219 44.561 100.909 45.6638C100.543 45.5515 100.163 45.4939 99.7806 45.4926C98.7719 45.4926 97.8045 45.8934 97.0913 46.6066C96.378 47.3199 95.9773 48.2873 95.9773 49.296C95.9775 49.5668 96.0073 49.8367 96.066 50.101L117.485 50.1137Z" fill="#F5F5F5"/>
<path d="M157.243 239.735C225.121 239.735 280.147 236.522 280.147 232.559C280.147 228.596 225.121 225.384 157.243 225.384C89.364 225.384 34.3376 228.596 34.3376 232.559C34.3376 236.522 89.364 239.735 157.243 239.735Z" fill="#F5F5F5"/>
<path d="M67.0973 123.41L66.2922 122.301L124.312 80.1475L163.176 109.078L194.446 86.8731L227.757 107.525L271.178 52.96L272.211 53.8537L228.036 109.3L194.503 88.5148L163.157 110.777L162.758 110.479L124.306 81.8463L67.0973 123.41Z" fill="#00712D"/>
<g opacity="0.7">
<path d="M67.0973 123.41L66.2922 122.301L124.312 80.1475L163.176 109.078L194.446 86.8731L227.757 107.525L271.178 52.96L272.211 53.8537L228.036 109.3L194.503 88.5148L163.157 110.777L162.758 110.479L124.306 81.8463L67.0973 123.41Z" fill="white"/>
</g>
<path d="M66.6916 126.269C68.5785 126.269 70.1082 124.74 70.1082 122.853C70.1082 120.966 68.5785 119.436 66.6916 119.436C64.8046 119.436 63.2749 120.966 63.2749 122.853C63.2749 124.74 64.8046 126.269 66.6916 126.269Z" fill="#00712D"/>
<path d="M125.922 81.542C125.848 82.0275 125.631 82.4801 125.3 82.8426C124.968 83.205 124.537 83.4611 124.06 83.5784C123.583 83.6958 123.082 83.6691 122.62 83.5018C122.158 83.3345 121.756 83.0341 121.465 82.6385C121.174 82.2429 121.006 81.7698 120.984 81.2791C120.961 80.7884 121.085 80.3021 121.339 79.8815C121.592 79.461 121.965 79.1251 122.41 78.9163C122.854 78.7075 123.351 78.6352 123.837 78.7085C124.16 78.7572 124.47 78.8692 124.75 79.0381C125.03 79.207 125.274 79.4294 125.467 79.6926C125.661 79.9558 125.801 80.2546 125.879 80.572C125.957 80.8893 125.972 81.2189 125.922 81.542Z" fill="#00712D"/>
<path d="M194.484 90.2833C195.628 90.2833 196.557 89.3553 196.557 88.2105C196.557 87.0657 195.628 86.1377 194.484 86.1377C193.339 86.1377 192.411 87.0657 192.411 88.2105C192.411 89.3553 193.339 90.2833 194.484 90.2833Z" fill="#00712D"/>
<path d="M166.364 110.415C166.268 111.047 165.987 111.637 165.556 112.109C165.125 112.581 164.564 112.915 163.943 113.068C163.322 113.221 162.67 113.187 162.069 112.969C161.468 112.752 160.945 112.361 160.566 111.847C160.186 111.332 159.968 110.716 159.939 110.078C159.91 109.439 160.07 108.806 160.4 108.259C160.731 107.712 161.216 107.274 161.794 107.003C162.373 106.731 163.019 106.637 163.651 106.733C164.499 106.862 165.261 107.323 165.769 108.013C166.278 108.704 166.492 109.568 166.364 110.415Z" fill="#00712D"/>
<path d="M230.305 108.799C230.232 109.275 230.019 109.718 229.694 110.073C229.369 110.428 228.947 110.678 228.479 110.793C228.012 110.908 227.521 110.882 227.069 110.717C226.616 110.553 226.223 110.259 225.938 109.871C225.653 109.483 225.489 109.02 225.467 108.539C225.446 108.058 225.567 107.582 225.816 107.17C226.065 106.758 226.43 106.43 226.866 106.225C227.301 106.021 227.788 105.95 228.264 106.023C228.58 106.071 228.884 106.18 229.158 106.346C229.432 106.512 229.671 106.73 229.86 106.987C230.05 107.245 230.187 107.538 230.263 107.849C230.339 108.16 230.353 108.483 230.305 108.799Z" fill="#00712D"/>
<path d="M274.722 48.7891L262.069 57.093L269.403 62.9565L274.722 48.7891Z" fill="#00712D"/>
<path d="M237.202 232.718V225.682L236.568 225.048C236.365 224.846 236.156 224.643 235.896 224.376H189.857L189.254 225.01L188.513 225.739V232.776L189.254 233.498L189.857 234.132H235.871L236.504 233.498L237.202 232.814V232.718Z" fill="#00712D"/>
<path d="M241.259 223.039V216.003L240.593 215.369L239.927 214.659H193.913L193.28 215.261L192.544 215.99V223.02L193.28 223.749L193.913 224.351H239.927L240.561 223.717L241.259 223.026V223.039Z" fill="#00712D"/>
<path d="M237.202 213.391V206.329L236.568 205.695L235.896 205.023H189.857L189.254 205.626L188.513 206.355V213.391L189.254 214.12L189.857 214.722H235.871L236.504 214.088L237.202 213.397V213.391Z" fill="#00712D"/>
<path d="M233.411 203.693V196.644L232.739 196.01L232.067 195.338H186.066L185.464 195.94L184.728 196.669V203.699L185.464 204.422L186.066 205.055H232.08L232.714 204.422C232.923 204.212 233.132 204.003 233.411 203.737V203.693Z" fill="#00712D"/>
<path d="M242.888 194.013V186.977L242.222 186.343L241.544 185.671H195.542L194.908 186.274L194.173 187.003V194.032L194.908 194.761L195.542 195.364H241.55L242.184 194.73L242.881 194.039L242.888 194.013Z" fill="#00712D"/>
<path d="M235.306 184.34V177.304L234.672 176.67L233.975 175.992H187.961L187.359 176.626L186.624 177.355V184.384L187.359 185.113L187.961 185.716H233.975L234.609 185.082L235.3 184.391L235.306 184.34Z" fill="#00712D"/>
<path d="M239.61 174.667V167.618L238.938 166.984L238.266 166.319H192.29L191.656 166.915L190.921 167.644V174.661L191.656 175.383L192.29 176.017H238.304L238.938 175.383C239.147 175.174 239.357 174.965 239.636 174.699L239.61 174.667Z" fill="#00712D"/>
<path d="M172.76 232.718V225.682L172.095 225.048L171.423 224.376H125.415L124.813 225.01L124.078 225.739V232.776L124.813 233.498L125.415 234.132H171.429L172.063 233.498L172.76 232.814V232.718Z" fill="#00712D"/>
<path d="M176.817 223.039V216.003L176.183 215.369L175.486 214.659H129.478L128.844 215.261L128.109 215.99V223.02L128.844 223.749L129.478 224.351H175.486L176.12 223.717L176.817 223.026V223.039Z" fill="#00712D"/>
<path d="M172.76 213.391V206.329L172.095 205.695L171.423 205.023H125.415L124.813 205.626C124.585 205.848 124.363 206.063 124.078 206.355V213.391L124.813 214.12L125.415 214.722H171.429L172.063 214.088L172.76 213.397V213.391Z" fill="#00712D"/>
<path d="M168.97 203.693V196.644L168.298 196.01L167.626 195.338H121.625L120.991 195.94L120.255 196.669V203.699L120.991 204.422L121.625 205.055H167.639L168.273 204.422L168.97 203.737V203.693Z" fill="#00712D"/>
<path d="M178.446 194.013V186.977L177.812 186.343L177.134 185.671H131.101L130.467 186.274L129.732 187.003V194.032L130.467 194.761L131.101 195.364H177.109L177.743 194.73L178.44 194.039L178.446 194.013Z" fill="#00712D"/>
<path d="M190.167 184.34V177.304L189.501 176.67C189.299 176.467 189.089 176.264 188.83 175.998H142.796L142.163 176.632L141.427 177.361V184.391C141.719 184.676 141.941 184.892 142.163 185.12L142.796 185.722H188.81L189.444 185.088L190.142 184.397L190.167 184.34Z" fill="#00712D"/>
<path d="M194.471 174.667V167.631L193.805 166.997L193.134 166.331H147.126L146.524 166.927L145.795 167.618V174.66L146.53 175.383L147.164 176.017H193.178L193.812 175.383L194.509 174.698L194.471 174.667Z" fill="#00712D"/>
<g opacity="0.25">
<path d="M172.76 232.718V225.682L172.095 225.048L171.423 224.376H125.415L124.813 225.01L124.078 225.739V232.776L124.813 233.498L125.415 234.132H171.429L172.063 233.498L172.76 232.814V232.718Z" fill="black"/>
</g>
<g opacity="0.25">
<path d="M176.817 223.039V216.003L176.183 215.369L175.486 214.659H129.478L128.844 215.261L128.109 215.99V223.02L128.844 223.749L129.478 224.351H175.486L176.12 223.717L176.817 223.026V223.039Z" fill="black"/>
</g>
<g opacity="0.1">
<path d="M172.76 213.391V206.329L172.095 205.695L171.423 205.023H125.415L124.813 205.626C124.585 205.848 124.363 206.063 124.078 206.355V213.391L124.813 214.12L125.415 214.722H171.429L172.063 214.088L172.76 213.397V213.391Z" fill="black"/>
</g>
<g opacity="0.25">
<path d="M168.97 203.693V196.644L168.298 196.01L167.626 195.338H121.625L120.991 195.94L120.255 196.669V203.699L120.991 204.422L121.625 205.055H167.639L168.273 204.422L168.97 203.737V203.693Z" fill="black"/>
</g>
<g opacity="0.1">
<path d="M178.446 194.013V186.977L177.812 186.343L177.134 185.671H131.101L130.467 186.274L129.732 187.003V194.032L130.467 194.761L131.101 195.364H177.109L177.743 194.73L178.44 194.039L178.446 194.013Z" fill="black"/>
</g>
<g opacity="0.25">
<path d="M190.167 184.34V177.304L189.501 176.67C189.299 176.467 189.089 176.264 188.83 175.998H142.796L142.163 176.632L141.427 177.361V184.391C141.719 184.676 141.941 184.892 142.163 185.12L142.796 185.722H188.81L189.444 185.088L190.142 184.397L190.167 184.34Z" fill="black"/>
</g>
<g opacity="0.1">
<path d="M194.471 174.667V167.631L193.805 166.997L193.134 166.331H147.126L146.524 166.927L145.795 167.618V174.66L146.53 175.383L147.164 176.017H193.178L193.812 175.383L194.509 174.698L194.471 174.667Z" fill="black"/>
</g>
<g opacity="0.2">
<path d="M237.202 232.718V225.682L236.568 225.048C236.365 224.846 236.156 224.643 235.896 224.376H189.857L189.254 225.01L188.513 225.739V232.776L189.254 233.498L189.857 234.132H235.871L236.504 233.498L237.202 232.814V232.718Z" fill="black"/>
</g>
<g opacity="0.2">
<path d="M241.259 223.039V216.003L240.593 215.369L239.927 214.659H193.913L193.28 215.261L192.544 215.99V223.02L193.28 223.749L193.913 224.351H239.927L240.561 223.717L241.259 223.026V223.039Z" fill="black"/>
</g>
<g opacity="0.3">
<path d="M237.202 213.391V206.329L236.568 205.695L235.896 205.023H189.857L189.254 205.626L188.513 206.355V213.391L189.254 214.12L189.857 214.722H235.871L236.504 214.088L237.202 213.397V213.391Z" fill="black"/>
</g>
<g opacity="0.2">
<path d="M233.411 203.693V196.644L232.739 196.01L232.067 195.338H186.066L185.464 195.94L184.728 196.669V203.699L185.464 204.422L186.066 205.055H232.08L232.714 204.422C232.923 204.212 233.132 204.003 233.411 203.737V203.693Z" fill="black"/>
</g>
<g opacity="0.3">
<path d="M242.888 194.013V186.977L242.222 186.343L241.544 185.671H195.542L194.908 186.274L194.173 187.003V194.032L194.908 194.761L195.542 195.364H241.55L242.184 194.73L242.881 194.039L242.888 194.013Z" fill="black"/>
</g>
<g opacity="0.2">
<path d="M235.306 184.34V177.304L234.672 176.67L233.975 175.992H187.961L187.359 176.626L186.624 177.355V184.384L187.359 185.113L187.961 185.716H233.975L234.609 185.082L235.3 184.391L235.306 184.34Z" fill="black"/>
</g>
<g opacity="0.3">
<path d="M239.61 174.667V167.618L238.938 166.984L238.266 166.319H192.29L191.656 166.915L190.921 167.644V174.661L191.656 175.383L192.29 176.017H238.304L238.938 175.383C239.147 175.174 239.357 174.965 239.636 174.699L239.61 174.667Z" fill="black"/>
</g>
<path d="M203.2 148.278V155.308L201.862 156.645H155.848L154.51 155.308V148.278L155.848 146.94H201.862C202.388 147.467 202.686 147.752 203.2 148.278Z" fill="#00712D"/>
<g opacity="0.3">
<path d="M203.2 148.278V155.308L201.862 156.645H155.848L154.51 155.308V148.278L155.848 146.94H201.862C202.388 147.467 202.686 147.752 203.2 148.278Z" fill="white"/>
</g>
<g opacity="0.3">
<path d="M203.2 150.807H154.51V154.325H203.2V150.807Z" fill="white"/>
</g>
<g opacity="0.1">
<path d="M155.854 156.646H201.856L203.206 155.314H154.51L155.854 156.646Z" fill="black"/>
</g>
<g opacity="0.3">
<path d="M201.856 146.94H155.854L154.51 148.272H203.206L201.856 146.94Z" fill="white"/>
</g>
<g style="mix-blend-mode:screen" opacity="0.1">
<path d="M185.616 146.94H176.279V156.645H185.616V146.94Z" fill="white"/>
</g>
<g style="mix-blend-mode:screen" opacity="0.1">
<path d="M194.395 146.94H189.729V156.645H194.395V146.94Z" fill="white"/>
</g>
<path d="M211.592 157.951V164.981L210.255 166.318H164.241L162.91 164.981V157.951C163.429 157.425 163.721 157.139 164.247 156.613H210.261C210.781 157.139 211.085 157.425 211.592 157.951Z" fill="#00712D"/>
<g opacity="0.3">
<path d="M211.592 157.951V164.981L210.255 166.318H164.241L162.91 164.981V157.951C163.429 157.425 163.721 157.139 164.247 156.613H210.261C210.781 157.139 211.085 157.425 211.592 157.951Z" fill="white"/>
</g>
<g opacity="0.3">
<path d="M211.592 160.48H162.903V163.999H211.592V160.48Z" fill="white"/>
</g>
<g opacity="0.1">
<path d="M164.247 166.318H210.249L211.592 164.987H162.91L164.247 166.318Z" fill="black"/>
</g>
<g opacity="0.3">
<path d="M210.249 156.613H164.247L162.897 157.944H211.592L210.249 156.613Z" fill="white"/>
</g>
<g style="mix-blend-mode:screen" opacity="0.1">
<path d="M194.008 156.613H184.671V166.318H194.008V156.613Z" fill="white"/>
</g>
<g style="mix-blend-mode:screen" opacity="0.1">
<path d="M202.781 156.613H198.116V166.318H202.781V156.613Z" fill="white"/>
</g>
<path d="M208.347 167.625V174.661L207.009 175.992H161.008L159.67 174.654V167.625L161.008 166.287H207.022L208.347 167.625Z" fill="#00712D"/>
<g opacity="0.3">
<path d="M208.347 167.625V174.661L207.009 175.992H161.008L159.67 174.654V167.625L161.008 166.287H207.022L208.347 167.625Z" fill="white"/>
</g>
<g opacity="0.3">
<path d="M208.347 170.153H159.658V173.671H208.347V170.153Z" fill="white"/>
</g>
<g opacity="0.1">
<path d="M161.008 175.991H207.01L208.353 174.66H159.658L161.008 175.991Z" fill="black"/>
</g>
<g opacity="0.3">
<path d="M207.003 166.287H161.008L159.664 167.618H208.353L207.003 166.287Z" fill="white"/>
</g>
<g style="mix-blend-mode:screen" opacity="0.1">
<path d="M190.763 166.287H181.426V175.992H190.763V166.287Z" fill="white"/>
</g>
<g style="mix-blend-mode:screen" opacity="0.1">
<path d="M199.536 166.287H194.871V175.992H199.536V166.287Z" fill="white"/>
</g>
<path d="M204.017 177.304V184.334L202.68 185.671H156.666L155.303 184.334V177.304L156.64 175.966H202.655L204.017 177.304Z" fill="#00712D"/>
<g opacity="0.3">
<path d="M204.017 177.304V184.334L202.68 185.671H156.666L155.303 184.334V177.304L156.64 175.966H202.655L204.017 177.304Z" fill="white"/>
</g>
<g opacity="0.3">
<path d="M204.017 179.833H155.328V183.351H204.017V179.833Z" fill="white"/>
</g>
<g opacity="0.1">
<path d="M156.672 185.671H202.674L204.017 184.34H155.303L156.672 185.671Z" fill="black"/>
</g>
<g opacity="0.3">
<path d="M202.674 175.992H156.672L155.303 177.291H203.998L202.674 175.992Z" fill="white"/>
</g>
<g style="mix-blend-mode:screen" opacity="0.1">
<path d="M186.433 175.966H177.096V185.671H186.433V175.966Z" fill="white"/>
</g>
<g style="mix-blend-mode:screen" opacity="0.1">
<path d="M195.206 175.966H190.541V185.671H195.206V175.966Z" fill="white"/>
</g>
<path d="M211.592 186.977V194.007L210.255 195.344H164.241L162.91 194.007V186.977L164.247 185.64H210.261L211.592 186.977Z" fill="#00712D"/>
<g opacity="0.3">
<path d="M211.592 186.977V194.007L210.255 195.344H164.241L162.91 194.007V186.977L164.247 185.64H210.261L211.592 186.977Z" fill="white"/>
</g>
<g opacity="0.3">
<path d="M211.592 189.506H162.903V193.024H211.592V189.506Z" fill="white"/>
</g>
<g opacity="0.1">
<path d="M164.247 195.344H210.249L211.592 194.013H162.91L164.247 195.344Z" fill="black"/>
</g>
<g opacity="0.3">
<path d="M210.249 185.64H164.247L162.897 186.971H211.592L210.249 185.64Z" fill="white"/>
</g>
<g style="mix-blend-mode:screen" opacity="0.1">
<path d="M194.008 185.64H184.671V195.344H194.008V185.64Z" fill="white"/>
</g>
<g style="mix-blend-mode:screen" opacity="0.1">
<path d="M202.781 185.64H198.116V195.344H202.781V185.64Z" fill="white"/>
</g>
<path d="M202.122 196.65V203.68L200.778 205.024H154.771L153.433 203.68V196.65C153.947 196.124 154.244 195.839 154.771 195.312H200.778C201.304 195.839 201.577 196.124 202.122 196.65Z" fill="#00712D"/>
<g opacity="0.3">
<path d="M202.122 196.65V203.68L200.778 205.024H154.771L153.433 203.68V196.65C153.947 196.124 154.244 195.839 154.771 195.312H200.778C201.304 195.839 201.577 196.124 202.122 196.65Z" fill="white"/>
</g>
<g opacity="0.3">
<path d="M202.122 199.18H153.433V202.698H202.122V199.18Z" fill="white"/>
</g>
<g opacity="0.1">
<path d="M154.771 205.018H200.778L202.122 203.687H153.401L154.771 205.018Z" fill="black"/>
</g>
<g opacity="0.3">
<path d="M200.778 195.312H154.771L153.427 196.644H202.122L200.778 195.312Z" fill="white"/>
</g>
<g style="mix-blend-mode:screen" opacity="0.1">
<path d="M184.532 195.312H175.195V205.017H184.532V195.312Z" fill="white"/>
</g>
<g style="mix-blend-mode:screen" opacity="0.1">
<path d="M193.311 195.312H188.646V205.017H193.311V195.312Z" fill="white"/>
</g>
<path d="M205.906 206.329V213.391L204.569 214.728H158.555L157.205 213.391V206.329C157.724 205.803 158.016 205.518 158.542 204.992H204.556C205.095 205.518 205.38 205.784 205.906 206.329Z" fill="#00712D"/>
<g opacity="0.3">
<path d="M205.906 206.329V213.391L204.569 214.728H158.555L157.205 213.391V206.329C157.724 205.803 158.016 205.518 158.542 204.992H204.556C205.095 205.518 205.38 205.784 205.906 206.329Z" fill="white"/>
</g>
<g opacity="0.3">
<path d="M205.907 208.859H157.218V212.377H205.907V208.859Z" fill="white"/>
</g>
<g opacity="0.1">
<path d="M158.561 214.691H204.562L205.913 213.366H157.205L158.561 214.691Z" fill="black"/>
</g>
<g opacity="0.3">
<path d="M204.562 204.992H158.561L157.205 206.317H205.9L204.562 204.992Z" fill="white"/>
</g>
<g style="mix-blend-mode:screen" opacity="0.1">
<path d="M188.323 204.992H178.985V214.697H188.323V204.992Z" fill="white"/>
</g>
<g style="mix-blend-mode:screen" opacity="0.1">
<path d="M197.102 204.992H192.436V214.697H197.102V204.992Z" fill="white"/>
</g>
<path d="M216.79 216.003V223.033L215.453 224.37H169.426L168.089 223.033V216.003L169.426 214.666H215.44L216.79 216.003Z" fill="#00712D"/>
<g opacity="0.3">
<path d="M216.79 216.003V223.033L215.453 224.37H169.426L168.089 223.033V216.003L169.426 214.666H215.44L216.79 216.003Z" fill="white"/>
</g>
<g opacity="0.3">
<path d="M216.778 218.532H168.089V222.05H216.778V218.532Z" fill="white"/>
</g>
<g opacity="0.1">
<path d="M169.432 224.37H215.434L216.784 223.039H168.089L169.432 224.37Z" fill="black"/>
</g>
<g opacity="0.3">
<path d="M215.434 214.659H169.432L168.089 215.99H216.79L215.434 214.659Z" fill="white"/>
</g>
<g style="mix-blend-mode:screen" opacity="0.1">
<path d="M199.194 214.666H189.856V224.37H199.194V214.666Z" fill="white"/>
</g>
<g style="mix-blend-mode:screen" opacity="0.1">
<path d="M207.973 214.666H203.308V224.37H207.973V214.666Z" fill="white"/>
</g>
<path d="M205.906 225.676V232.706L204.569 234.043H158.555L157.205 232.706V225.676C157.724 225.15 158.022 224.865 158.542 224.338H204.556C205.095 224.865 205.38 225.15 205.906 225.676Z" fill="#00712D"/>
<g opacity="0.3">
<path d="M205.906 225.676V232.706L204.569 234.043H158.555L157.205 232.706V225.676C157.724 225.15 158.022 224.865 158.542 224.338H204.556C205.095 224.865 205.38 225.15 205.906 225.676Z" fill="white"/>
</g>
<g opacity="0.3">
<path d="M205.907 228.205H157.218V231.723H205.907V228.205Z" fill="white"/>
</g>
<g opacity="0.1">
<path d="M158.561 234.044H204.562L205.913 232.712H157.205L158.561 234.044Z" fill="black"/>
</g>
<g opacity="0.3">
<path d="M204.563 224.338H158.561L157.218 225.67H205.913L204.563 224.338Z" fill="white"/>
</g>
<g style="mix-blend-mode:screen" opacity="0.1">
<path d="M188.323 224.338H178.985V234.043H188.323V224.338Z" fill="white"/>
</g>
<g style="mix-blend-mode:screen" opacity="0.1">
<path d="M197.102 224.338H192.436V234.043H197.102V224.338Z" fill="white"/>
</g>
<path d="M146.625 196.65V203.68L145.288 205.024H99.2735L97.936 203.68V196.65L99.2735 195.312H145.288L146.625 196.65Z" fill="#00712D"/>
<g opacity="0.3">
<path d="M146.625 196.65V203.68L145.288 205.024H99.2735L97.936 203.68V196.65L99.2735 195.312H145.288L146.625 196.65Z" fill="white"/>
</g>
<g opacity="0.3">
<path d="M146.625 199.18H97.936V202.698H146.625V199.18Z" fill="white"/>
</g>
<g opacity="0.1">
<path d="M99.2799 205.018H145.281L146.625 203.687H97.9297L99.2799 205.018Z" fill="black"/>
</g>
<g opacity="0.3">
<path d="M145.281 195.312H99.2799L97.9297 196.644H146.625L145.281 195.312Z" fill="white"/>
</g>
<g style="mix-blend-mode:screen" opacity="0.1">
<path d="M129.041 195.312H119.704V205.017H129.041V195.312Z" fill="white"/>
</g>
<g style="mix-blend-mode:screen" opacity="0.1">
<path d="M137.814 195.312H133.149V205.017H137.814V195.312Z" fill="white"/>
</g>
<path d="M150.41 206.329V213.391L149.072 214.728H103.064L101.727 213.391V206.329C102.24 205.803 102.538 205.518 103.064 204.992H149.072C149.598 205.518 149.896 205.784 150.41 206.329Z" fill="#00712D"/>
<g opacity="0.3">
<path d="M150.41 206.329V213.391L149.072 214.728H103.064L101.727 213.391V206.329C102.24 205.803 102.538 205.518 103.064 204.992H149.072C149.598 205.518 149.896 205.784 150.41 206.329Z" fill="white"/>
</g>
<g opacity="0.3">
<path d="M150.416 208.859H101.727V212.377H150.416V208.859Z" fill="white"/>
</g>
<g opacity="0.1">
<path d="M103.064 214.691H149.072L150.416 213.366H101.72L103.064 214.691Z" fill="black"/>
</g>
<g opacity="0.3">
<path d="M149.072 204.992H103.064L101.72 206.317H150.416C149.89 205.784 149.598 205.511 149.072 204.992Z" fill="white"/>
</g>
<g style="mix-blend-mode:screen" opacity="0.1">
<path d="M132.825 204.992H123.488V214.697H132.825V204.992Z" fill="white"/>
</g>
<g style="mix-blend-mode:screen" opacity="0.1">
<path d="M141.605 204.992H136.939V214.697H141.605V204.992Z" fill="white"/>
</g>
<path d="M154.149 216.003V223.033L152.812 224.37H106.798L105.46 223.033V216.003L106.798 214.666H152.812L154.149 216.003Z" fill="#00712D"/>
<g opacity="0.3">
<path d="M154.149 216.003V223.033L152.812 224.37H106.798L105.46 223.033V216.003L106.798 214.666H152.812L154.149 216.003Z" fill="white"/>
</g>
<g opacity="0.3">
<path d="M154.149 218.532H105.46V222.05H154.149V218.532Z" fill="white"/>
</g>
<g opacity="0.1">
<path d="M106.804 224.37H152.805L154.149 223.039H105.454L106.804 224.37Z" fill="black"/>
</g>
<g opacity="0.3">
<path d="M152.805 214.659H106.804L105.454 215.99H154.149L152.805 214.659Z" fill="white"/>
</g>
<g style="mix-blend-mode:screen" opacity="0.1">
<path d="M136.565 214.666H127.228V224.37H136.565V214.666Z" fill="white"/>
</g>
<g style="mix-blend-mode:screen" opacity="0.1">
<path d="M145.338 214.666H140.673V224.37H145.338V214.666Z" fill="white"/>
</g>
<path d="M143.259 225.676V232.706L141.922 234.043H95.9266L94.5891 232.706V225.676L95.9266 224.338H141.941L143.259 225.676Z" fill="#00712D"/>
<g opacity="0.3">
<path d="M143.259 225.676V232.706L141.922 234.043H95.9266L94.5891 232.706V225.676L95.9266 224.338H141.941L143.259 225.676Z" fill="white"/>
</g>
<g opacity="0.3">
<path d="M143.278 228.205H94.5891V231.723H143.278V228.205Z" fill="white"/>
</g>
<g opacity="0.1">
<path d="M95.9329 234.044H141.934L143.278 232.712H94.5828L95.9329 234.044Z" fill="black"/>
</g>
<g opacity="0.3">
<path d="M141.934 224.338H95.9329L94.5828 225.67H143.259L141.934 224.338Z" fill="white"/>
</g>
<g style="mix-blend-mode:screen" opacity="0.1">
<path d="M125.694 224.338H116.357V234.043H125.694V224.338Z" fill="white"/>
</g>
<g style="mix-blend-mode:screen" opacity="0.1">
<path d="M134.467 224.338H129.802V234.043H134.467V224.338Z" fill="white"/>
</g>
<path d="M267.768 177.304V184.334L266.43 185.671H220.416L219.079 184.334V177.304L220.416 175.966H266.43L267.768 177.304Z" fill="#00712D"/>
<g opacity="0.3">
<path d="M267.768 177.304V184.334L266.43 185.671H220.416L219.079 184.334V177.304L220.416 175.966H266.43L267.768 177.304Z" fill="white"/>
</g>
<g opacity="0.3">
<path d="M267.768 179.833H219.079V183.351H267.768V179.833Z" fill="white"/>
</g>
<g opacity="0.1">
<path d="M220.422 185.671H266.424L267.768 184.34H219.079L220.422 185.671Z" fill="black"/>
</g>
<g opacity="0.3">
<path d="M266.424 175.992H220.422L219.079 177.317H267.768L266.424 175.992Z" fill="white"/>
</g>
<g style="mix-blend-mode:screen" opacity="0.1">
<path d="M250.184 175.966H240.846V185.671H250.184V175.966Z" fill="white"/>
</g>
<g style="mix-blend-mode:screen" opacity="0.1">
<path d="M258.957 175.966H254.291V185.671H258.957V175.966Z" fill="white"/>
</g>
<path d="M275.343 186.977V194.007L274.005 195.344H227.991L226.654 194.007V186.977L227.991 185.64H274.005L275.343 186.977Z" fill="#00712D"/>
<g opacity="0.3">
<path d="M275.343 186.977V194.007L274.005 195.344H227.991L226.654 194.007V186.977L227.991 185.64H274.005L275.343 186.977Z" fill="white"/>
</g>
<g opacity="0.3">
<path d="M275.343 189.506H226.654V193.024H275.343V189.506Z" fill="white"/>
</g>
<g opacity="0.1">
<path d="M227.997 195.344H273.999L275.343 194.013H226.654L227.997 195.344Z" fill="black"/>
</g>
<g opacity="0.3">
<path d="M273.999 185.64H227.997L226.654 186.971H275.343L273.999 185.64Z" fill="white"/>
</g>
<g style="mix-blend-mode:screen" opacity="0.1">
<path d="M257.759 185.64H248.421V195.344H257.759V185.64Z" fill="white"/>
</g>
<g style="mix-blend-mode:screen" opacity="0.1">
<path d="M266.532 185.64H261.866V195.344H266.532V185.64Z" fill="white"/>
</g>
<path d="M265.872 196.65V203.68L264.529 205.024H218.521L217.183 203.68V196.65C217.697 196.124 217.995 195.839 218.521 195.312H264.529C265.055 195.839 265.353 196.124 265.872 196.65Z" fill="#00712D"/>
<g opacity="0.3">
<path d="M265.872 196.65V203.68L264.529 205.024H218.521L217.183 203.68V196.65C217.697 196.124 217.995 195.839 218.521 195.312H264.529C265.055 195.839 265.353 196.124 265.872 196.65Z" fill="white"/>
</g>
<g opacity="0.3">
<path d="M265.872 199.18H217.183V202.698H265.872V199.18Z" fill="white"/>
</g>
<g opacity="0.1">
<path d="M218.521 205.018H264.529L265.872 203.687H217.177L218.521 205.018Z" fill="black"/>
</g>
<g opacity="0.3">
<path d="M264.529 195.312H218.521L217.177 196.644H265.872L264.529 195.312Z" fill="white"/>
</g>
<g style="mix-blend-mode:screen" opacity="0.1">
<path d="M248.282 195.312H238.945V205.017H248.282V195.312Z" fill="white"/>
</g>
<g style="mix-blend-mode:screen" opacity="0.1">
<path d="M257.061 195.312H252.396V205.017H257.061V195.312Z" fill="white"/>
</g>
<path d="M269.657 206.329V213.391L268.319 214.728H222.305L220.968 213.391V206.329L222.305 204.992H268.319C268.845 205.518 269.143 205.784 269.657 206.329Z" fill="#00712D"/>
<g opacity="0.3">
<path d="M269.657 206.329V213.391L268.319 214.728H222.305L220.968 213.391V206.329L222.305 204.992H268.319C268.845 205.518 269.143 205.784 269.657 206.329Z" fill="white"/>
</g>
<g opacity="0.3">
<path d="M269.657 208.859H220.968V212.377H269.657V208.859Z" fill="white"/>
</g>
<g opacity="0.1">
<path d="M222.311 214.691H268.313L269.663 213.366H220.968L222.311 214.691Z" fill="black"/>
</g>
<g opacity="0.3">
<path d="M268.313 204.992H222.311L220.968 206.317H269.663L268.313 204.992Z" fill="white"/>
</g>
<g style="mix-blend-mode:screen" opacity="0.1">
<path d="M252.073 204.992H242.735V214.697H252.073V204.992Z" fill="white"/>
</g>
<g style="mix-blend-mode:screen" opacity="0.1">
<path d="M260.852 204.992H256.187V214.697H260.852V204.992Z" fill="white"/>
</g>
<path d="M273.771 216.003V223.033L272.433 224.37H226.425L225.082 223.033V216.003C225.601 215.477 225.899 215.192 226.425 214.666H272.433C272.959 215.192 273.257 215.477 273.771 216.003Z" fill="#00712D"/>
<g opacity="0.3">
<path d="M273.771 216.003V223.033L272.433 224.37H226.425L225.082 223.033V216.003C225.601 215.477 225.899 215.192 226.425 214.666H272.433C272.959 215.192 273.257 215.477 273.771 216.003Z" fill="white"/>
</g>
<g opacity="0.3">
<path d="M273.771 218.532H225.082V222.05H273.771V218.532Z" fill="white"/>
</g>
<g opacity="0.1">
<path d="M226.425 224.37H272.427L273.777 223.039H225.082L226.425 224.37Z" fill="black"/>
</g>
<g opacity="0.3">
<path d="M272.427 214.659H226.425L225.082 215.99H273.777L272.427 214.659Z" fill="white"/>
</g>
<g style="mix-blend-mode:screen" opacity="0.1">
<path d="M256.187 214.666H246.85V224.37H256.187V214.666Z" fill="white"/>
</g>
<g style="mix-blend-mode:screen" opacity="0.1">
<path d="M264.966 214.666H260.301V224.37H264.966V214.666Z" fill="white"/>
</g>
<path d="M269.657 225.676V232.706L268.319 234.043H222.311L220.968 232.706V225.676C221.487 225.15 221.785 224.865 222.311 224.338H268.319C268.845 224.865 269.143 225.15 269.657 225.676Z" fill="#00712D"/>
<g opacity="0.3">
<path d="M269.657 225.676V232.706L268.319 234.043H222.311L220.968 232.706V225.676C221.487 225.15 221.785 224.865 222.311 224.338H268.319C268.845 224.865 269.143 225.15 269.657 225.676Z" fill="white"/>
</g>
<g opacity="0.3">
<path d="M269.657 228.205H220.968V231.723H269.657V228.205Z" fill="white"/>
</g>
<g opacity="0.1">
<path d="M222.311 234.044H268.313L269.663 232.712H220.968L222.311 234.044Z" fill="black"/>
</g>
<g opacity="0.3">
<path d="M268.313 224.338H222.311L220.968 225.67H269.663L268.313 224.338Z" fill="white"/>
</g>
<g style="mix-blend-mode:screen" opacity="0.1">
<path d="M252.073 224.338H242.735V234.043H252.073V224.338Z" fill="white"/>
</g>
<g style="mix-blend-mode:screen" opacity="0.1">
<path d="M260.852 224.338H256.187V234.043H260.852V224.338Z" fill="white"/>
</g>
<path d="M236.092 149.837C236.092 149.837 234.488 152.709 237.056 156.62C238.571 158.927 240.643 159.586 241.905 158.762C243.166 157.938 243.407 155.777 241.905 153.463C239.376 149.533 236.092 149.837 236.092 149.837Z" fill="#00712D"/>
<path opacity="0.2" d="M236.092 149.837C236.092 149.837 234.488 152.709 237.056 156.62C238.571 158.927 240.643 159.586 241.905 158.762C243.166 157.938 243.407 155.777 241.905 153.463C239.376 149.533 236.092 149.837 236.092 149.837Z" fill="white"/>
<path d="M258.836 136.177C258.836 136.177 253.277 134.947 248.06 141.127C244.992 144.772 244.929 148.531 246.913 150.217C248.897 151.904 252.618 151.225 255.692 147.606C260.96 141.457 258.836 136.177 258.836 136.177Z" fill="#00712D"/>
<path d="M251.54 111.639C251.54 111.639 250.304 111.981 249.917 113.769C249.689 114.821 250.076 115.581 250.646 115.67C251.217 115.759 251.914 115.271 252.13 114.219C252.267 113.775 252.285 113.302 252.181 112.85C252.078 112.397 251.856 111.979 251.54 111.639Z" fill="#00712D"/>
<path d="M241.702 166.654C240.99 164.125 240.656 161.503 240.713 158.876C240.769 156.328 241.141 153.796 241.823 151.339C242.159 150.135 242.552 148.949 243.002 147.796C243.223 147.219 243.458 146.655 243.712 146.091C243.832 145.805 243.965 145.533 244.092 145.254L244.282 144.848L244.466 144.455C245.461 142.37 246.406 140.272 247.255 138.116C248.113 135.995 248.86 133.831 249.493 131.632C250.124 129.436 250.565 127.19 250.811 124.919C251.063 122.646 250.99 120.35 250.596 118.098C250.193 115.816 249.331 113.64 248.06 111.702C249.575 113.525 250.705 115.636 251.382 117.908C252.049 120.209 252.388 122.593 252.389 124.988C252.4 127.382 252.202 129.773 251.8 132.132C251.403 134.483 250.88 136.81 250.234 139.105C249.6 141.4 248.871 143.663 248.098 145.9L247.952 146.319L247.883 146.528L247.819 146.725C247.73 146.984 247.635 147.251 247.559 147.517C247.394 148.043 247.236 148.576 247.097 149.108C246.818 150.167 246.589 151.238 246.418 152.309C246.08 154.404 246.003 156.534 246.19 158.648C246.377 160.693 246.866 162.699 247.642 164.6L241.702 166.654Z" fill="#00712D"/>
<path opacity="0.2" d="M241.702 166.654C240.99 164.125 240.656 161.503 240.713 158.876C240.769 156.328 241.141 153.796 241.823 151.339C242.159 150.135 242.552 148.949 243.002 147.796C243.223 147.219 243.458 146.655 243.712 146.091C243.832 145.805 243.965 145.533 244.092 145.254L244.282 144.848L244.466 144.455C245.461 142.37 246.406 140.272 247.255 138.116C248.113 135.995 248.86 133.831 249.493 131.632C250.124 129.436 250.565 127.19 250.811 124.919C251.063 122.646 250.99 120.35 250.596 118.098C250.193 115.816 249.331 113.64 248.06 111.702C249.575 113.525 250.705 115.636 251.382 117.908C252.049 120.209 252.388 122.593 252.389 124.988C252.4 127.382 252.202 129.773 251.8 132.132C251.403 134.483 250.88 136.81 250.234 139.105C249.6 141.4 248.871 143.663 248.098 145.9L247.952 146.319L247.883 146.528L247.819 146.725C247.73 146.984 247.635 147.251 247.559 147.517C247.394 148.043 247.236 148.576 247.097 149.108C246.818 150.167 246.589 151.238 246.418 152.309C246.08 154.404 246.003 156.534 246.19 158.648C246.377 160.693 246.866 162.699 247.642 164.6L241.702 166.654Z" fill="black"/>
<path d="M253.436 160.569L253.258 162.515L252.13 175.193C252.108 175.407 252.008 175.605 251.849 175.75C251.69 175.895 251.483 175.977 251.268 175.979H236.897C236.681 175.98 236.473 175.899 236.313 175.754C236.154 175.608 236.054 175.408 236.035 175.193L234.901 162.515L234.729 160.569H253.436Z" fill="#00712D"/>
<path d="M253.222 167.603L252.816 172.143L252.987 172.158L253.393 167.618L253.222 167.603Z" fill="#00712D"/>
<path d="M253.441 165.194L253.345 166.267L253.515 166.282L253.611 165.209L253.441 165.194Z" fill="#00712D"/>
<path d="M244.631 123.689C244.631 123.689 242.387 126.681 244.675 131.474C246.025 134.301 248.257 135.353 249.803 134.643C251.35 133.933 251.952 131.518 250.621 128.678C248.364 123.854 244.631 123.689 244.631 123.689Z" fill="#00712D"/>
<path opacity="0.2" d="M244.631 123.689C244.631 123.689 242.387 126.681 244.675 131.474C246.025 134.301 248.257 135.353 249.803 134.643C251.35 133.933 251.952 131.518 250.621 128.678C248.364 123.854 244.631 123.689 244.631 123.689Z" fill="black"/>
<path opacity="0.2" d="M253.436 160.569L253.258 162.515H234.901L234.729 160.569H253.436Z" fill="black"/>
<path d="M254.545 158.167H233.614C233.39 158.167 233.208 158.348 233.208 158.572V161.133C233.208 161.357 233.39 161.539 233.614 161.539H254.545C254.769 161.539 254.95 161.357 254.95 161.133V158.572C254.95 158.348 254.769 158.167 254.545 158.167Z" fill="#00712D"/>
<path d="M262.662 130.192C265.669 127.929 266.273 123.657 264.01 120.65C261.747 117.642 257.475 117.039 254.468 119.302C251.461 121.565 250.857 125.837 253.12 128.844C255.383 131.851 259.655 132.455 262.662 130.192Z" fill="#00712D"/>
<path opacity="0.1" d="M264.028 126.422C264.257 125.516 264.256 124.567 264.023 123.662C263.79 122.758 263.334 121.926 262.696 121.243C262.059 120.56 261.26 120.049 260.373 119.755C259.486 119.462 258.539 119.396 257.62 119.563C256.701 119.731 255.839 120.127 255.113 120.714C254.386 121.301 253.819 122.062 253.463 122.926C253.107 123.789 252.974 124.729 253.075 125.657C253.177 126.586 253.51 127.474 254.044 128.241C253.448 127.465 253.062 126.55 252.922 125.582C252.782 124.614 252.893 123.627 253.245 122.714C253.596 121.802 254.177 120.995 254.93 120.372C255.683 119.748 256.584 119.328 257.546 119.153C258.508 118.978 259.498 119.053 260.423 119.37C261.348 119.688 262.175 120.239 262.826 120.968C263.477 121.698 263.929 122.583 264.14 123.538C264.35 124.493 264.311 125.486 264.028 126.422Z" fill="black"/>
<path d="M260.662 125.718L259.984 127.182C259.957 127.237 259.92 127.285 259.874 127.326C259.828 127.366 259.775 127.397 259.717 127.416C259.662 127.442 259.601 127.455 259.54 127.455C259.479 127.455 259.418 127.442 259.362 127.416L258.095 126.821L257.613 127.835C257.558 127.948 257.461 128.035 257.342 128.077C257.223 128.118 257.092 128.111 256.979 128.057C256.867 128.003 256.781 127.907 256.738 127.79C256.714 127.734 256.702 127.674 256.702 127.613C256.702 127.552 256.714 127.492 256.738 127.435L257.22 126.409L255.952 125.819C255.898 125.794 255.849 125.757 255.809 125.713C255.768 125.668 255.737 125.616 255.718 125.559C255.694 125.503 255.682 125.443 255.682 125.382C255.682 125.321 255.694 125.26 255.718 125.204C255.743 125.15 255.779 125.101 255.824 125.061C255.868 125.02 255.921 124.989 255.977 124.97C256.033 124.944 256.094 124.931 256.155 124.931C256.216 124.931 256.277 124.944 256.332 124.97L259.274 126.358L259.559 125.756L256.624 124.374C256.567 124.347 256.516 124.31 256.475 124.263C256.433 124.217 256.401 124.162 256.381 124.103C256.36 124.044 256.353 123.981 256.357 123.919C256.362 123.856 256.38 123.795 256.409 123.74L257.08 122.307C257.106 122.251 257.143 122.201 257.188 122.159C257.234 122.118 257.288 122.086 257.347 122.066C257.401 122.041 257.461 122.028 257.521 122.028C257.581 122.028 257.641 122.041 257.695 122.066L258.963 122.656L259.445 121.642C259.468 121.586 259.502 121.536 259.546 121.494C259.59 121.453 259.642 121.421 259.698 121.401C259.757 121.375 259.821 121.361 259.885 121.361C259.95 121.361 260.013 121.375 260.072 121.401C260.127 121.426 260.175 121.462 260.214 121.506C260.253 121.551 260.283 121.604 260.301 121.661C260.326 121.715 260.339 121.775 260.339 121.835C260.339 121.895 260.326 121.955 260.301 122.009L259.825 123.03L261.093 123.664C261.207 123.718 261.296 123.814 261.34 123.933C261.384 124.051 261.379 124.182 261.327 124.298C261.3 124.354 261.262 124.404 261.216 124.446C261.169 124.487 261.114 124.519 261.055 124.539C260.999 124.562 260.938 124.574 260.877 124.574C260.816 124.574 260.756 124.562 260.7 124.539L257.759 123.144L257.473 123.74L260.408 125.128C260.464 125.153 260.514 125.188 260.556 125.233C260.597 125.278 260.629 125.33 260.649 125.388C260.694 125.492 260.699 125.61 260.662 125.718Z" fill="#FAFAFA"/>
<path d="M243.595 147.408C245.763 145.777 246.198 142.697 244.567 140.529C242.935 138.361 239.855 137.926 237.687 139.557C235.519 141.189 235.084 144.269 236.716 146.437C238.347 148.605 241.427 149.04 243.595 147.408Z" fill="#00712D"/>
<path opacity="0.1" d="M244.586 144.69C244.753 144.036 244.752 143.351 244.585 142.698C244.417 142.045 244.088 141.444 243.628 140.951C243.168 140.458 242.591 140.088 241.951 139.876C241.311 139.664 240.628 139.617 239.964 139.737C239.3 139.858 238.678 140.144 238.154 140.568C237.629 140.993 237.22 141.542 236.963 142.165C236.707 142.789 236.611 143.467 236.685 144.138C236.758 144.808 236.999 145.449 237.385 146.002C236.95 145.442 236.667 144.779 236.563 144.078C236.458 143.376 236.536 142.66 236.789 141.997C237.043 141.335 237.462 140.749 238.008 140.296C238.554 139.843 239.207 139.538 239.904 139.411C240.602 139.283 241.321 139.338 241.991 139.57C242.662 139.801 243.261 140.202 243.732 140.732C244.202 141.263 244.528 141.906 244.678 142.599C244.828 143.292 244.796 144.012 244.586 144.69Z" fill="black"/>
<path d="M242.146 144.183L241.658 145.222C241.639 145.262 241.613 145.297 241.58 145.325C241.547 145.353 241.509 145.375 241.467 145.387C241.426 145.405 241.382 145.413 241.338 145.413C241.293 145.413 241.249 145.405 241.208 145.387L240.307 144.931L239.959 145.666C239.941 145.706 239.915 145.742 239.882 145.772C239.849 145.801 239.811 145.824 239.769 145.837C239.687 145.869 239.597 145.869 239.515 145.837C239.436 145.796 239.374 145.729 239.338 145.647C239.32 145.606 239.311 145.562 239.311 145.517C239.311 145.473 239.32 145.428 239.338 145.387L239.686 144.652L238.78 144.221C238.74 144.203 238.705 144.178 238.676 144.146C238.646 144.115 238.623 144.078 238.609 144.037C238.592 143.997 238.583 143.954 238.583 143.91C238.583 143.867 238.592 143.824 238.609 143.784C238.626 143.742 238.651 143.705 238.684 143.674C238.717 143.643 238.756 143.62 238.799 143.606C238.839 143.589 238.882 143.58 238.926 143.58C238.969 143.58 239.012 143.589 239.052 143.606L241.176 144.608L241.379 144.17L239.262 143.175C239.221 143.157 239.185 143.131 239.156 143.098C239.126 143.065 239.104 143.027 239.09 142.985C239.073 142.945 239.065 142.902 239.065 142.858C239.065 142.815 239.073 142.771 239.09 142.731L239.579 141.698C239.617 141.618 239.685 141.557 239.769 141.527C239.809 141.51 239.852 141.501 239.895 141.501C239.939 141.501 239.982 141.51 240.022 141.527L240.922 141.952L241.271 141.216C241.288 141.176 241.313 141.14 241.344 141.111C241.376 141.081 241.414 141.059 241.455 141.045C241.497 141.027 241.542 141.017 241.588 141.017C241.634 141.017 241.679 141.027 241.721 141.045C241.799 141.083 241.858 141.151 241.887 141.233C241.915 141.314 241.91 141.404 241.873 141.483L241.531 142.218L242.45 142.655C242.491 142.673 242.528 142.699 242.558 142.732C242.589 142.765 242.612 142.803 242.628 142.845C242.643 142.887 242.649 142.93 242.647 142.974C242.645 143.018 242.634 143.061 242.615 143.1C242.596 143.14 242.57 143.175 242.537 143.204C242.504 143.234 242.466 143.256 242.425 143.27C242.384 143.289 242.34 143.299 242.295 143.299C242.25 143.299 242.206 143.289 242.165 143.27L240.041 142.269L239.838 142.7L241.956 143.701C241.996 143.719 242.032 143.745 242.061 143.778C242.091 143.811 242.113 143.849 242.127 143.891C242.155 143.934 242.171 143.984 242.174 144.035C242.178 144.086 242.168 144.137 242.146 144.183Z" fill="#FAFAFA"/>
<path d="M169.882 112.12C169.882 112.12 167.055 116.722 170.998 123.315C173.318 127.2 176.703 128.386 178.801 127.156C180.899 125.926 181.464 122.37 179.169 118.465C175.252 111.848 169.882 112.12 169.882 112.12Z" fill="#00712D"/>
<path opacity="0.2" d="M169.882 112.12C169.882 112.12 167.055 116.722 170.998 123.315C173.318 127.2 176.703 128.386 178.801 127.156C180.899 125.926 181.464 122.37 179.169 118.465C175.252 111.848 169.882 112.12 169.882 112.12Z" fill="white"/>
<path d="M197.362 99.9252C197.362 99.9252 190.554 98.4165 184.177 105.991C180.411 110.46 180.335 115.069 182.769 117.135C185.204 119.202 189.742 118.403 193.546 113.928C199.967 106.391 197.362 99.9252 197.362 99.9252Z" fill="#00712D"/>
<path d="M189.292 66.4932C189.292 66.4932 187.143 67.089 186.471 70.1887C186.078 72.0143 186.75 73.3265 187.739 73.5484C188.728 73.7702 189.894 72.8511 190.275 71.0128C190.997 67.9321 189.292 66.4932 189.292 66.4932Z" fill="#00712D"/>
<path d="M176.741 135.657C175.871 132.565 175.46 129.361 175.524 126.149C175.593 123.023 176.051 119.919 176.887 116.907C177.293 115.43 177.781 113.978 178.326 112.564C178.601 111.859 178.892 111.161 179.201 110.473C179.347 110.124 179.511 109.788 179.664 109.446L179.898 108.951L180.126 108.469C181.343 105.934 182.497 103.341 183.543 100.736C184.598 98.1354 185.512 95.4798 186.281 92.7807C187.061 90.0865 187.601 87.329 187.898 84.5401C188.21 81.7552 188.124 78.94 187.644 76.1791C187.133 73.3787 186.054 70.7124 184.475 68.3442C186.333 70.5775 187.718 73.1656 188.544 75.9509C189.364 78.7686 189.78 81.6881 189.78 84.6225C189.791 87.5558 189.549 90.4846 189.058 93.3765C188.577 96.261 187.942 99.1176 187.156 101.934C186.383 104.742 185.489 107.519 184.545 110.257L184.367 110.77L184.278 111.024L184.196 111.271C184.088 111.595 183.974 111.905 183.879 112.241C183.676 112.875 183.486 113.509 183.315 114.187C182.968 115.481 182.691 116.793 182.484 118.117C182.067 120.694 181.973 123.314 182.205 125.914C182.431 128.421 183.029 130.88 183.98 133.21L176.741 135.657Z" fill="#00712D"/>
<path opacity="0.2" d="M176.741 135.657C175.871 132.565 175.46 129.361 175.524 126.149C175.593 123.023 176.051 119.919 176.887 116.907C177.293 115.43 177.781 113.978 178.326 112.564C178.601 111.859 178.892 111.161 179.201 110.473C179.347 110.124 179.511 109.788 179.664 109.446L179.898 108.951L180.126 108.469C181.343 105.934 182.497 103.341 183.543 100.736C184.598 98.1354 185.512 95.4798 186.281 92.7807C187.061 90.0865 187.601 87.329 187.898 84.5401C188.21 81.7552 188.124 78.94 187.644 76.1791C187.133 73.3787 186.054 70.7124 184.475 68.3442C186.333 70.5775 187.718 73.1656 188.544 75.9509C189.364 78.7686 189.78 81.6881 189.78 84.6225C189.791 87.5558 189.549 90.4846 189.058 93.3765C188.577 96.261 187.942 99.1176 187.156 101.934C186.383 104.742 185.489 107.519 184.545 110.257L184.367 110.77L184.278 111.024L184.196 111.271C184.088 111.595 183.974 111.905 183.879 112.241C183.676 112.875 183.486 113.509 183.315 114.187C182.968 115.481 182.691 116.793 182.484 118.117C182.067 120.694 181.973 123.314 182.205 125.914C182.431 128.421 183.029 130.88 183.98 133.21L176.741 135.657Z" fill="black"/>
<path d="M191.118 128.203L190.902 130.586L189.533 146.091C189.509 146.354 189.388 146.598 189.194 146.777C188.999 146.955 188.745 147.054 188.481 147.055H170.852C170.587 147.056 170.331 146.957 170.135 146.779C169.939 146.6 169.817 146.355 169.794 146.091L168.405 130.586L168.19 128.203H191.118Z" fill="#00712D"/>
<path d="M190.865 136.819L190.367 142.388L190.575 142.406L191.073 136.838L190.865 136.819Z" fill="#00712D"/>
<path d="M191.128 133.882L191.01 135.195L191.219 135.213L191.336 133.9L191.128 133.882Z" fill="#00712D"/>
<path d="M182.06 73.5483C182.06 73.5483 179.765 76.5973 182.104 81.491C183.479 84.3815 185.761 85.4591 187.34 84.7111C188.918 83.9631 189.533 81.5417 188.177 78.6195C185.869 73.7132 182.06 73.5483 182.06 73.5483Z" fill="#00712D"/>
<path opacity="0.2" d="M182.06 73.5483C182.06 73.5483 179.765 76.5973 182.104 81.491C183.479 84.3815 185.761 85.4591 187.34 84.7111C188.918 83.9631 189.533 81.5417 188.177 78.6195C185.869 73.7132 182.06 73.5483 182.06 73.5483Z" fill="black"/>
<path opacity="0.2" d="M191.118 128.203L190.902 130.586H168.405L168.19 128.203H191.118Z" fill="black"/>
<path d="M192.474 125.255H166.827C166.551 125.255 166.326 125.479 166.326 125.756V128.893C166.326 129.17 166.551 129.394 166.827 129.394H192.474C192.751 129.394 192.975 129.17 192.975 128.893V125.756C192.975 125.479 192.751 125.255 192.474 125.255Z" fill="#00712D"/>
<path d="M202.552 92.9939C206.239 90.2196 206.978 84.9817 204.204 81.2948C201.43 77.6078 196.192 76.8679 192.505 79.6422C188.818 82.4165 188.078 87.6544 190.852 91.3414C193.627 95.0283 198.865 95.7682 202.552 92.9939Z" fill="#00712D"/>
<path opacity="0.1" d="M204.227 88.3752C204.509 87.2644 204.508 86.1004 204.224 84.9901C203.939 83.8798 203.38 82.8587 202.598 82.0208C201.816 81.1829 200.836 80.555 199.748 80.1948C198.66 79.8345 197.499 79.7535 196.371 79.9592C195.243 80.1648 194.186 80.6505 193.295 81.3717C192.404 82.0929 191.709 83.0264 191.273 84.0865C190.837 85.1465 190.674 86.2991 190.8 87.4384C190.926 88.5777 191.336 89.6671 191.992 90.6065C191.253 89.6551 190.772 88.5292 190.594 87.3375C190.417 86.1458 190.549 84.9284 190.979 83.8029C191.409 82.6774 192.122 81.6816 193.049 80.9118C193.976 80.1419 195.085 79.6239 196.27 79.4077C197.456 79.1915 198.677 79.2845 199.816 79.6776C200.955 80.0707 201.973 80.7507 202.773 81.652C203.572 82.5532 204.126 83.6454 204.381 84.823C204.636 86.0007 204.582 87.2241 204.227 88.3752Z" fill="black"/>
<path d="M200.1 87.513L199.27 89.2816C199.203 89.4149 199.087 89.5171 198.946 89.5668C198.876 89.5965 198.801 89.6118 198.724 89.6118C198.648 89.6118 198.573 89.5965 198.503 89.5668L196.949 88.8315L196.366 90.0993C196.334 90.1661 196.289 90.2258 196.234 90.2748C196.178 90.3238 196.113 90.3612 196.043 90.3846C195.975 90.4142 195.902 90.4295 195.827 90.4295C195.753 90.4295 195.68 90.4142 195.612 90.3846C195.543 90.354 195.481 90.3095 195.429 90.2539C195.378 90.1983 195.339 90.1327 195.314 90.0613C195.283 89.9937 195.267 89.9202 195.267 89.8458C195.267 89.7713 195.283 89.6978 195.314 89.6302L195.904 88.3624L194.363 87.6335C194.263 87.5856 194.179 87.5091 194.122 87.4136C194.065 87.3181 194.037 87.2079 194.043 87.0968C194.048 86.9857 194.086 86.8787 194.152 86.7892C194.218 86.6998 194.309 86.6318 194.414 86.5939C194.481 86.5627 194.555 86.5465 194.629 86.5465C194.704 86.5465 194.777 86.5627 194.845 86.5939L198.452 88.2991L198.8 87.5637L195.238 85.8332C195.17 85.8036 195.109 85.7601 195.059 85.7056C195.008 85.651 194.97 85.5865 194.946 85.5163C194.915 85.4487 194.899 85.3752 194.899 85.3008C194.899 85.2263 194.915 85.1528 194.946 85.0852L195.777 83.323C195.808 83.2548 195.852 83.1937 195.908 83.1436C195.964 83.0934 196.029 83.0552 196.1 83.0314C196.238 82.9744 196.393 82.9744 196.531 83.0314L198.059 83.7541L198.648 82.4863C198.678 82.4191 198.72 82.3586 198.774 82.3085C198.827 82.2584 198.89 82.2196 198.959 82.1947C199.033 82.167 199.112 82.1555 199.191 82.161C199.269 82.1665 199.346 82.1888 199.415 82.2264C199.482 82.2564 199.542 82.3001 199.591 82.3547C199.641 82.4093 199.678 82.4735 199.701 82.5433C199.758 82.6814 199.758 82.8364 199.701 82.9744L199.111 84.2422L200.677 84.9838C200.746 85.0147 200.808 85.0593 200.859 85.1149C200.91 85.1704 200.949 85.2358 200.975 85.3071C201.004 85.3751 201.02 85.4485 201.02 85.5226C201.02 85.5968 201.004 85.6702 200.975 85.7381C200.944 85.8071 200.899 85.8691 200.844 85.9203C200.788 85.9715 200.723 86.0109 200.651 86.0361C200.509 86.0932 200.35 86.0932 200.208 86.0361L196.601 84.3309L196.259 85.0599L199.853 86.7587C199.922 86.7896 199.984 86.8342 200.035 86.8898C200.086 86.9453 200.125 87.0107 200.151 87.082C200.173 87.1534 200.179 87.2286 200.171 87.3028C200.162 87.3771 200.138 87.4486 200.1 87.513Z" fill="#FAFAFA"/>
<path d="M181.479 103.933C185.166 101.159 185.906 95.9212 183.132 92.2342C180.358 88.5473 175.12 87.8074 171.433 90.5817C167.746 93.356 167.006 98.5939 169.78 102.281C172.554 105.968 177.792 106.708 181.479 103.933Z" fill="#00712D"/>
<path opacity="0.1" d="M183.156 99.2909C183.438 98.18 183.436 97.0161 183.151 95.9061C182.866 94.7961 182.306 93.7755 181.524 92.9382C180.741 92.1008 179.761 91.4735 178.673 91.1139C177.585 90.7543 176.424 90.6739 175.296 90.8801C174.169 91.0863 173.111 91.5725 172.221 92.294C171.33 93.0155 170.635 93.9492 170.2 95.0093C169.765 96.0695 169.602 97.222 169.729 98.3611C169.855 99.5002 170.265 100.589 170.922 101.529C170.18 100.577 169.695 99.4502 169.515 98.2568C169.336 97.0633 169.467 95.8437 169.896 94.7158C170.325 93.5878 171.038 92.5896 171.966 91.8176C172.893 91.0456 174.004 90.526 175.192 90.3088C176.379 90.0917 177.602 90.1844 178.743 90.5781C179.884 90.9717 180.904 91.6529 181.705 92.5559C182.505 93.4589 183.06 94.5532 183.314 95.733C183.568 96.9128 183.514 98.1382 183.156 99.2909Z" fill="black"/>
<path d="M179.03 98.4541L178.193 100.223C178.161 100.29 178.117 100.35 178.061 100.399C178.005 100.448 177.94 100.485 177.87 100.508C177.801 100.538 177.726 100.553 177.651 100.553C177.576 100.553 177.501 100.538 177.432 100.508L175.879 99.7789L175.29 101.047C175.258 101.114 175.214 101.174 175.159 101.223C175.105 101.273 175.041 101.311 174.971 101.336C174.902 101.361 174.828 101.372 174.754 101.368C174.68 101.364 174.608 101.345 174.542 101.313C174.471 101.284 174.408 101.24 174.357 101.184C174.305 101.128 174.267 101.062 174.244 100.99C174.212 100.922 174.196 100.849 174.196 100.774C174.196 100.7 174.212 100.626 174.244 100.559L174.833 99.2908L173.293 98.5618C173.225 98.5313 173.165 98.4874 173.115 98.433C173.065 98.3785 173.026 98.3146 173.001 98.2449C172.944 98.1069 172.944 97.9518 173.001 97.8138C173.066 97.6783 173.181 97.5736 173.322 97.5226C173.464 97.4716 173.619 97.4783 173.756 97.5413L177.362 99.2464L177.705 98.5111L174.149 96.7552C174.081 96.7247 174.021 96.6808 173.971 96.6264C173.921 96.5719 173.882 96.508 173.857 96.4383C173.827 96.3703 173.812 96.2969 173.812 96.2228C173.812 96.1486 173.827 96.0752 173.857 96.0073L174.687 94.245C174.719 94.1773 174.763 94.1165 174.818 94.0663C174.873 94.0161 174.938 93.9774 175.008 93.9526C175.079 93.9277 175.153 93.9173 175.228 93.9218C175.302 93.9263 175.375 93.9457 175.442 93.9788L176.969 94.6951L177.559 93.4273C177.588 93.3602 177.631 93.2997 177.684 93.2495C177.738 93.1994 177.801 93.1607 177.87 93.1357C177.941 93.1035 178.019 93.0869 178.098 93.0869C178.176 93.0869 178.254 93.1035 178.326 93.1357C178.459 93.2 178.561 93.3138 178.611 93.4527C178.641 93.5206 178.656 93.594 178.656 93.6682C178.656 93.7424 178.641 93.8157 178.611 93.8837L178.028 95.1515L179.594 95.8931C179.661 95.925 179.722 95.97 179.772 96.0255C179.822 96.081 179.861 96.1459 179.885 96.2164C179.915 96.2843 179.931 96.3577 179.931 96.432C179.931 96.5062 179.915 96.5796 179.885 96.6475C179.854 96.7173 179.809 96.7798 179.752 96.8311C179.695 96.8824 179.628 96.9213 179.556 96.9454C179.416 97.0028 179.258 97.0028 179.118 96.9454L175.511 95.2402L175.169 95.9692L178.763 97.668C178.832 97.698 178.894 97.7423 178.944 97.7981C178.994 97.8539 179.032 97.9197 179.055 97.9913C179.085 98.0655 179.099 98.1455 179.095 98.2256C179.09 98.3056 179.068 98.3837 179.03 98.4541Z" fill="#FAFAFA"/>
<path d="M119.412 171.744C119.412 171.744 117.06 173.646 117.935 177.899C118.449 180.397 120.008 181.665 121.371 181.392C122.734 181.119 123.678 179.338 123.178 176.834C122.341 172.594 119.412 171.744 119.412 171.744Z" fill="#00712D"/>
<path opacity="0.2" d="M119.412 171.744C119.412 171.744 117.06 173.646 117.935 177.899C118.449 180.397 120.008 181.665 121.371 181.392C122.734 181.119 123.678 179.338 123.178 176.834C122.341 172.594 119.412 171.744 119.412 171.744Z" fill="white"/>
<path d="M134.048 163.232C134.048 163.232 130.106 162.357 126.442 166.744C124.267 169.33 124.223 171.992 125.63 173.184C127.038 174.376 129.655 173.9 131.849 171.333C135.551 166.978 134.048 163.232 134.048 163.232Z" fill="#00712D"/>
<path d="M129.827 146.446C129.827 146.446 128.515 146.808 128.103 148.703C127.862 149.825 128.274 150.605 128.882 150.763C129.491 150.922 130.201 150.338 130.448 149.223C130.873 147.327 129.827 146.446 129.827 146.446Z" fill="#00712D"/>
<path d="M120.921 187.269C120.367 185.297 120.107 183.256 120.147 181.209C120.191 179.221 120.483 177.247 121.016 175.332C121.273 174.398 121.578 173.478 121.929 172.575C122.106 172.123 122.29 171.679 122.48 171.244C122.575 171.022 122.683 170.806 122.778 170.61L122.93 170.293L123.076 169.989C123.843 168.366 124.578 166.73 125.244 165.07C125.916 163.412 126.498 161.719 126.987 159.999C127.48 158.288 127.824 156.539 128.014 154.769C128.213 153 128.157 151.211 127.849 149.457C127.53 147.678 126.85 145.982 125.852 144.475C127.035 145.894 127.915 147.54 128.439 149.311C128.96 151.103 129.225 152.96 129.225 154.826C129.235 156.691 129.082 158.553 128.768 160.392C128.456 162.223 128.048 164.036 127.545 165.824C127.051 167.612 126.486 169.374 125.884 171.117L125.77 171.447L125.713 171.605L125.662 171.764C125.599 171.966 125.523 172.169 125.459 172.397C125.333 172.809 125.212 173.222 125.104 173.634C124.885 174.456 124.707 175.29 124.572 176.131C124.307 177.77 124.25 179.435 124.401 181.088C124.543 182.683 124.923 184.247 125.529 185.728L120.921 187.269Z" fill="#00712D"/>
<path opacity="0.2" d="M120.921 187.269C120.367 185.297 120.107 183.256 120.147 181.209C120.191 179.221 120.483 177.247 121.016 175.332C121.273 174.398 121.578 173.478 121.929 172.575C122.106 172.123 122.29 171.679 122.48 171.244C122.575 171.022 122.683 170.806 122.778 170.61L122.93 170.293L123.076 169.989C123.843 168.366 124.578 166.73 125.244 165.07C125.916 163.412 126.498 161.719 126.987 159.999C127.48 158.288 127.824 156.539 128.014 154.769C128.213 153 128.157 151.211 127.849 149.457C127.53 147.678 126.85 145.982 125.852 144.475C127.035 145.894 127.915 147.54 128.439 149.311C128.96 151.103 129.225 152.96 129.225 154.826C129.235 156.691 129.082 158.553 128.768 160.392C128.456 162.223 128.048 164.036 127.545 165.824C127.051 167.612 126.486 169.374 125.884 171.117L125.77 171.447L125.713 171.605L125.662 171.764C125.599 171.966 125.523 172.169 125.459 172.397C125.333 172.809 125.212 173.222 125.104 173.634C124.885 174.456 124.707 175.29 124.572 176.131C124.307 177.77 124.25 179.435 124.401 181.088C124.543 182.683 124.923 184.247 125.529 185.728L120.921 187.269Z" fill="black"/>
<path d="M133.022 179.916L132.851 181.862L131.716 194.539C131.697 194.755 131.598 194.955 131.438 195.1C131.278 195.246 131.07 195.326 130.854 195.325H116.484C116.268 195.323 116.061 195.242 115.902 195.097C115.743 194.952 115.643 194.753 115.621 194.539L114.493 181.862L114.316 179.916H133.022Z" fill="#00712D"/>
<path d="M132.815 186.945L132.409 191.485L132.58 191.5L132.986 186.961L132.815 186.945Z" fill="#00712D"/>
<path d="M133.033 184.543L132.937 185.616L133.107 185.631L133.203 184.558L133.033 184.543Z" fill="#00712D"/>
<path d="M122.588 150.211C122.588 150.211 120.56 152.918 122.632 157.26C123.856 159.795 125.878 160.778 127.272 160.112C128.667 159.447 129.218 157.285 128.014 154.712C125.973 150.357 122.588 150.211 122.588 150.211Z" fill="#00712D"/>
<path opacity="0.2" d="M122.588 150.211C122.588 150.211 120.56 152.918 122.632 157.26C123.856 159.795 125.878 160.778 127.272 160.112C128.667 159.447 129.218 157.285 128.014 154.712C125.973 150.357 122.588 150.211 122.588 150.211Z" fill="black"/>
<path opacity="0.2" d="M133.022 179.916L132.851 181.862H114.493L114.316 179.916H133.022Z" fill="black"/>
<path d="M134.131 177.513H113.2C112.976 177.513 112.794 177.695 112.794 177.919V180.48C112.794 180.704 112.976 180.885 113.2 180.885H134.131C134.355 180.885 134.537 180.704 134.537 180.48V177.919C134.537 177.695 134.355 177.513 134.131 177.513Z" fill="#00712D"/>
<path d="M131.798 159.916C133.486 159.916 134.854 158.548 134.854 156.861C134.854 155.174 133.486 153.806 131.798 153.806C130.111 153.806 128.743 155.174 128.743 156.861C128.743 158.548 130.111 159.916 131.798 159.916Z" fill="#00712D"/>
<path opacity="0.1" d="M134.251 157.609C134.355 157.202 134.355 156.775 134.251 156.368C134.148 155.962 133.943 155.587 133.657 155.28C133.37 154.973 133.011 154.743 132.613 154.611C132.214 154.479 131.788 154.449 131.375 154.525C130.962 154.6 130.575 154.778 130.249 155.043C129.922 155.307 129.668 155.65 129.509 156.038C129.349 156.427 129.29 156.849 129.337 157.266C129.384 157.684 129.535 158.083 129.776 158.426C129.519 158.08 129.355 157.674 129.298 157.247C129.242 156.82 129.295 156.386 129.454 155.985C129.612 155.584 129.87 155.23 130.202 154.956C130.535 154.683 130.933 154.499 131.356 154.421C131.78 154.344 132.217 154.376 132.625 154.514C133.033 154.652 133.399 154.892 133.689 155.211C133.979 155.53 134.183 155.917 134.281 156.337C134.379 156.756 134.369 157.194 134.251 157.609Z" fill="black"/>
<path d="M132.743 157.305L132.438 157.939C132.426 157.963 132.409 157.984 132.389 158.002C132.368 158.019 132.344 158.032 132.318 158.04C132.293 158.051 132.266 158.057 132.239 158.057C132.211 158.057 132.184 158.051 132.159 158.04L131.589 157.774L131.373 158.224C131.363 158.25 131.347 158.273 131.326 158.292C131.305 158.31 131.28 158.324 131.253 158.332C131.229 158.342 131.203 158.348 131.177 158.348C131.151 158.348 131.125 158.342 131.101 158.332C131.074 158.321 131.05 158.305 131.03 158.284C131.011 158.263 130.996 158.238 130.987 158.211C130.968 158.16 130.968 158.104 130.987 158.053L131.215 157.609L130.651 157.343C130.601 157.32 130.563 157.279 130.543 157.229C130.532 157.204 130.526 157.177 130.526 157.149C130.526 157.122 130.532 157.095 130.543 157.07C130.554 157.044 130.57 157.021 130.591 157.002C130.612 156.984 130.637 156.97 130.663 156.962C130.687 156.952 130.713 156.946 130.74 156.946C130.766 156.946 130.792 156.952 130.816 156.962L132.14 157.596L132.267 157.33L130.949 156.696C130.899 156.674 130.861 156.633 130.841 156.582C130.83 156.557 130.824 156.53 130.824 156.503C130.824 156.476 130.83 156.449 130.841 156.424L131.145 155.79C131.156 155.765 131.171 155.742 131.191 155.724C131.21 155.705 131.234 155.691 131.259 155.682C131.284 155.671 131.311 155.665 131.339 155.665C131.366 155.665 131.393 155.671 131.418 155.682L131.976 155.942L132.191 155.485C132.216 155.439 132.256 155.403 132.305 155.384C132.331 155.372 132.359 155.365 132.388 155.365C132.416 155.365 132.444 155.372 132.47 155.384C132.495 155.396 132.518 155.412 132.536 155.433C132.555 155.454 132.569 155.478 132.578 155.504C132.597 155.556 132.597 155.612 132.578 155.663L132.362 156.113L132.933 156.386C132.958 156.397 132.981 156.414 132.999 156.435C133.018 156.455 133.032 156.48 133.041 156.506C133.052 156.531 133.057 156.558 133.057 156.585C133.057 156.613 133.052 156.64 133.041 156.664C133.015 156.714 132.972 156.753 132.92 156.772C132.869 156.791 132.813 156.791 132.762 156.772L131.443 156.138L131.316 156.405L132.629 157.038C132.654 157.049 132.678 157.065 132.696 157.086C132.715 157.107 132.729 157.132 132.736 157.159C132.757 157.205 132.759 157.257 132.743 157.305Z" fill="#FAFAFA"/>
<path d="M121.751 169.139C123.439 169.139 124.806 167.771 124.806 166.084C124.806 164.396 123.439 163.028 121.751 163.028C120.064 163.028 118.696 164.396 118.696 166.084C118.696 167.771 120.064 169.139 121.751 169.139Z" fill="#00712D"/>
<path opacity="0.1" d="M124.198 166.845C124.302 166.438 124.302 166.012 124.198 165.605C124.094 165.198 123.89 164.824 123.603 164.517C123.317 164.209 122.958 163.979 122.559 163.847C122.161 163.715 121.735 163.686 121.322 163.761C120.909 163.837 120.522 164.015 120.195 164.279C119.869 164.544 119.615 164.886 119.455 165.274C119.296 165.663 119.237 166.085 119.284 166.503C119.331 166.92 119.481 167.319 119.723 167.663C119.466 167.317 119.302 166.911 119.245 166.484C119.189 166.056 119.242 165.622 119.4 165.221C119.559 164.82 119.816 164.466 120.149 164.193C120.482 163.919 120.879 163.735 121.303 163.658C121.727 163.58 122.164 163.612 122.572 163.75C122.98 163.888 123.346 164.128 123.636 164.447C123.926 164.766 124.129 165.154 124.228 165.573C124.326 165.993 124.316 166.43 124.198 166.845Z" fill="black"/>
<path d="M122.689 166.527L122.385 167.161C122.373 167.187 122.357 167.209 122.336 167.228C122.315 167.246 122.291 167.26 122.265 167.269C122.24 167.28 122.213 167.286 122.185 167.286C122.158 167.286 122.131 167.28 122.106 167.269L121.536 167.003L121.32 167.459C121.31 167.484 121.294 167.507 121.275 167.525C121.255 167.544 121.232 167.558 121.206 167.567C121.155 167.586 121.099 167.586 121.047 167.567C120.998 167.544 120.959 167.503 120.94 167.453C120.929 167.428 120.923 167.401 120.923 167.374C120.923 167.346 120.929 167.319 120.94 167.294L121.155 166.832L120.591 166.565C120.567 166.554 120.546 166.538 120.529 166.519C120.511 166.499 120.498 166.476 120.49 166.451C120.477 166.427 120.47 166.4 120.47 166.372C120.47 166.344 120.477 166.317 120.49 166.293C120.512 166.243 120.553 166.205 120.604 166.185C120.655 166.166 120.711 166.166 120.762 166.185L122.081 166.819L122.208 166.546L120.895 165.912C120.846 165.89 120.807 165.849 120.788 165.798C120.777 165.773 120.771 165.746 120.771 165.719C120.771 165.692 120.777 165.665 120.788 165.64L121.092 165.006C121.104 164.982 121.121 164.96 121.141 164.943C121.162 164.925 121.186 164.912 121.212 164.905C121.236 164.894 121.262 164.888 121.288 164.888C121.315 164.888 121.341 164.894 121.364 164.905L121.929 165.171L122.144 164.714C122.154 164.689 122.169 164.666 122.189 164.647C122.208 164.629 122.232 164.615 122.258 164.607C122.284 164.594 122.312 164.588 122.341 164.588C122.369 164.588 122.397 164.594 122.423 164.607C122.447 164.617 122.469 164.633 122.486 164.653C122.504 164.672 122.517 164.696 122.524 164.721C122.535 164.746 122.541 164.773 122.541 164.8C122.541 164.827 122.535 164.854 122.524 164.879L122.309 165.336L122.886 165.602C122.936 165.627 122.974 165.67 122.994 165.722C123.005 165.747 123.01 165.774 123.01 165.802C123.01 165.829 123.005 165.856 122.994 165.881C122.982 165.906 122.965 165.929 122.945 165.947C122.924 165.966 122.899 165.98 122.873 165.989C122.82 166.01 122.761 166.01 122.708 165.989L121.39 165.355L121.269 165.621L122.582 166.255C122.607 166.265 122.629 166.281 122.648 166.3C122.666 166.32 122.68 166.343 122.689 166.369C122.7 166.394 122.706 166.421 122.706 166.448C122.706 166.475 122.7 166.502 122.689 166.527Z" fill="#FAFAFA"/>
<path d="M396.842 208.799C396.842 208.799 373.536 167.896 378.916 157.464C384.297 147.031 398.035 165.789 398.035 165.789C398.035 165.789 386.087 127.639 392.66 110.972C399.234 94.3057 410.586 110.972 411.182 122.768C411.779 134.563 408.791 154.678 408.791 154.678C408.791 154.678 413.574 113.08 424.926 125.543C436.278 138.006 410.586 179.648 410.586 179.648C410.586 179.648 427.915 169.938 427.313 182.423C426.711 194.908 406.404 206.008 406.404 206.008" fill="#92E3A9"/>
<path d="M397.039 201.169C397.039 201.169 375.474 181.049 385.983 172.034C396.492 163.019 402.02 181.744 402.02 181.744C402.02 181.744 390.405 124.169 409.207 122.084C428.008 119.998 414.182 172.029 414.182 172.029C414.182 172.029 430.219 149.834 429.114 167.896C428.008 185.959 404.231 201.197 404.231 201.197" stroke="#263238" stroke-width="0.930728" stroke-miterlimit="10"/>
<path d="M407.63 197.508L393.06 181.717" stroke="#263238" stroke-width="0.930728" stroke-miterlimit="10"/>
<path d="M404.598 198.723L408.544 152.566" stroke="#263238" stroke-width="0.930728" stroke-miterlimit="10"/>
<path d="M403.99 195.379L417.045 178.072" stroke="#263238" stroke-width="0.930728" stroke-miterlimit="10"/>
<path d="M422.874 192.161H382.562L386.596 239.708H418.84L422.874 192.161Z" fill="#263238"/>
<path d="M268.983 137.021C263.741 134.449 258.323 132.254 252.77 130.453C244.768 127.99 235.326 130.245 235.118 132.91C234.91 135.576 236.333 134.355 238.2 137.245C240.066 140.135 239.223 146.89 241.894 153.047C244.566 159.205 252.562 162.281 252.562 162.281L268.983 137.021Z" fill="#92E3A9" stroke="#263238" stroke-width="0.930728" stroke-linecap="round" stroke-linejoin="round"/>
<path opacity="0.3" d="M263.646 142.975C263.646 142.975 251.331 135.176 244.15 132.505C236.969 129.833 236.558 133.736 236.558 133.736C237.74 134.17 238.753 134.966 239.454 136.011C240.155 137.056 240.508 138.297 240.461 139.554C240.461 144.163 242.765 153.709 248.364 155.679C253.964 157.65 263.646 142.975 263.646 142.975Z" fill="black"/>
<path d="M351.52 151.69C354.738 150.468 356.283 146.675 354.97 143.219C353.658 139.763 349.984 137.952 346.765 139.175C343.547 140.398 342.002 144.19 343.315 147.646C344.627 151.102 348.301 152.913 351.52 151.69Z" fill="#92E3A9" stroke="#263238" stroke-width="0.930728" stroke-linecap="round" stroke-linejoin="round"/>
<path d="M263.279 217.059L270.187 237.782C270.374 238.343 270.733 238.831 271.214 239.177C271.694 239.523 272.271 239.709 272.863 239.708H283.629C284.18 239.709 284.719 239.548 285.179 239.246C285.639 238.943 286.001 238.512 286.218 238.006L291.035 226.829" fill="#92E3A9"/>
<mask id="mask0_50_26920" style="mask-type:luminance" maskUnits="userSpaceOnUse" x="263" y="217" width="29" height="23">
<path d="M263.279 217.059L270.187 237.782C270.374 238.343 270.733 238.831 271.214 239.177C271.694 239.523 272.271 239.709 272.863 239.708H283.629C284.18 239.709 284.719 239.548 285.179 239.246C285.639 238.943 286.001 238.512 286.218 238.006L291.035 226.829" fill="white"/>
</mask>
<g mask="url(#mask0_50_26920)">
<path opacity="0.3" d="M266.744 217.059L272.458 237.782C272.567 238.302 272.843 238.772 273.244 239.12C273.646 239.468 274.15 239.675 274.681 239.708H283.608C284.098 239.683 284.568 239.505 284.953 239.2C285.338 238.895 285.617 238.478 285.753 238.006L289.749 226.829" fill="black"/>
</g>
<path d="M263.279 217.059L270.187 237.782C270.374 238.343 270.733 238.831 271.214 239.177C271.694 239.523 272.271 239.709 272.863 239.708H283.629C284.18 239.709 284.719 239.548 285.179 239.246C285.639 238.943 286.001 238.512 286.218 238.006L291.035 226.829" stroke="#263238" stroke-width="0.930728" stroke-linecap="round" stroke-linejoin="round"/>
<path d="M315.233 217.059L308.331 237.782C308.144 238.343 307.785 238.831 307.304 239.177C306.824 239.523 306.247 239.709 305.655 239.708H294.899C294.349 239.709 293.81 239.548 293.35 239.246C292.889 238.943 292.528 238.512 292.311 238.006L287.494 226.829" fill="#263238"/>
<path d="M315.233 217.059L308.331 237.782C308.144 238.343 307.785 238.831 307.304 239.177C306.824 239.523 306.247 239.709 305.655 239.708H294.899C294.349 239.709 293.81 239.548 293.35 239.246C292.889 238.943 292.528 238.512 292.311 238.006L287.494 226.829" stroke="#263238" stroke-width="0.930728" stroke-linecap="round" stroke-linejoin="round"/>
<path d="M338.107 217.059L331.199 237.782C331.012 238.343 330.652 238.831 330.172 239.177C329.692 239.523 329.115 239.709 328.523 239.708H317.756C317.206 239.709 316.667 239.548 316.206 239.246C315.746 238.943 315.385 238.512 315.167 238.006L310.351 226.829" fill="#92E3A9"/>
<mask id="mask1_50_26920" style="mask-type:luminance" maskUnits="userSpaceOnUse" x="310" y="217" width="29" height="23">
<path d="M338.107 217.059L331.199 237.782C331.012 238.343 330.652 238.831 330.172 239.177C329.692 239.523 329.115 239.709 328.523 239.708H317.756C317.206 239.709 316.667 239.548 316.206 239.246C315.746 238.943 315.385 238.512 315.167 238.006L310.351 226.829" fill="white"/>
</mask>
<g mask="url(#mask1_50_26920)">
<path opacity="0.3" d="M333.213 217.059L328.489 237.782C328.227 238.931 327.493 239.708 326.661 239.708H319.3C318.533 239.708 317.838 239.04 317.532 238.006L312.956 227.059" fill="black"/>
</g>
<path d="M338.107 217.059L331.199 237.782C331.012 238.343 330.652 238.831 330.172 239.177C329.692 239.523 329.115 239.709 328.523 239.708H317.756C317.206 239.709 316.667 239.548 316.206 239.246C315.746 238.943 315.385 238.512 315.167 238.006L310.351 226.829" stroke="#263238" stroke-width="0.930728" stroke-linecap="round" stroke-linejoin="round"/>
<path d="M301.194 230.694C333.893 230.694 360.4 206.654 360.4 176.999C360.4 147.345 333.893 123.305 301.194 123.305C268.495 123.305 241.988 147.345 241.988 176.999C241.988 206.654 268.495 230.694 301.194 230.694Z" fill="#92E3A9"/>
<mask id="mask2_50_26920" style="mask-type:luminance" maskUnits="userSpaceOnUse" x="241" y="123" width="120" height="108">
<path d="M301.194 230.694C333.893 230.694 360.4 206.654 360.4 176.999C360.4 147.345 333.893 123.305 301.194 123.305C268.495 123.305 241.988 147.345 241.988 176.999C241.988 206.654 268.495 230.694 301.194 230.694Z" fill="white"/>
</mask>
<g mask="url(#mask2_50_26920)">
<path opacity="0.3" d="M341.971 140.309C345.443 147.195 347.252 154.798 347.253 162.509C347.253 192.165 320.745 216.204 288.046 216.204C275.878 216.265 263.951 212.81 253.7 206.253C264.023 220.106 281.5 229.242 301.319 229.242C333.065 229.242 358.791 205.919 358.791 177.145C358.758 162.745 352.332 149.734 341.971 140.309Z" fill="black"/>
</g>
<path d="M301.194 230.694C333.893 230.694 360.4 206.654 360.4 176.999C360.4 147.345 333.893 123.305 301.194 123.305C268.495 123.305 241.988 147.345 241.988 176.999C241.988 206.654 268.495 230.694 301.194 230.694Z" stroke="#263238" stroke-width="0.930728" stroke-linecap="round" stroke-linejoin="round"/>
<path d="M355.419 181.815C354.127 192.631 349.141 202.445 341.631 210.195" stroke="#92E3A9" stroke-width="1.86146" stroke-linecap="round" stroke-linejoin="round"/>
<path d="M354.439 165.16C355.313 168.782 355.754 172.495 355.753 176.221" stroke="#92E3A9" stroke-width="1.86146" stroke-linecap="round" stroke-linejoin="round"/>
<path d="M286.514 126.653C291.392 125.513 296.386 124.94 301.396 124.945C304.604 124.945 307.807 125.179 310.98 125.646" stroke="#263238" stroke-width="3.72291" stroke-linecap="round" stroke-linejoin="round"/>
<path d="M312.808 164.136C312.808 164.136 318.555 160.233 318.763 153.052C318.971 145.871 309.524 135.406 301.932 131.093C294.341 126.78 288.796 127.606 288.594 130.682C288.391 133.758 285.72 137.25 284.697 143.2C283.673 149.15 283.257 157.978 291.265 160.852" fill="#92E3A9"/>
<path d="M312.808 164.136C312.808 164.136 318.555 160.233 318.763 153.052C318.971 145.871 309.524 135.406 301.932 131.093C294.341 126.78 288.796 127.606 288.594 130.682C288.391 133.758 285.72 137.25 284.697 143.2C283.673 149.15 283.257 157.978 291.265 160.852" stroke="#263238" stroke-width="0.930728" stroke-linecap="round" stroke-linejoin="round"/>
<path opacity="0.3" d="M300.444 161.832L301.621 162.007C306.667 162.735 308.441 159.44 308.293 154.492C308.091 147.513 298.857 132.735 294.954 130.683C291.052 128.63 289.826 131.504 289.826 131.504C289.826 131.504 290.373 131.87 288.452 138.247C287.565 141.192 284.265 151.46 287.532 156.014C290.422 160.037 295.792 161.137 300.444 161.832Z" fill="black"/>
<path opacity="0.3" d="M316.793 154.76H316.716C316.645 154.75 316.575 154.727 316.513 154.691C316.45 154.654 316.396 154.606 316.352 154.549C316.308 154.491 316.276 154.426 316.258 154.356C316.24 154.286 316.235 154.213 316.245 154.141C316.305 153.72 316.339 153.296 316.349 152.871C316.459 149.04 313.334 143.539 308.194 138.465C308.143 138.415 308.102 138.354 308.074 138.288C308.046 138.221 308.031 138.15 308.03 138.078C308.03 138.006 308.043 137.934 308.071 137.867C308.098 137.8 308.138 137.74 308.189 137.688C308.239 137.637 308.299 137.596 308.366 137.568C308.432 137.54 308.504 137.525 308.576 137.524C308.648 137.524 308.72 137.538 308.787 137.565C308.853 137.592 308.914 137.632 308.966 137.683C314.395 143.047 317.565 148.734 317.444 152.899C317.432 153.364 317.396 153.828 317.335 154.289C317.316 154.42 317.251 154.539 317.152 154.626C317.052 154.712 316.925 154.76 316.793 154.76Z" fill="black"/>
<path opacity="0.3" d="M313.848 161.361C313.745 161.361 313.643 161.332 313.555 161.277C313.468 161.222 313.397 161.143 313.353 161.05C313.308 160.956 313.291 160.852 313.303 160.749C313.315 160.646 313.356 160.549 313.421 160.469C314.323 159.364 315.044 158.122 315.556 156.791C315.608 156.655 315.711 156.545 315.843 156.486C315.976 156.426 316.126 156.422 316.262 156.473C316.398 156.525 316.508 156.628 316.567 156.76C316.627 156.893 316.631 157.043 316.58 157.179C316.027 158.62 315.247 159.964 314.27 161.158C314.219 161.221 314.155 161.272 314.082 161.307C314.009 161.342 313.929 161.36 313.848 161.361Z" fill="black"/>
<path opacity="0.3" d="M273.989 187.387C275.608 180.899 269.966 173.905 261.387 171.764C252.808 169.623 244.541 173.147 242.922 179.635C241.303 186.123 246.946 193.118 255.525 195.258C264.104 197.399 272.371 193.875 273.989 187.387Z" fill="black"/>
<path d="M273.219 186.21C274.838 179.722 269.195 172.728 260.616 170.587C252.037 168.447 243.771 171.971 242.152 178.458C240.533 184.946 246.175 191.941 254.754 194.081C263.333 196.222 271.6 192.698 273.219 186.21Z" fill="#92E3A9" stroke="#263238" stroke-width="0.930728" stroke-linecap="round" stroke-linejoin="round"/>
<path d="M252.853 180.376C252.951 181.842 252.387 183.079 251.599 183.112C250.811 183.145 250.083 182.018 249.957 180.551C249.831 179.084 250.422 177.841 251.216 177.814C252.01 177.787 252.754 178.903 252.853 180.376Z" stroke="#263238" stroke-width="0.930728" stroke-linecap="round" stroke-linejoin="round"/>
<path d="M263.701 183.097C263.799 184.569 263.235 185.8 262.447 185.833C261.659 185.866 260.931 184.739 260.805 183.266C260.679 181.794 261.271 180.562 262.064 180.53C262.858 180.497 263.586 181.624 263.701 183.097Z" stroke="#263238" stroke-width="0.930728" stroke-linecap="round" stroke-linejoin="round"/>
<path d="M281.604 186.9C281.489 187.954 281.242 188.989 280.871 189.982C277.729 198.471 266.355 202.144 255.118 198.488" stroke="#263238" stroke-width="2.79219" stroke-linecap="round" stroke-linejoin="round"/>
<path d="M279.771 186.096H283.257" stroke="#263238" stroke-width="2.79219" stroke-linecap="round" stroke-linejoin="round"/>
<path d="M257.559 163.371C257.176 164.963 256.197 166.107 255.37 165.899C254.544 165.691 254.182 164.257 254.571 162.648C254.96 161.039 255.934 159.911 256.76 160.114C257.587 160.316 257.948 161.772 257.559 163.371Z" fill="#263238" stroke="#263238" stroke-width="0.930728" stroke-linecap="round" stroke-linejoin="round"/>
<path d="M267.654 165.57C268.039 163.971 267.682 162.514 266.856 162.315C266.03 162.116 265.048 163.25 264.663 164.849C264.278 166.448 264.635 167.905 265.461 168.104C266.287 168.303 267.268 167.168 267.654 165.57Z" fill="#263238" stroke="#263238" stroke-width="0.930728" stroke-linecap="round" stroke-linejoin="round"/>
<path d="M282.727 223.726L288.747 238.012C288.963 238.523 289.325 238.959 289.788 239.265C290.25 239.572 290.792 239.736 291.347 239.736H302.294C302.844 239.735 303.381 239.574 303.841 239.273C304.301 238.972 304.663 238.543 304.883 238.039L311.451 222.861H311.167" fill="#92E3A9"/>
<mask id="mask3_50_26920" style="mask-type:luminance" maskUnits="userSpaceOnUse" x="282" y="222" width="30" height="18">
<path d="M282.727 223.726L288.747 238.012C288.963 238.523 289.325 238.959 289.788 239.265C290.25 239.572 290.792 239.736 291.347 239.736H302.294C302.844 239.735 303.381 239.574 303.841 239.273C304.301 238.972 304.663 238.543 304.883 238.039L311.451 222.861H311.167" fill="white"/>
</mask>
<g mask="url(#mask3_50_26920)">
<path opacity="0.3" d="M295.447 221.902C291.976 221.902 287.937 222.356 284.669 221.601L290.296 237.983C290.43 238.459 290.709 238.881 291.095 239.19C291.481 239.499 291.954 239.68 292.447 239.707H301.467C301.955 239.68 302.422 239.502 302.805 239.198C303.187 238.894 303.466 238.479 303.602 238.01L309.048 221.3L306.859 221.601C299.913 222.356 300.094 221.902 295.447 221.902Z" fill="black"/>
</g>
<path d="M282.727 223.726L288.747 238.012C288.963 238.523 289.325 238.959 289.788 239.265C290.25 239.572 290.792 239.736 291.347 239.736H302.294C302.844 239.735 303.381 239.574 303.841 239.273C304.301 238.972 304.663 238.543 304.883 238.039L311.451 222.861H311.167" stroke="#263238" stroke-width="0.930728" stroke-linecap="round" stroke-linejoin="round"/>
<path d="M391.78 1.19704L361.506 44.8149C361.506 44.8149 358.917 50.989 355.731 55.5703C352.546 60.1515 343.613 64.7328 343.613 64.7328C343.613 64.7328 342.82 73.2933 340.231 76.2818C337.642 79.2703 332.064 77.4805 332.064 77.4805C332.064 77.4805 329.672 80.0694 327.083 81.2626C324.494 82.4558 316.531 78.0771 316.531 78.0771C316.531 78.0771 323.695 85.8439 324.691 88.4328C325.688 91.0218 327.483 93.2111 324.297 95.603C321.112 97.9949 317.521 94.6069 317.521 94.6069C317.521 94.6069 319.12 99.7848 314.538 100.781C309.957 101.777 304.965 91.8154 302.973 88.4328C300.981 85.0502 295.206 72.2971 294.215 71.7005C293.225 71.1039 291.829 67.9184 293.821 64.9299C295.814 61.9414 309.946 42.8226 311.539 41.4597C313.132 40.0968 343.613 32.8664 343.613 32.8664L355.168 1" fill="white"/>
<mask id="mask4_50_26920" style="mask-type:luminance" maskUnits="userSpaceOnUse" x="292" y="1" width="100" height="100">
<path d="M391.78 1.19704L361.506 44.8149C361.506 44.8149 358.917 50.989 355.731 55.5703C352.546 60.1515 343.613 64.7328 343.613 64.7328C343.613 64.7328 342.82 73.2933 340.231 76.2818C337.642 79.2703 332.064 77.4805 332.064 77.4805C332.064 77.4805 329.672 80.0694 327.083 81.2626C324.494 82.4558 316.531 78.0771 316.531 78.0771C316.531 78.0771 323.695 85.8439 324.691 88.4328C325.688 91.0218 327.483 93.2111 324.297 95.603C321.112 97.9949 317.521 94.6069 317.521 94.6069C317.521 94.6069 319.12 99.7848 314.538 100.781C309.957 101.777 304.965 91.8154 302.973 88.4328C300.981 85.0502 295.206 72.2971 294.215 71.7005C293.225 71.1039 291.829 67.9184 293.821 64.9299C295.814 61.9414 309.946 42.8226 311.539 41.4597C313.132 40.0968 343.613 32.8664 343.613 32.8664L355.168 1" fill="white"/>
</mask>
<g mask="url(#mask4_50_26920)">
<path opacity="0.2" d="M358.391 45.2912C358.391 45.2912 355.107 55.1434 351.549 57.0591C347.992 58.9748 327.74 64.1746 319.803 63.0799C311.867 61.9852 307.488 58.9748 307.488 58.9748C307.488 58.9748 303.109 64.7219 301.194 66.6376C299.86 67.8765 298.272 68.8104 296.541 69.3744C296.541 69.3744 306.065 93.2988 312.912 100.704C313.444 100.869 314.009 100.895 314.554 100.781C319.136 99.7848 317.537 94.607 317.537 94.607C317.537 94.607 321.123 97.9895 324.314 95.6031C327.505 93.2167 325.704 91.0219 324.708 88.4329C323.711 85.844 316.519 78.0771 316.519 78.0771C316.519 78.0771 324.483 82.4559 327.072 81.2627C329.661 80.0695 332.053 77.4751 332.053 77.4751C332.053 77.4751 337.63 79.2704 340.219 76.2819C342.808 73.2934 343.602 64.7329 343.602 64.7329C343.602 64.7329 352.562 60.1516 355.753 55.5703C358.944 50.9891 361.527 44.815 361.527 44.815L374.001 26.8457L358.391 45.2912Z" fill="black"/>
</g>
<path d="M391.78 1.19704L361.506 44.8149C361.506 44.8149 358.917 50.989 355.731 55.5703C352.546 60.1515 343.613 64.7328 343.613 64.7328C343.613 64.7328 342.82 73.2933 340.231 76.2818C337.642 79.2703 332.064 77.4805 332.064 77.4805C332.064 77.4805 329.672 80.0694 327.083 81.2626C324.494 82.4558 316.531 78.0771 316.531 78.0771C316.531 78.0771 323.695 85.8439 324.691 88.4328C325.688 91.0218 327.483 93.2111 324.297 95.603C321.112 97.9949 317.521 94.6069 317.521 94.6069C317.521 94.6069 319.12 99.7848 314.538 100.781C309.957 101.777 304.965 91.8154 302.973 88.4328C300.981 85.0502 295.206 72.2971 294.215 71.7005C293.225 71.1039 291.829 67.9184 293.821 64.9299C295.814 61.9414 309.946 42.8226 311.539 41.4597C313.132 40.0968 343.613 32.8664 343.613 32.8664L355.168 1" stroke="#263238" stroke-width="0.930728" stroke-linecap="round" stroke-linejoin="round"/>
<path d="M288.238 117.507L289.032 120.496L301.38 117.507L312.934 87.2335L305.365 84.6445L288.238 117.507Z" fill="white" stroke="#263238" stroke-width="0.930728" stroke-linecap="round" stroke-linejoin="round"/>
<path d="M292.02 77.2783L309.147 83.6549L300.783 121.493L280.668 115.319L292.02 77.2783Z" fill="white" stroke="#263238" stroke-width="0.930728" stroke-linecap="round" stroke-linejoin="round"/>
<path d="M281.342 113.058L299.191 118.307L306.958 84.6457L291.32 79.6211L281.342 113.058Z" fill="#92E3A9" stroke="#263238" stroke-width="0.930728" stroke-linecap="round" stroke-linejoin="round"/>
<path d="M291.249 87.9452C290.472 87.7396 289.66 87.7022 288.868 87.8357L284.204 103.462C284.879 104.12 285.71 104.596 286.618 104.847C290.274 105.854 294.281 102.882 295.562 98.2133C296.843 93.5445 294.899 88.9468 291.249 87.9452Z" fill="white" stroke="#263238" stroke-width="0.930728" stroke-linecap="round" stroke-linejoin="round"/>
<path d="M290.586 90.5354C290.563 90.5248 290.544 90.5067 290.532 90.4838C290.52 90.461 290.516 90.4348 290.521 90.4095L290.729 89.5995C290.741 89.5653 290.746 89.5288 290.743 89.4925C290.739 89.4563 290.728 89.4213 290.709 89.3902C290.69 89.3591 290.664 89.3328 290.633 89.3131C290.603 89.2934 290.568 89.2809 290.532 89.2765L289.661 89.0685C289.627 89.0547 289.59 89.0491 289.554 89.052C289.517 89.055 289.482 89.0666 289.45 89.0857C289.419 89.1049 289.392 89.1311 289.373 89.1624C289.354 89.1936 289.342 89.229 289.338 89.2656L289.169 90.103C289.162 90.1281 289.147 90.1501 289.126 90.1651C289.105 90.1801 289.08 90.1872 289.054 90.1851C288.757 90.1548 288.458 90.1548 288.162 90.1851L286.569 95.5327C287.811 96.8244 289.749 97.4703 289.492 98.554C289.344 99.1671 288.786 99.6487 287.806 99.4298C287.601 99.4024 287.404 99.3312 287.23 99.221C287.055 99.1109 286.906 98.9644 286.792 98.7914C286.679 98.6185 286.604 98.4232 286.573 98.2188C286.542 98.0145 286.556 97.8059 286.613 97.6071L286.662 97.3882C286.689 97.2678 286.618 97.1693 286.449 97.1309L286.115 97.0488L285.168 100.212C285.548 100.558 285.992 100.826 286.476 101.001C286.5 101.011 286.52 101.03 286.532 101.054C286.544 101.078 286.548 101.106 286.542 101.132L286.345 101.827C286.329 101.861 286.323 101.898 286.325 101.935C286.328 101.973 286.339 102.009 286.358 102.04C286.378 102.072 286.404 102.099 286.436 102.118C286.468 102.137 286.504 102.148 286.542 102.15L287.445 102.369C287.476 102.386 287.512 102.395 287.548 102.396C287.583 102.398 287.619 102.39 287.652 102.376C287.685 102.361 287.714 102.339 287.737 102.311C287.759 102.283 287.776 102.251 287.784 102.216L287.932 101.526C287.94 101.501 287.956 101.478 287.978 101.463C287.999 101.447 288.025 101.438 288.052 101.439C289.979 101.641 291.287 100.694 291.692 99.0083C292.01 97.6619 291.555 96.5179 290.149 95.4396C288.862 94.4654 287.505 93.9837 287.74 92.9875C287.904 92.2979 288.534 91.9804 289.382 92.1829C289.592 92.2167 289.792 92.2956 289.969 92.4141C290.146 92.5327 290.294 92.688 290.405 92.8696C290.516 93.0511 290.586 93.2545 290.611 93.4657C290.635 93.6769 290.614 93.891 290.548 94.0932L290.51 94.2464C290.51 94.3395 290.565 94.4216 290.734 94.4654L292.338 94.8485C292.372 94.8612 292.409 94.8659 292.445 94.8625C292.481 94.859 292.516 94.8473 292.547 94.8283C292.578 94.8094 292.605 94.7836 292.624 94.753C292.644 94.7223 292.657 94.6876 292.661 94.6515L292.781 94.1424C293.148 92.5387 292.376 91.1758 290.586 90.5354Z" fill="#263238"/>
<path d="M306.158 57.36C306.158 57.36 308.55 60.9451 308.95 64.1361C309.289 66.8559 308.653 69.608 307.154 71.9029C305.961 73.6927 304.768 75.2855 303.772 78.077C302.776 80.8684 302.579 84.8476 301.183 86.8345C299.787 88.8213 298.993 90.8137 300.98 92.609C302.967 94.4043 308.15 94.2017 310.942 89.0239C313.733 83.846 315.523 78.2685 317.313 76.2762C319.103 74.2839 324.883 69.7081 324.883 69.7081C324.883 69.7081 340.614 67.5187 343.602 64.7327C346.591 61.9467 349.179 54.377 349.179 54.377" fill="white"/>
<mask id="mask5_50_26920" style="mask-type:luminance" maskUnits="userSpaceOnUse" x="299" y="54" width="51" height="40">
<path d="M306.158 57.36C306.158 57.36 308.55 60.9451 308.95 64.1361C309.289 66.8559 308.653 69.608 307.154 71.9029C305.961 73.6927 304.768 75.2855 303.772 78.077C302.776 80.8684 302.579 84.8476 301.183 86.8345C299.787 88.8213 298.993 90.8137 300.98 92.609C302.967 94.4043 308.15 94.2017 310.942 89.0239C313.733 83.846 315.523 78.2685 317.313 76.2762C319.103 74.2839 324.883 69.7081 324.883 69.7081C324.883 69.7081 340.614 67.5187 343.602 64.7327C346.591 61.9467 349.179 54.377 349.179 54.377" fill="white"/>
</mask>
<g mask="url(#mask5_50_26920)">
<path opacity="0.2" d="M347.992 57.0591C347.992 57.0591 339.508 62.5325 332.94 64.1746C326.372 65.8166 322.267 65.8166 319.803 69.1007C317.34 72.3847 314.877 82.7843 311.593 84.7C308.309 86.6157 307.762 79.7739 303.109 81.1422L302.956 81.197C302.502 83.3316 302.102 85.521 301.183 86.8401C299.787 88.8324 298.993 90.8193 300.98 92.6146C302.967 94.4099 308.15 94.2074 310.942 89.0295C313.733 83.8516 315.523 78.2742 317.313 76.2818C319.103 74.2895 324.883 69.7137 324.883 69.7137C324.883 69.7137 340.614 67.5243 343.602 64.7383C345.408 63.0525 347.067 59.6261 348.096 57.174L347.992 57.0591Z" fill="black"/>
</g>
<path d="M306.158 57.36C306.158 57.36 308.55 60.9451 308.95 64.1361C309.289 66.8559 308.653 69.608 307.154 71.9029C305.961 73.6927 304.768 75.2855 303.772 78.077C302.776 80.8684 302.579 84.8476 301.183 86.8345C299.787 88.8213 298.993 90.8137 300.98 92.609C302.967 94.4043 308.15 94.2017 310.942 89.0239C313.733 83.846 315.523 78.2685 317.313 76.2762C319.103 74.2839 324.883 69.7081 324.883 69.7081C324.883 69.7081 340.614 67.5187 343.602 64.7327C346.591 61.9467 349.179 54.377 349.179 54.377" stroke="#263238" stroke-width="0.930728" stroke-linecap="round" stroke-linejoin="round"/>
<path d="M299.984 67.3219C299.984 67.3219 305.167 70.1079 308.95 66.9224" stroke="#263238" stroke-width="0.930728" stroke-linecap="round" stroke-linejoin="round"/>
<path d="M317.51 94.6077L312.935 85.8447" stroke="#263238" stroke-width="0.930728" stroke-linecap="round" stroke-linejoin="round"/>
<path d="M332.053 77.4811C332.053 77.4811 335.638 74.4926 335.436 67.9189" stroke="#263238" stroke-width="0.930728" stroke-linecap="round" stroke-linejoin="round"/>
<path d="M223.197 239.708H439.945" stroke="#263238" stroke-width="0.930728" stroke-linecap="round" stroke-linejoin="round"/>
<path d="M204.04 239.708H213.892" stroke="#263238" stroke-width="0.930728" stroke-linecap="round" stroke-linejoin="round"/>
</svg>
