<svg width="56" height="50" viewBox="0 0 56 50" fill="none" xmlns="http://www.w3.org/2000/svg">
<rect width="56" height="50" rx="4" fill="white"/>
<g clip-path="url(#clip0_184_274)">
<path d="M17.0909 39.8522V24.4776L12.298 20.1155L8 17.6948V37.139C8 38.6403 9.22266 39.8522 10.7273 39.8522H17.0909Z" fill="#4285F4"/>
<path d="M38.9092 39.8526H45.2728C46.782 39.8526 48.0001 38.6361 48.0001 37.1394V17.6953L43.132 20.4679L38.9092 24.478V39.8526Z" fill="#34A853"/>
<path d="M17.0912 24.4776L16.439 18.4703L17.0912 12.7207L28.0002 20.8602L38.9093 12.7207L39.6388 18.1599L38.9093 24.4776L28.0002 32.6171L17.0912 24.4776Z" fill="#EA4335"/>
<path d="M38.9092 12.7208V24.4777L48.0001 17.6949V14.0773C48.0001 10.7221 44.1501 8.80943 41.4548 10.8216L38.9092 12.7208Z" fill="#FBBC04"/>
<path d="M8 17.6949L12.1811 20.8146L17.0909 24.4777V12.7209L14.5453 10.8217C11.8453 8.80935 8 10.7222 8 14.0772V17.6949Z" fill="#C5221F"/>
</g>
<defs>
<clipPath id="clip0_184_274">
<rect width="40" height="30" fill="white" transform="translate(8 10)"/>
</clipPath>
</defs>
</svg>
