<svg width="56" height="50" viewBox="0 0 56 50" fill="none" xmlns="http://www.w3.org/2000/svg">
<rect width="56" height="50" rx="4" fill="white"/>
<g clip-path="url(#clip0_184_273)">
<path d="M47.1166 15.3672C46.8872 14.5231 46.4396 13.7536 45.8185 13.1352C45.1974 12.5168 44.4245 12.0713 43.5766 11.8428C40.4725 11 27.9797 11 27.9797 11C27.9797 11 15.4863 11.0255 12.3822 11.8683C11.5343 12.0968 10.7613 12.5424 10.1403 13.1608C9.51916 13.7792 9.07163 14.5487 8.84222 15.3929C7.90331 20.8837 7.53909 29.2504 8.868 34.5216C9.09743 35.3657 9.54498 36.1352 10.1661 36.7536C10.7872 37.3719 11.5601 37.8175 12.408 38.046C15.5121 38.8888 28.0052 38.8888 28.0052 38.8888C28.0052 38.8888 40.4982 38.8888 43.6021 38.046C44.45 37.8175 45.223 37.372 45.8441 36.7536C46.4652 36.1352 46.9128 35.3657 47.1422 34.5216C48.1325 29.023 48.4377 20.6614 47.1166 15.3672Z" fill="#FF0000"/>
<path d="M24.0034 30.9205L34.3672 24.9444L24.0034 18.9683V30.9205Z" fill="white"/>
</g>
<defs>
<clipPath id="clip0_184_273">
<rect width="40" height="28" fill="white" transform="translate(8 11)"/>
</clipPath>
</defs>
</svg>
