<svg width="56" height="50" viewBox="0 0 56 50" fill="none" xmlns="http://www.w3.org/2000/svg">
<rect width="56" height="50" rx="4" fill="white"/>
<g clip-path="url(#clip0_184_275)">
<path d="M38.625 5H17.375C12.1973 5 8 9.19733 8 14.375V35.625C8 40.8027 12.1973 45 17.375 45H38.625C43.8027 45 48 40.8027 48 35.625V14.375C48 9.19733 43.8027 5 38.625 5Z" fill="url(#paint0_radial_184_275)"/>
<path d="M38.625 5H17.375C12.1973 5 8 9.19733 8 14.375V35.625C8 40.8027 12.1973 45 17.375 45H38.625C43.8027 45 48 40.8027 48 35.625V14.375C48 9.19733 43.8027 5 38.625 5Z" fill="url(#paint1_radial_184_275)"/>
<path d="M28.0014 9.375C23.758 9.375 23.2253 9.39359 21.5588 9.46938C19.8953 9.54563 18.7598 9.80891 17.7664 10.1953C16.7386 10.5944 15.8669 11.1283 14.9984 11.997C14.1292 12.8656 13.5953 13.7373 13.195 14.7647C12.8075 15.7584 12.5439 16.8944 12.4691 18.557C12.3945 20.2237 12.375 20.7566 12.375 25.0002C12.375 29.2438 12.3938 29.7747 12.4694 31.4412C12.5459 33.1047 12.8092 34.2402 13.1953 35.2336C13.5947 36.2614 14.1286 37.1331 14.9973 38.0016C15.8656 38.8708 16.7373 39.4059 17.7644 39.805C18.7586 40.1914 19.8942 40.4547 21.5573 40.5309C23.2241 40.6067 23.7563 40.6253 27.9995 40.6253C32.2434 40.6253 32.7744 40.6067 34.4409 40.5309C36.1044 40.4547 37.2411 40.1914 38.2353 39.805C39.2627 39.4059 40.1331 38.8708 41.0012 38.0016C41.8705 37.1331 42.4042 36.2614 42.8047 35.2341C43.1887 34.2402 43.4525 33.1044 43.5306 31.4416C43.6055 29.775 43.625 29.2438 43.625 25.0002C43.625 20.7566 43.6055 20.2241 43.5306 18.5573C43.4525 16.8939 43.1887 15.7586 42.8047 14.7652C42.4042 13.7373 41.8705 12.8656 41.0012 11.997C40.1322 11.128 39.263 10.5941 38.2344 10.1955C37.2383 9.80891 36.1022 9.54547 34.4387 9.46938C32.772 9.39359 32.2414 9.375 27.9966 9.375H28.0014ZM26.5997 12.1908C27.0158 12.1902 27.48 12.1908 28.0014 12.1908C32.1734 12.1908 32.6678 12.2058 34.3153 12.2806C35.8387 12.3503 36.6656 12.6048 37.2164 12.8188C37.9456 13.1019 38.4655 13.4405 39.012 13.9875C39.5589 14.5344 39.8973 15.0552 40.1813 15.7844C40.3952 16.3344 40.65 17.1613 40.7194 18.6847C40.7942 20.3319 40.8105 20.8266 40.8105 24.9966C40.8105 29.1666 40.7942 29.6614 40.7194 31.3084C40.6497 32.8319 40.3952 33.6587 40.1813 34.2089C39.8981 34.9381 39.5589 35.4573 39.012 36.0039C38.4652 36.5508 37.9459 36.8892 37.2164 37.1725C36.6663 37.3873 35.8387 37.6413 34.3153 37.7109C32.6681 37.7858 32.1734 37.802 28.0014 37.802C23.8292 37.802 23.3347 37.7858 21.6877 37.7109C20.1642 37.6406 19.3373 37.3861 18.7861 37.1722C18.057 36.8889 17.5361 36.5505 16.9892 36.0036C16.4423 35.4567 16.1039 34.9372 15.82 34.2077C15.6061 33.6575 15.3513 32.8306 15.2819 31.3072C15.207 29.66 15.192 29.1653 15.192 24.9927C15.192 20.82 15.207 20.328 15.2819 18.6808C15.3516 17.1573 15.6061 16.3305 15.82 15.7797C16.1033 15.0505 16.4423 14.5297 16.9894 13.9828C17.5364 13.4359 18.057 13.0973 18.7862 12.8136C19.337 12.5987 20.1642 12.3448 21.6877 12.2748C23.1291 12.2097 23.6877 12.1902 26.5997 12.1869V12.1908ZM36.342 14.7852C35.3069 14.7852 34.467 15.6242 34.467 16.6595C34.467 17.6947 35.3069 18.5345 36.342 18.5345C37.3772 18.5345 38.217 17.6947 38.217 16.6595C38.217 15.6244 37.3772 14.7845 36.342 14.7845V14.7852ZM28.0014 16.9759C23.5702 16.9759 19.9773 20.5688 19.9773 25.0002C19.9773 29.4316 23.5702 33.0227 28.0014 33.0227C32.4328 33.0227 36.0244 29.4316 36.0244 25.0002C36.0244 20.5689 32.4325 16.9759 28.0011 16.9759H28.0014ZM28.0014 19.7917C30.8778 19.7917 33.2098 22.1234 33.2098 25.0002C33.2098 27.8766 30.8778 30.2086 28.0014 30.2086C25.125 30.2086 22.7931 27.8766 22.7931 25.0002C22.7931 22.1234 25.1248 19.7917 28.0014 19.7917Z" fill="white"/>
</g>
<defs>
<radialGradient id="paint0_radial_184_275" cx="0" cy="0" r="1" gradientUnits="userSpaceOnUse" gradientTransform="translate(18.625 48.0808) rotate(-90) scale(39.643 36.8711)">
<stop stop-color="#FFDD55"/>
<stop offset="0.1" stop-color="#FFDD55"/>
<stop offset="0.5" stop-color="#FF543E"/>
<stop offset="1" stop-color="#C837AB"/>
</radialGradient>
<radialGradient id="paint1_radial_184_275" cx="0" cy="0" r="1" gradientUnits="userSpaceOnUse" gradientTransform="translate(1.29984 7.88141) rotate(78.681) scale(17.7206 73.045)">
<stop stop-color="#3771C8"/>
<stop offset="0.128" stop-color="#3771C8"/>
<stop offset="1" stop-color="#6600FF" stop-opacity="0"/>
</radialGradient>
<clipPath id="clip0_184_275">
<rect width="40" height="40" fill="white" transform="translate(8 5)"/>
</clipPath>
</defs>
</svg>
